{
.appVersion = "116";
DisplayStrings = (
A
);
copyright = "Copyright © 2024 gbgk + The Inter Project Authors";
customParameters = (
{
name = license;
value = "OFL 1.1";
}
);
date = "2023-11-20 00:06:37 +0000";
designer = gbgk;
designerURL = "https://gbgk.me";
familyName = "Dag Round";
featurePrefixes = (
{
automatic = 1;
code = "languagesystem DFLT dflt;\012languagesystem latn dflt;\012languagesystem hebr dflt;\012languagesystem latn ROM;\012languagesystem latn MOL;\012languagesystem latn CAT;\012";
name = Languagesystems;
}
);
features = (
{
automatic = 1;
code = "feature locl;\012feature frac;\012feature ordn;\012feature smcp;\012";
name = aalt;
},
{
automatic = 1;
code = "script latn;\012language ROM;\012sub Scedilla by Scommaaccent;\012sub scedilla by scommaaccent;\012sub tcedilla by tcommaaccent;\012language MOL;\012sub Scedilla by Scommaaccent;\012sub scedilla by scommaaccent;\012sub tcedilla by tcommaaccent;\012language CAT;\012sub  l' periodcentered' l by ldot;\012sub  L' periodcentered' L by Ldot;\012";
name = locl;
},
{
automatic = 1;
code = "lookup FRAC {\012	sub slash by fraction;\012} FRAC;\012lookup UP {\012	sub [zero one two three four five six seven eight nine] by [zero.numr one.numr two.numr three.numr four.numr five.numr six.numr seven.numr eight.numr nine.numr];\012} UP;\012lookup DOWN {\012	sub fraction [zero.numr one.numr two.numr three.numr four.numr five.numr six.numr seven.numr eight.numr nine.numr]' by [zero.dnom one.dnom two.dnom three.dnom four.dnom five.dnom six.dnom seven.dnom eight.dnom nine.dnom];\012	sub [zero.dnom one.dnom two.dnom three.dnom four.dnom five.dnom six.dnom seven.dnom eight.dnom nine.dnom] [zero.numr one.numr two.numr three.numr four.numr five.numr six.numr seven.numr eight.numr nine.numr]' by [zero.dnom one.dnom two.dnom three.dnom four.dnom five.dnom six.dnom seven.dnom eight.dnom nine.dnom];\012} DOWN;\012";
name = frac;
},
{
automatic = 1;

glyphs = (
{
glyphname = A;
lastChange = "2024-07-06 19:18:49 +0000";
layers = (
{
layerId = "D204E62E-96B3-40B8-A6C2-F0C74B8845CF";
paths = (
{
closed = 1;
nodes = (
"128 0 LINE SMOOTH",
"182 0 OFFCURVE",
"217 24 OFFCURVE",
"235 75 CURVE SMOOTH",
"358 418 LINE",
"980 418 LINE",
"1099 76 LINE SMOOTH",
"1117 25 OFFCURVE",
"1152 0 OFFCURVE",
"1206 0 CURVE SMOOTH",
"1222 0 LINE SMOOTH",
"1280 0 OFFCURVE",
"1303 42 OFFCURVE",
"1279 108 CURVE SMOOTH",
"801 1415 LINE SMOOTH",
"782 1467 OFFCURVE",
"748 1490 OFFCURVE",
"694 1490 CURVE SMOOTH",
"650 1490 LINE SMOOTH",
"596 1490 OFFCURVE",
"561 1466 OFFCURVE",
"542 1415 CURVE SMOOTH",
"60 108 LINE SMOOTH",
"36 42 OFFCURVE",
"57 0 OFFCURVE",
"114 0 CURVE SMOOTH"
);
},
{
closed = 1;
nodes = (
"415 578 LINE",
"530 898 LINE SMOOTH",
"549.333 950.667 OFFCURVE",
"569.833 1009.5 OFFCURVE",
"591.5 1074.5 CURVE SMOOTH",
"613.167 1139.5 OFFCURVE",
"640 1221.667 OFFCURVE",
"672 1321 CURVE",
"704 1221.667 OFFCURVE",
"730.833 1139.5 OFFCURVE",
"752.5 1074.5 CURVE SMOOTH",
"774.167 1009.5 OFFCURVE",
"794.333 950.667 OFFCURVE",
"813 898 CURVE SMOOTH",
"925 578 LINE"
);
}
);
userData = {
assembly = "NPUSHB[ ]	/* 41 values pushed */\01213 1 4 0 1 76 0 4 0 2 1 4 2 104 0 0 0 103 77 5 3 2 1 1 104 1 78 0 0 9 8 0 7 0 7 17 17 17 6 12 25 \012CALL[ ]	/* CallFunction */";
};
width = 1338;
}
);
leftKerningGroup = A;
note = A;
rightKerningGroup = A;
unicode = 0041;
},
{
glyphname = Astroke;
lastChange = "2024-07-06 19:18:49 +0000";
layers = (
{
layerId = "D204E62E-96B3-40B8-A6C2-F0C74B8845CF";
paths = (
{
closed = 1;
nodes = (
"1026 1678 LINE SMOOTH",
"972 1678 OFFCURVE",
"937 1653 OFFCURVE",
"919 1602 CURVE SMOOTH",
"827 1344 LINE",
"801 1417 LINE SMOOTH",
"783 1466 OFFCURVE",
"748 1490 OFFCURVE",
"694 1490 CURVE SMOOTH",
"650 1490 LINE SMOOTH",
"596 1490 OFFCURVE",
"561 1466 OFFCURVE",
"542 1415 CURVE SMOOTH",
"60 108 LINE SMOOTH",
"36 42 OFFCURVE",
"63 0 OFFCURVE",
"128 0 CURVE SMOOTH",
"182 0 OFFCURVE",
"217 24 OFFCURVE",
"235 75 CURVE SMOOTH",
"358 418 LINE",
"498 418 LINE",
"320 -82 LINE SMOOTH",
"297 -148 OFFCURVE",
"316 -190 OFFCURVE",
"368 -190 CURVE SMOOTH",
"422 -190 OFFCURVE",
"457 -165 OFFCURVE",
"475 -114 CURVE SMOOTH",
"664 418 LINE",
"980 418 LINE",
"1099 76 LINE SMOOTH",
"1117 25 OFFCURVE",
"1152 0 OFFCURVE",
"1206 0 CURVE SMOOTH",
"1222 0 LINE SMOOTH",
"1280 0 OFFCURVE",
"1303 42 OFFCURVE",
"1279 108 CURVE SMOOTH",
"911 1114 LINE",
"1074 1570 LINE SMOOTH",
"1097 1636 OFFCURVE",
"1079 1678 OFFCURVE",
"1029 1678 CURVE SMOOTH"
);
},
{
closed = 1;
nodes = (
"415 578 LINE",
"530 898 LINE SMOOTH",
"549.333 950.667 OFFCURVE",
"569.833 1009.5 OFFCURVE",
"591.5 1074.5 CURVE SMOOTH",
"613.167 1139.5 OFFCURVE",
"640 1221.667 OFFCURVE",
"672 1321 CURVE",
"698 1239 OFFCURVE",
"721.333 1167 OFFCURVE",
"742 1105 CURVE",
"555 578 LINE"
);
},
{
closed = 1;
nodes = (
"925 578 LINE",
"721 578 LINE",
"824 867 LINE"
);
}
);
userData = {
assembly = "NPUSHB[ ]	/* 66 values pushed */\01219 17 14 1 4 7 5 1 76 9 1 6 5 6 133 0 2 0 2 134 8 10 2 7 3 1 1 0 7 1 104 0 5 5 103 77 4 1 0 0 104 0 78 16 16 0 0 26 25 16 23 16 23 0 15 0 15 17 17 17 17 17 18 11 12 28 \012CALL[ ]	/* CallFunction */";
};
width = 1338;
}
);
leftKerningGroup = A;
note = uni023A;
rightKerningGroup = A;
unicode = 023A;
},
{
glyphname = AE;
lastChange = "2024-07-06 19:18:49 +0000";
layers = (
{
layerId = "D204E62E-96B3-40B8-A6C2-F0C74B8845CF";
paths = (
{
closed = 1;
nodes = (
"131 0 LINE SMOOTH",
"184 0 OFFCURVE",
"219 23 OFFCURVE",
"241 71 CURVE SMOOTH",
"409 448 LINE",
"942 448 LINE",
"942 94 LINE SMOOTH",
"942 33 OFFCURVE",
"975 0 OFFCURVE",
"1036 0 CURVE SMOOTH",
"1817 0 LINE SMOOTH",
"1878 0 OFFCURVE",
"1911 28 OFFCURVE",
"1911 80 CURVE SMOOTH",
"1911 132 OFFCURVE",
"1878 160 OFFCURVE",
"1817 160 CURVE SMOOTH",
"1122 160 LINE",
"1122 672 LINE",
"1759 672 LINE SMOOTH",
"1820 672 OFFCURVE",
"1853 700 OFFCURVE",
"1853 752 CURVE SMOOTH",
"1853 804 OFFCURVE",
"1820 832 OFFCURVE",
"1759 832 CURVE SMOOTH",
"1122 832 LINE",
"1122 1330 LINE",
"1817 1330 LINE SMOOTH",
"1878 1330 OFFCURVE",
"1911 1358 OFFCURVE",
"1911 1410 CURVE SMOOTH",
"1911 1462 OFFCURVE",
"1878 1490 OFFCURVE",
"1817 1490 CURVE SMOOTH",
"773 1490 LINE SMOOTH",
"720 1490 OFFCURVE",
"685 1467 OFFCURVE",
"663 1419 CURVE SMOOTH",
"70 110 LINE SMOOTH",
"41 45 OFFCURVE",
"59 0 OFFCURVE",
"115 0 CURVE SMOOTH"
);
},
{
closed = 1;
nodes = (
"480 608 LINE",
"802 1330 LINE",
"942 1330 LINE",
"942 608 LINE"
);
}
);
userData = {
assembly = "NPUSHB[ ]	/* 60 values pushed */\0120 2 0 3 8 2 3 103 0 8 0 6 4 8 6 103 9 1 1 1 0 95 0 0 0 103 77 0 4 4 5 95 10 7 2 5 5 104 5 78 0 0 19 18 17 16 0 15 0 15 17 17 17 17 17 17 17 11 12 29 \012CALL[ ]	/* CallFunction */";
};
width = 1981;
}
);
leftKerningGroup = A;
note = AE;
rightKerningGroup = AE;
unicode = 00C6;
},
{
glyphname = B;
lastChange = "2024-07-06 19:18:49 +0000";
layers = (
{
layerId = "D204E62E-96B3-40B8-A6C2-F0C74B8845CF";
paths = (
{
closed = 1;
nodes = (
"148 94 LINE SMOOTH",
"148 33 OFFCURVE",
"181 0 OFFCURVE",
"242 0 CURVE SMOOTH",
"694 0 LINE SMOOTH",
"873.333 0 OFFCURVE",
"1007 37.833 OFFCURVE",
"1095 113.5 CURVE SMOOTH",
"1183 189.167 OFFCURVE",
"1227 290.667 OFFCURVE",
"1227 418 CURVE SMOOTH",
"1227 524.667 OFFCURVE",
"1197.667 606.5 OFFCURVE",
"1139 663.5 CURVE SMOOTH",
"1080.333 720.5 OFFCURVE",
"1008.667 756 OFFCURVE",
"924 770 CURVE",
"924 772 LINE",
"1000 797.333 OFFCURVE",
"1059.333 836 OFFCURVE",
"1102 888 CURVE SMOOTH",
"1144.667 940 OFFCURVE",
"1166 1008.667 OFFCURVE",
"1166 1094 CURVE SMOOTH",
"1166 1215.333 OFFCURVE",
"1123.333 1311.667 OFFCURVE",
"1038 1383 CURVE SMOOTH",
"952.667 1454.333 OFFCURVE",
"835.333 1490 OFFCURVE",
"686 1490 CURVE SMOOTH",
"242 1490 LINE SMOOTH",
"181 1490 OFFCURVE",
"148 1457 OFFCURVE",
"148 1396 CURVE SMOOTH"
);
},
{
closed = 1;
nodes = (
"328 160 LINE",
"328 678 LINE",
"704 678 LINE SMOOTH",
"813.333 678 OFFCURVE",
"897.333 654.167 OFFCURVE",
"956 606.5 CURVE SMOOTH",
"1014.667 558.833 OFFCURVE",
"1044 493.667 OFFCURVE",
"1044 411 CURVE SMOOTH",
"1044 328.333 OFFCURVE",
"1013.833 265.833 OFFCURVE",
"953.5 223.5 CURVE SMOOTH",
"893.167 181.167 OFFCURVE",
"806.667 160 OFFCURVE",
"694 160 CURVE SMOOTH"
);
},
{
closed = 1;
nodes = (
"328 836 LINE",
"328 1330 LINE",
"693 1330 LINE SMOOTH",
"785.667 1330 OFFCURVE",
"858 1307.833 OFFCURVE",
"910 1263.5 CURVE SMOOTH",
"962 1219.167 OFFCURVE",
"988 1159 OFFCURVE",
"988 1083 CURVE SMOOTH",
"988 1007 OFFCURVE",
"962 946.833 OFFCURVE",
"910 902.5 CURVE SMOOTH",
"858 858.167 OFFCURVE",
"785.667 836 OFFCURVE",
"693 836 CURVE SMOOTH"
);
}
);
userData = {
assembly = "NPUSHB[ ]	/* 54 values pushed */\0128 1 3 4 1 76 0 4 0 3 2 4 3 103 0 5 5 0 95 0 0 0 103 77 0 2 2 1 95 6 1 1 1 104 1 78 0 0 33 31 27 25 24 22 18 16 0 15 0 14 33 7 12 23 \012CALL[ ]	/* CallFunction */";
};
width = 1307;
}
);
leftKerningGroup = B;
note = B;
rightKerningGroup = B;
unicode = 0042;
},
{
glyphname = Bhook;
lastChange = "2024-07-06 19:18:49 +0000";
layers = (
{
layerId = "D204E62E-96B3-40B8-A6C2-F0C74B8845CF";
paths = (
{
closed = 1;
nodes = (
"44 1144 LINE SMOOTH",
"44 1083 OFFCURVE",
"73 1050 OFFCURVE",
"127 1050 CURVE SMOOTH",
"181 1050 OFFCURVE",
"210 1083 OFFCURVE",
"210 1144 CURVE SMOOTH",
"210 1230 LINE SMOOTH",
"210 1265.333 OFFCURVE",
"219 1290.833 OFFCURVE",
"237 1306.5 CURVE SMOOTH",
"255 1322.167 OFFCURVE",
"285.333 1330 OFFCURVE",
"328 1330 CURVE SMOOTH",
"428 1330 LINE",
"428 94 LINE SMOOTH",
"428 33 OFFCURVE",
"461 0 OFFCURVE",
"522 0 CURVE SMOOTH",
"974 0 LINE SMOOTH",
"1153.333 0 OFFCURVE",
"1287 37.833 OFFCURVE",
"1375 113.5 CURVE SMOOTH",
"1463 189.167 OFFCURVE",
"1507 290.667 OFFCURVE",
"1507 418 CURVE SMOOTH",
"1507 524.667 OFFCURVE",
"1477.667 606.5 OFFCURVE",
"1419 663.5 CURVE SMOOTH",
"1360.333 720.5 OFFCURVE",
"1288.667 756 OFFCURVE",
"1204 770 CURVE",
"1204 772 LINE",
"1280 797.333 OFFCURVE",
"1339.333 836 OFFCURVE",
"1382 888 CURVE SMOOTH",
"1424.667 940 OFFCURVE",
"1446 1008.667 OFFCURVE",
"1446 1094 CURVE SMOOTH",
"1446 1215.333 OFFCURVE",
"1403.333 1311.667 OFFCURVE",
"1318 1383 CURVE SMOOTH",
"1232.667 1454.333 OFFCURVE",
"1115.333 1490 OFFCURVE",
"966 1490 CURVE SMOOTH",
"328 1490 LINE SMOOTH",
"138.667 1490 OFFCURVE",
"44 1404.667 OFFCURVE",
"44 1234 CURVE SMOOTH"
);
},
{
closed = 1;
nodes = (
"608 160 LINE",
"608 678 LINE",
"984 678 LINE SMOOTH",
"1093.333 678 OFFCURVE",
"1177.333 654.167 OFFCURVE",
"1236 606.5 CURVE SMOOTH",
"1294.667 558.833 OFFCURVE",
"1324 493.667 OFFCURVE",
"1324 411 CURVE SMOOTH",
"1324 328.333 OFFCURVE",
"1293.833 265.833 OFFCURVE",
"1233.5 223.5 CURVE SMOOTH",
"1173.167 181.167 OFFCURVE",
"1086.667 160 OFFCURVE",
"974 160 CURVE SMOOTH"
);
},
{
closed = 1;
nodes = (
"608 836 LINE",
"608 1330 LINE",
"973 1330 LINE SMOOTH",
"1065.667 1330 OFFCURVE",
"1138 1307.833 OFFCURVE",
"1190 1263.5 CURVE SMOOTH",
"1242 1219.167 OFFCURVE",
"1268 1159 OFFCURVE",
"1268 1083 CURVE SMOOTH",
"1268 1007 OFFCURVE",
"1242 946.833 OFFCURVE",
"1190 902.5 CURVE SMOOTH",
"1138 858.167 OFFCURVE",
"1065.667 836 OFFCURVE",
"973 836 CURVE SMOOTH"
);
}
);
userData = {
assembly = "NPUSHB[ ]	/* 65 values pushed */\01210 1 5 6 1 76 8 1 3 2 6 2 3 6 128 0 6 0 5 4 6 5 103 7 1 2 2 0 95 0 0 0 103 77 0 4 4 1 95 0 1 1 104 1 78 0 0 42 40 36 34 33 31 27 25 0 24 0 24 33 43 50 9 12 25 \012CALL[ ]	/* CallFunction */";
};
width = 1587;
}
);
leftKerningGroup = B;
note = uni0181;
rightKerningGroup = B;
unicode = 0181;
},
{
glyphname = Btopbar;
lastChange = "2024-07-06 19:18:49 +0000";
layers = (
{
layerId = "D204E62E-96B3-40B8-A6C2-F0C74B8845CF";
paths = (
{
closed = 1;
nodes = (
"148 94 LINE SMOOTH",
"148 33 OFFCURVE",
"181 0 OFFCURVE",
"242 0 CURVE SMOOTH",
"706 0 LINE SMOOTH",
"866.667 0 OFFCURVE",
"989.5 40.833 OFFCURVE",
"1074.5 122.5 CURVE SMOOTH",
"1159.5 204.167 OFFCURVE",
"1202 310 OFFCURVE",
"1202 440 CURVE SMOOTH",
"1202 569.333 OFFCURVE",
"1159.5 672.333 OFFCURVE",
"1074.5 749 CURVE SMOOTH",
"989.5 825.667 OFFCURVE",
"866.667 864 OFFCURVE",
"706 864 CURVE SMOOTH",
"328 864 LINE",
"328 1330 LINE",
"954 1330 LINE SMOOTH",
"1015 1330 OFFCURVE",
"1048 1358 OFFCURVE",
"1048 1410 CURVE SMOOTH",
"1048 1462 OFFCURVE",
"1015 1490 OFFCURVE",
"954 1490 CURVE SMOOTH",
"242 1490 LINE SMOOTH",
"181 1490 OFFCURVE",
"148 1457 OFFCURVE",
"148 1396 CURVE SMOOTH"
);
},
{
closed = 1;
nodes = (
"328 158 LINE",
"328 704 LINE",
"706 704 LINE SMOOTH",
"808.667 704 OFFCURVE",
"887.333 678.167 OFFCURVE",
"942 626.5 CURVE SMOOTH",
"996.667 574.833 OFFCURVE",
"1024 513.333 OFFCURVE",
"1024 442 CURVE SMOOTH",
"1024 394 OFFCURVE",
"1011.667 348.167 OFFCURVE",
"987 304.5 CURVE SMOOTH",
"962.333 260.833 OFFCURVE",
"926.5 225.5 OFFCURVE",
"879.5 198.5 CURVE SMOOTH",
"832.5 171.5 OFFCURVE",
"774.667 158 OFFCURVE",
"706 158 CURVE SMOOTH"
);
}
);
userData = {
assembly = "NPUSHB[ ]	/* 46 values pushed */\0120 2 0 5 4 2 5 103 0 1 1 0 95 0 0 0 103 77 0 4 4 3 95 6 1 3 3 104 3 78 0 0 22 20 15 13 0 12 0 11 33 17 17 7 12 25 \012CALL[ ]	/* CallFunction */";
};
width = 1274;
}
);
note = uni0182;
unicode = 0182;
},
{
glyphname = C;
lastChange = "2024-07-06 19:18:49 +0000";
layers = (
{
layerId = "D204E62E-96B3-40B8-A6C2-F0C74B8845CF";
paths = (
{
closed = 1;
nodes = (
"883 -24 OFFCURVE",
"978.167 -3.5 OFFCURVE",
"1064.5 37.5 CURVE SMOOTH",
"1150.833 78.5 OFFCURVE",
"1222.667 136.667 OFFCURVE",
"1280 212 CURVE SMOOTH",
"1317 261 OFFCURVE",
"1346 315 OFFCURVE",
"1366 375 CURVE SMOOTH",
"1388 439 OFFCURVE",
"1354 480 OFFCURVE",
"1292 480 CURVE SMOOTH",
"1237 480 OFFCURVE",
"1206 454 OFFCURVE",
"1185 402 CURVE SMOOTH",
"1157 331 OFFCURVE",
"1113 274 OFFCURVE",
"1056 231 CURVE SMOOTH",
"978.667 173 OFFCURVE",
"886.333 144 OFFCURVE",
"779 144 CURVE SMOOTH",
"674.333 144 OFFCURVE",
"584 169.5 OFFCURVE",
"508 220.5 CURVE SMOOTH",
"432 271.5 OFFCURVE",
"373.333 342 OFFCURVE",
"332 432 CURVE SMOOTH",
"290.667 522 OFFCURVE",
"270 626 OFFCURVE",
"270 744 CURVE SMOOTH",
"270 862.667 OFFCURVE",
"290.667 967.167 OFFCURVE",
"332 1057.5 CURVE SMOOTH",
"373.333 1147.833 OFFCURVE",
"432 1218.5 OFFCURVE",
"508 1269.5 CURVE SMOOTH",
"584 1320.5 OFFCURVE",
"674.333 1346 OFFCURVE",
"779 1346 CURVE SMOOTH",
"887.667 1346 OFFCURVE",
"980.5 1316.833 OFFCURVE",
"1057.5 1258.5 CURVE SMOOTH",
"1115 1215 OFFCURVE",
"1157 1158 OFFCURVE",
"1185 1087 CURVE SMOOTH",
"1206 1034 OFFCURVE",
"1236 1008 OFFCURVE",
"1291 1008 CURVE SMOOTH",
"1301 1008 LINE SMOOTH",
"1358 1008 OFFCURVE",
"1388 1049 OFFCURVE",
"1367 1113 CURVE SMOOTH",
"1346 1174 OFFCURVE",
"1317 1229 OFFCURVE",
"1279.5 1277.5 CURVE SMOOTH",
"1221.833 1353.167 OFFCURVE",
"1150 1411.5 OFFCURVE",
"1064 1452.5 CURVE SMOOTH",
"978 1493.5 OFFCURVE",
"883 1514 OFFCURVE",
"779 1514 CURVE SMOOTH",
"641.667 1514 OFFCURVE",
"521.167 1481.167 OFFCURVE",
"417.5 1415.5 CURVE SMOOTH",
"313.833 1349.833 OFFCURVE",
"233.333 1259.167 OFFCURVE",
"176 1143.5 CURVE SMOOTH",
"118.667 1027.833 OFFCURVE",
"90 894.667 OFFCURVE",
"90 744 CURVE SMOOTH",
"90 594.667 OFFCURVE",
"118.833 462.167 OFFCURVE",
"176.5 346.5 CURVE SMOOTH",
"234.167 230.833 OFFCURVE",
"314.667 140.167 OFFCURVE",
"418 74.5 CURVE SMOOTH",
"521.333 8.833 OFFCURVE",
"641.667 -24 OFFCURVE",
"779 -24 CURVE SMOOTH"
);
}
);
userData = {
assembly = "MPPEM[ ]	/* MeasurePixelPerEm */\012PUSHB[ ]	/* 1 value pushed */\01250 \012LT[ ]	/* LessThan */\012IF[ ]	/* If */\012NPUSHB[ ]	/* 37 values pushed */\0120 2 3 5 3 2 5 128 0 5 4 3 5 4 126 0 3 3 1 97 0 1 1 109 77 0 4 4 0 97 6 1 0 0 110 0 78 \012ELSE[ ]	/* Else */\012NPUSHB[ ]	/* 35 values pushed */\0120 2 3 5 3 2 5 128 0 5 4 3 5 4 126 0 1 0 3 2 1 3 105 0 4 4 0 97 6 1 0 0 110 0 78 \012EIF[ ]	/* EndIf */\012NPUSHB[ ]	/* 19 values pushed */\0121 0 28 27 25 23 17 15 13 12 9 7 0 31 1 31 7 12 22 \012CALL[ ]	/* CallFunction */";
};
width = 1479;
}
);
leftKerningGroup = C;
note = C;
rightKerningGroup = C;
unicode = 0043;
},
{
glyphname = Chook;
lastChange = "2024-07-06 19:18:49 +0000";
layers = (
{
layerId = "D204E62E-96B3-40B8-A6C2-F0C74B8845CF";
paths = (
{
closed = 1;
nodes = (
"883 -24 OFFCURVE",
"978.167 -3.5 OFFCURVE",
"1064.5 37.5 CURVE SMOOTH",
"1150.833 78.5 OFFCURVE",
"1222.667 136.667 OFFCURVE",
"1280 212 CURVE SMOOTH",
"1317 261 OFFCURVE",
"1346 315 OFFCURVE",
"1366 375 CURVE SMOOTH",
"1388 439 OFFCURVE",
"1354 480 OFFCURVE",
"1292 480 CURVE SMOOTH",
"1237 480 OFFCURVE",
"1206 454 OFFCURVE",
"1185 402 CURVE SMOOTH",
"1157 331 OFFCURVE",
"1113 274 OFFCURVE",
"1056 231 CURVE SMOOTH",
"978.667 173 OFFCURVE",
"886.333 144 OFFCURVE",
"779 144 CURVE SMOOTH",
"674.333 144 OFFCURVE",
"584 169.5 OFFCURVE",
"508 220.5 CURVE SMOOTH",
"432 271.5 OFFCURVE",
"373.333 342 OFFCURVE",
"332 432 CURVE SMOOTH",
"290.667 522 OFFCURVE",
"270 626 OFFCURVE",
"270 744 CURVE SMOOTH",
"270 862.667 OFFCURVE",
"290.667 967.167 OFFCURVE",
"332 1057.5 CURVE SMOOTH",
"373.333 1147.833 OFFCURVE",
"432 1218.5 OFFCURVE",
"508 1269.5 CURVE SMOOTH",
"584 1320.5 OFFCURVE",
"674.333 1346 OFFCURVE",
"779 1346 CURVE SMOOTH",
"887.667 1346 OFFCURVE",
"980.5 1316.833 OFFCURVE",
"1057.5 1258.5 CURVE SMOOTH",
"1115 1215 OFFCURVE",
"1157 1158 OFFCURVE",
"1185 1087 CURVE SMOOTH",
"1206 1034 OFFCURVE",
"1236 1008 OFFCURVE",
"1291 1008 CURVE SMOOTH",
"1301 1008 LINE SMOOTH",
"1360 1008 OFFCURVE",
"1393 1041 OFFCURVE",
"1393 1102 CURVE SMOOTH",
"1393 1428 LINE SMOOTH",
"1393 1463.333 OFFCURVE",
"1402 1488.833 OFFCURVE",
"1420 1504.5 CURVE SMOOTH",
"1438 1520.167 OFFCURVE",
"1468.333 1528 OFFCURVE",
"1511 1528 CURVE SMOOTH",
"1517 1528 LINE SMOOTH",
"1578 1528 OFFCURVE",
"1611 1554 OFFCURVE",
"1611 1602 CURVE SMOOTH",
"1611 1650 OFFCURVE",
"1578 1676 OFFCURVE",
"1517 1676 CURVE SMOOTH",
"1511 1676 LINE SMOOTH",
"1418.333 1676 OFFCURVE",
"1347.833 1655 OFFCURVE",
"1299.5 1613 CURVE SMOOTH",
"1251.167 1571 OFFCURVE",
"1227 1509.333 OFFCURVE",
"1227 1428 CURVE SMOOTH",
"1227 1337 LINE",
"1171 1393.667 OFFCURVE",
"1104.667 1437.333 OFFCURVE",
"1028 1468 CURVE SMOOTH",
"951.333 1498.667 OFFCURVE",
"868.333 1514 OFFCURVE",
"779 1514 CURVE SMOOTH",
"641.667 1514 OFFCURVE",
"521.167 1481.167 OFFCURVE",
"417.5 1415.5 CURVE SMOOTH",
"313.833 1349.833 OFFCURVE",
"233.333 1259.167 OFFCURVE",
"176 1143.5 CURVE SMOOTH",
"118.667 1027.833 OFFCURVE",
"90 894.667 OFFCURVE",
"90 744 CURVE SMOOTH",
"90 594.667 OFFCURVE",
"118.833 462.167 OFFCURVE",
"176.5 346.5 CURVE SMOOTH",
"234.167 230.833 OFFCURVE",
"314.667 140.167 OFFCURVE",
"418 74.5 CURVE SMOOTH",
"521.333 8.833 OFFCURVE",
"641.667 -24 OFFCURVE",
"779 -24 CURVE SMOOTH"
);
}
);
userData = {
assembly = "PUSHB[ ]	/* 6 values pushed */\01211 1 4 5 1 76 \012MPPEM[ ]	/* MeasurePixelPerEm */\012PUSHB[ ]	/* 1 value pushed */\01250 \012LT[ ]	/* LessThan */\012IF[ ]	/* If */\012NPUSHB[ ]	/* 45 values pushed */\0120 4 5 7 5 4 7 128 0 7 6 5 7 6 126 0 2 0 3 1 2 3 105 0 5 5 1 97 0 1 1 109 77 0 6 6 0 97 8 1 0 0 110 0 78 \012ELSE[ ]	/* Else */\012NPUSHB[ ]	/* 43 values pushed */\0120 4 5 7 5 4 7 128 0 7 6 5 7 6 126 0 2 0 3 1 2 3 105 0 1 0 5 4 1 5 105 0 6 6 0 97 8 1 0 0 110 0 78 \012EIF[ ]	/* EndIf */\012NPUSHB[ ]	/* 23 values pushed */\0121 0 38 37 35 33 27 25 23 22 19 17 16 14 9 7 0 41 1 41 9 12 22 \012CALL[ ]	/* CallFunction */";
};
width = 1479;
}
);
leftKerningGroup = C;
note = uni0187;
rightKerningGroup = C;
unicode = 0187;
},
{
glyphname = Cstroke;
lastChange = "2024-07-06 19:18:49 +0000";
layers = (
{
layerId = "D204E62E-96B3-40B8-A6C2-F0C74B8845CF";
paths = (
{
closed = 1;
nodes = (
"392 -190 LINE SMOOTH",
"446 -190 OFFCURVE",
"481 -165 OFFCURVE",
"499 -114 CURVE SMOOTH",
"544 14 LINE",
"617.333 -11.333 OFFCURVE",
"695.667 -24 OFFCURVE",
"779 -24 CURVE SMOOTH",
"883 -24 OFFCURVE",
"978.167 -3.5 OFFCURVE",
"1064.5 37.5 CURVE SMOOTH",
"1150.833 78.5 OFFCURVE",
"1222.667 136.667 OFFCURVE",
"1280 212 CURVE SMOOTH",
"1317 261 OFFCURVE",
"1346 315 OFFCURVE",
"1366 375 CURVE SMOOTH",
"1388 439 OFFCURVE",
"1354 480 OFFCURVE",
"1292 480 CURVE SMOOTH",
"1237 480 OFFCURVE",
"1206 454 OFFCURVE",
"1185 402 CURVE SMOOTH",
"1157 331 OFFCURVE",
"1113 274 OFFCURVE",
"1056 231 CURVE SMOOTH",
"978.667 173 OFFCURVE",
"886.333 144 OFFCURVE",
"779 144 CURVE SMOOTH",
"715 144 OFFCURVE",
"655.667 154 OFFCURVE",
"601 174 CURVE",
"999 1296 LINE",
"1051 1268.667 OFFCURVE",
"1095.333 1230.667 OFFCURVE",
"1132 1182 CURVE SMOOTH",
"1153 1153 OFFCURVE",
"1171 1122 OFFCURVE",
"1185 1087 CURVE SMOOTH",
"1206 1034 OFFCURVE",
"1236 1008 OFFCURVE",
"1291 1008 CURVE SMOOTH",
"1301 1008 LINE SMOOTH",
"1358 1008 OFFCURVE",
"1388 1049 OFFCURVE",
"1366 1113 CURVE SMOOTH",
"1345 1175 OFFCURVE",
"1314 1231 OFFCURVE",
"1275.5 1281.5 CURVE SMOOTH",
"1215.833 1358.5 OFFCURVE",
"1142.333 1416.667 OFFCURVE",
"1055 1456 CURVE",
"1096 1570 LINE SMOOTH",
"1119 1636 OFFCURVE",
"1100 1678 OFFCURVE",
"1048 1678 CURVE SMOOTH",
"994 1678 OFFCURVE",
"959 1653 OFFCURVE",
"941 1602 CURVE SMOOTH",
"906 1503 LINE",
"864.667 1510.333 OFFCURVE",
"822.333 1514 OFFCURVE",
"779 1514 CURVE SMOOTH",
"641.667 1514 OFFCURVE",
"521.167 1481.167 OFFCURVE",
"417.5 1415.5 CURVE SMOOTH",
"313.833 1349.833 OFFCURVE",
"233.333 1259.167 OFFCURVE",
"176 1143.5 CURVE SMOOTH",
"118.667 1027.833 OFFCURVE",
"90 894.667 OFFCURVE",
"90 744 CURVE SMOOTH",
"90 598 OFFCURVE",
"117.667 467.833 OFFCURVE",
"173 353.5 CURVE SMOOTH",
"228.333 239.167 OFFCURVE",
"305 149.667 OFFCURVE",
"403 85 CURVE",
"344 -82 LINE SMOOTH",
"321 -148 OFFCURVE",
"339 -190 OFFCURVE",
"389 -190 CURVE SMOOTH"
);
},
{
closed = 1;
nodes = (
"401.667 306.667 OFFCURVE",
"354.167 375 OFFCURVE",
"320.5 459 CURVE SMOOTH",
"286.833 543 OFFCURVE",
"270 638 OFFCURVE",
"270 744 CURVE SMOOTH",
"270 862.667 OFFCURVE",
"290.667 967.167 OFFCURVE",
"332 1057.5 CURVE SMOOTH",
"373.333 1147.833 OFFCURVE",
"432 1218.5 OFFCURVE",
"508 1269.5 CURVE SMOOTH",
"584 1320.5 OFFCURVE",
"674.333 1346 OFFCURVE",
"779 1346 CURVE SMOOTH",
"803 1346 OFFCURVE",
"826.333 1344.667 OFFCURVE",
"849 1342 CURVE",
"463 254 LINE"
);
}
);
userData = {
assembly = "NPUSHB[ ]	/* 20 values pushed */\01213 10 2 7 0 20 1 2 7 21 1 3 4 33 1 2 5 3 4 76 \012MPPEM[ ]	/* MeasurePixelPerEm */\012PUSHB[ ]	/* 1 value pushed */\01250 \012LT[ ]	/* LessThan */\012IF[ ]	/* If */\012NPUSHB[ ]	/* 47 values pushed */\0120 1 0 1 133 0 2 7 4 7 2 4 128 0 4 3 7 4 3 126 8 1 6 5 6 134 0 7 7 0 97 0 0 0 109 77 0 3 3 5 97 0 5 5 110 5 78 \012ELSE[ ]	/* Else */\012NPUSHB[ ]	/* 45 values pushed */\0120 1 0 1 133 0 2 7 4 7 2 4 128 0 4 3 7 4 3 126 8 1 6 5 6 134 0 0 0 7 2 0 7 105 0 3 3 5 97 0 5 5 110 5 78 \012EIF[ ]	/* EndIf */\012NPUSHB[ ]	/* 17 values pushed */\0120 0 39 37 0 34 0 34 35 18 37 20 18 39 9 12 28 \012CALL[ ]	/* CallFunction */";
};
width = 1479;
}
);
leftKerningGroup = C;
note = uni023B;
rightKerningGroup = C;
unicode = 023B;
},
{
glyphname = D;
lastChange = "2024-07-06 19:18:49 +0000";
layers = (
{
layerId = "D204E62E-96B3-40B8-A6C2-F0C74B8845CF";
paths = (
{
closed = 1;
nodes = (
"759.333 0 OFFCURVE",
"888.167 30 OFFCURVE",
"994.5 90 CURVE SMOOTH",
"1100.833 150 OFFCURVE",
"1182 235.833 OFFCURVE",
"1238 347.5 CURVE SMOOTH",
"1294 459.167 OFFCURVE",
"1322 592.667 OFFCURVE",
"1322 748 CURVE SMOOTH",
"1322 902 OFFCURVE",
"1294.333 1034.5 OFFCURVE",
"1239 1145.5 CURVE SMOOTH",
"1183.667 1256.5 OFFCURVE",
"1104.167 1341.667 OFFCURVE",
"1000.5 1401 CURVE SMOOTH",
"896.833 1460.333 OFFCURVE",
"772.667 1490 OFFCURVE",
"628 1490 CURVE SMOOTH",
"242 1490 LINE SMOOTH",
"181 1490 OFFCURVE",
"148 1457 OFFCURVE",
"148 1396 CURVE SMOOTH",
"148 94 LINE SMOOTH",
"148 33 OFFCURVE",
"181 0 OFFCURVE",
"242 0 CURVE SMOOTH",
"608 0 LINE SMOOTH"
);
},
{
closed = 1;
nodes = (
"328 160 LINE",
"328 1330 LINE",
"616 1330 LINE SMOOTH",
"791.333 1330 OFFCURVE",
"922.833 1278 OFFCURVE",
"1010.5 1174 CURVE SMOOTH",
"1098.167 1070 OFFCURVE",
"1142 928 OFFCURVE",
"1142 748 CURVE SMOOTH",
"1142 566 OFFCURVE",
"1097.333 422.5 OFFCURVE",
"1008 317.5 CURVE SMOOTH",
"918.667 212.5 OFFCURVE",
"781.333 160 OFFCURVE",
"596 160 CURVE SMOOTH"
);
}
);
userData = {
assembly = "NPUSHB[ ]	/* 37 values pushed */\0120 3 3 1 95 0 1 1 103 77 0 2 2 0 95 4 1 0 0 104 0 78 1 0 19 17 13 11 4 2 0 10 1 10 5 12 22 \012CALL[ ]	/* CallFunction */";
};
width = 1412;
}
);
leftKerningGroup = B;
note = D;
rightKerningGroup = Oopen;
unicode = 0044;
},
{
glyphname = Dhook;
lastChange = "2024-07-06 19:18:49 +0000";
layers = (
{
layerId = "D204E62E-96B3-40B8-A6C2-F0C74B8845CF";
paths = (
{
closed = 1;
nodes = (
"44 1144 LINE SMOOTH",
"44 1083 OFFCURVE",
"73 1050 OFFCURVE",
"127 1050 CURVE SMOOTH",
"181 1050 OFFCURVE",
"210 1083 OFFCURVE",
"210 1144 CURVE SMOOTH",
"210 1230 LINE SMOOTH",
"210 1265.333 OFFCURVE",
"219 1290.833 OFFCURVE",
"237 1306.5 CURVE SMOOTH",
"255 1322.167 OFFCURVE",
"285.333 1330 OFFCURVE",
"328 1330 CURVE SMOOTH",
"428 1330 LINE",
"428 94 LINE SMOOTH",
"428 33 OFFCURVE",
"461 0 OFFCURVE",
"522 0 CURVE SMOOTH",
"888 0 LINE SMOOTH",
"1039.333 0 OFFCURVE",
"1168.167 30 OFFCURVE",
"1274.5 90 CURVE SMOOTH",
"1380.833 150 OFFCURVE",
"1462 235.833 OFFCURVE",
"1518 347.5 CURVE SMOOTH",
"1574 459.167 OFFCURVE",
"1602 592.667 OFFCURVE",
"1602 748 CURVE SMOOTH",
"1602 902 OFFCURVE",
"1574.333 1034.5 OFFCURVE",
"1519 1145.5 CURVE SMOOTH",
"1463.667 1256.5 OFFCURVE",
"1384.167 1341.667 OFFCURVE",
"1280.5 1401 CURVE SMOOTH",
"1176.833 1460.333 OFFCURVE",
"1052.667 1490 OFFCURVE",
"908 1490 CURVE SMOOTH",
"328 1490 LINE SMOOTH",
"138.667 1490 OFFCURVE",
"44 1404.667 OFFCURVE",
"44 1234 CURVE SMOOTH"
);
},
{
closed = 1;
nodes = (
"608 160 LINE",
"608 1330 LINE",
"896 1330 LINE SMOOTH",
"1071.333 1330 OFFCURVE",
"1202.833 1278 OFFCURVE",
"1290.5 1174 CURVE SMOOTH",
"1378.167 1070 OFFCURVE",
"1422 928 OFFCURVE",
"1422 748 CURVE SMOOTH",
"1422 566 OFFCURVE",
"1377.333 422.5 OFFCURVE",
"1288 317.5 CURVE SMOOTH",
"1198.667 212.5 OFFCURVE",
"1061.333 160 OFFCURVE",
"876 160 CURVE SMOOTH"
);
}
);
userData = {
assembly = "NPUSHB[ ]	/* 47 values pushed */\0126 1 3 2 4 2 3 4 128 5 1 2 2 0 95 0 0 0 103 77 0 4 4 1 95 0 1 1 104 1 78 0 0 28 26 22 20 0 19 0 19 33 38 50 7 12 25 \012CALL[ ]	/* CallFunction */";
};
width = 1692;
}
);
leftKerningGroup = B;
note = uni018A;
rightKerningGroup = Oopen;
unicode = 018A;
},
{
glyphname = Dtopbar;
lastChange = "2024-07-06 19:18:49 +0000";
layers = (
{
layerId = "D204E62E-96B3-40B8-A6C2-F0C74B8845CF";
paths = (
{
closed = 1;
nodes = (
"1046 0 LINE SMOOTH",
"1107 0 OFFCURVE",
"1140 33 OFFCURVE",
"1140 94 CURVE SMOOTH",
"1140 1364 LINE SMOOTH",
"1140 1425 OFFCURVE",
"1107 1458 OFFCURVE",
"1046 1458 CURVE SMOOTH",
"338 1458 LINE SMOOTH",
"277 1458 OFFCURVE",
"244 1428 OFFCURVE",
"244 1373 CURVE SMOOTH",
"244 1318 OFFCURVE",
"277 1288 OFFCURVE",
"338 1288 CURVE SMOOTH",
"934 1288 LINE",
"934 870 LINE",
"584 870 LINE SMOOTH",
"424.667 870 OFFCURVE",
"302.167 830.667 OFFCURVE",
"216.5 752 CURVE SMOOTH",
"130.833 673.333 OFFCURVE",
"88 569.333 OFFCURVE",
"88 440 CURVE SMOOTH",
"88 310 OFFCURVE",
"130.833 204.167 OFFCURVE",
"216.5 122.5 CURVE SMOOTH",
"302.167 40.833 OFFCURVE",
"424.667 0 OFFCURVE",
"584 0 CURVE SMOOTH"
);
},
{
closed = 1;
nodes = (
"934 166 LINE",
"584 166 LINE SMOOTH",
"515.333 166 OFFCURVE",
"459.833 179 OFFCURVE",
"417.5 205 CURVE SMOOTH",
"375.167 231 OFFCURVE",
"344.333 265 OFFCURVE",
"325 307 CURVE SMOOTH",
"305.667 349 OFFCURVE",
"296 394 OFFCURVE",
"296 442 CURVE SMOOTH",
"296 513.333 OFFCURVE",
"318.333 574.333 OFFCURVE",
"363 625 CURVE SMOOTH",
"407.667 675.667 OFFCURVE",
"481.333 701.333 OFFCURVE",
"584 702 CURVE SMOOTH",
"934 702 LINE"
);
}
);
userData = {
assembly = "MPPEM[ ]	/* MeasurePixelPerEm */\012PUSHB[ ]	/* 1 value pushed */\01232 \012LT[ ]	/* LessThan */\012IF[ ]	/* If */\012NPUSHB[ ]	/* 30 values pushed */\0120 1 0 4 5 1 4 103 0 2 2 3 95 0 3 3 103 77 6 1 5 5 0 95 0 0 0 104 0 78 \012ELSE[ ]	/* Else */\012NPUSHB[ ]	/* 28 values pushed */\0120 3 0 2 1 3 2 103 0 1 0 4 5 1 4 103 6 1 5 5 0 95 0 0 0 104 0 78 \012EIF[ ]	/* EndIf */\012NPUSHB[ ]	/* 14 values pushed */\01213 13 13 22 13 21 34 17 17 36 32 7 12 27 \012CALL[ ]	/* CallFunction */";
};
width = 1228;
}
);
note = uni018B;
unicode = 018B;
},
{
glyphname = E;
lastChange = "2024-07-06 19:18:49 +0000";
layers = (
{
layerId = "D204E62E-96B3-40B8-A6C2-F0C74B8845CF";
paths = (
{
closed = 1;
nodes = (
"148 94 LINE SMOOTH",
"148 33 OFFCURVE",
"181 0 OFFCURVE",
"242 0 CURVE SMOOTH",
"1023 0 LINE SMOOTH",
"1084 0 OFFCURVE",
"1117 28 OFFCURVE",
"1117 80 CURVE SMOOTH",
"1117 132 OFFCURVE",
"1084 160 OFFCURVE",
"1023 160 CURVE SMOOTH",
"328 160 LINE",
"328 683 LINE",
"965 683 LINE SMOOTH",
"1026 683 OFFCURVE",
"1059 711 OFFCURVE",
"1059 763 CURVE SMOOTH",
"1059 815 OFFCURVE",
"1026 843 OFFCURVE",
"965 843 CURVE SMOOTH",
"328 843 LINE",
"328 1330 LINE",
"1023 1330 LINE SMOOTH",
"1084 1330 OFFCURVE",
"1117 1358 OFFCURVE",
"1117 1410 CURVE SMOOTH",
"1117 1462 OFFCURVE",
"1084 1490 OFFCURVE",
"1023 1490 CURVE SMOOTH",
"242 1490 LINE SMOOTH",
"181 1490 OFFCURVE",
"148 1457 OFFCURVE",
"148 1396 CURVE SMOOTH"
);
}
);
userData = {
assembly = "NPUSHB[ ]	/* 44 values pushed */\0120 2 0 3 4 2 3 103 0 1 1 0 95 0 0 0 103 77 0 4 4 5 95 6 1 5 5 104 5 78 0 0 0 11 0 11 17 17 17 17 17 7 12 27 \012CALL[ ]	/* CallFunction */";
};
width = 1187;
}
);
leftKerningGroup = B;
note = E;
rightKerningGroup = AE;
unicode = 0045;
},
{
glyphname = Eopen;
lastChange = "2024-07-06 19:18:49 +0000";
layers = (
{
layerId = "D204E62E-96B3-40B8-A6C2-F0C74B8845CF";
paths = (
{
closed = 1;
nodes = (
"708.667 -24 OFFCURVE",
"799.333 -3.167 OFFCURVE",
"878 38.5 CURVE SMOOTH",
"956.667 80.167 OFFCURVE",
"1018.333 138 OFFCURVE",
"1063 212 CURVE SMOOTH",
"1092 260 OFFCURVE",
"1112 313 OFFCURVE",
"1122 370 CURVE SMOOTH",
"1133 432 OFFCURVE",
"1097 468 OFFCURVE",
"1038 468 CURVE SMOOTH",
"979 468 OFFCURVE",
"951 437 OFFCURVE",
"940 378 CURVE SMOOTH",
"927 315 OFFCURVE",
"900 263 OFFCURVE",
"859 222 CURVE SMOOTH",
"799.667 163.333 OFFCURVE",
"716.667 134 OFFCURVE",
"610 134 CURVE SMOOTH",
"508 134 OFFCURVE",
"425.167 159.833 OFFCURVE",
"361.5 211.5 CURVE SMOOTH",
"297.833 263.167 OFFCURVE",
"266 332.667 OFFCURVE",
"266 420 CURVE SMOOTH",
"266 499.333 OFFCURVE",
"300 563.167 OFFCURVE",
"368 611.5 CURVE SMOOTH",
"436 659.833 OFFCURVE",
"524.667 684 OFFCURVE",
"634 684 CURVE SMOOTH",
"660 684 LINE SMOOTH",
"721 684 OFFCURVE",
"754 712 OFFCURVE",
"754 764 CURVE SMOOTH",
"754 816 OFFCURVE",
"721 844 OFFCURVE",
"660 844 CURVE SMOOTH",
"634 844 LINE SMOOTH",
"538 844 OFFCURVE",
"460.333 866.167 OFFCURVE",
"401 910.5 CURVE SMOOTH",
"341.667 954.833 OFFCURVE",
"312 1013.333 OFFCURVE",
"312 1086 CURVE SMOOTH",
"312 1170 OFFCURVE",
"339.833 1236 OFFCURVE",
"395.5 1284 CURVE SMOOTH",
"451.167 1332 OFFCURVE",
"525.333 1356 OFFCURVE",
"618 1356 CURVE SMOOTH",
"713.333 1356 OFFCURVE",
"788.167 1329.5 OFFCURVE",
"842.5 1276.5 CURVE SMOOTH",
"878 1242 OFFCURVE",
"902 1198 OFFCURVE",
"915 1145 CURVE SMOOTH",
"928 1087 OFFCURVE",
"954 1056 OFFCURVE",
"1011 1056 CURVE SMOOTH",
"1066 1056 OFFCURVE",
"1101 1092 OFFCURVE",
"1089 1154 CURVE SMOOTH",
"1079 1205 OFFCURVE",
"1062 1252 OFFCURVE",
"1036.5 1294.5 CURVE SMOOTH",
"995.5 1363.5 OFFCURVE",
"938.833 1417.333 OFFCURVE",
"866.5 1456 CURVE SMOOTH",
"794.167 1494.667 OFFCURVE",
"711 1514 OFFCURVE",
"617 1514 CURVE SMOOTH",
"525.667 1514 OFFCURVE",
"443.667 1496 OFFCURVE",
"371 1460 CURVE SMOOTH",
"298.333 1424 OFFCURVE",
"241 1374.667 OFFCURVE",
"199 1312 CURVE SMOOTH",
"157 1249.333 OFFCURVE",
"136 1177.333 OFFCURVE",
"136 1096 CURVE SMOOTH",
"136 1020.667 OFFCURVE",
"160 953.833 OFFCURVE",
"208 895.5 CURVE SMOOTH",
"256 837.167 OFFCURVE",
"321.333 795.333 OFFCURVE",
"404 770 CURVE",
"404 767 LINE",
"309.333 751 OFFCURVE",
"233.333 711.167 OFFCURVE",
"176 647.5 CURVE SMOOTH",
"118.667 583.833 OFFCURVE",
"90 508 OFFCURVE",
"90 420 CURVE SMOOTH",
"90 333.333 OFFCURVE",
"112.5 256.5 OFFCURVE",
"157.5 189.5 CURVE SMOOTH",
"202.5 122.5 OFFCURVE",
"263.833 70.167 OFFCURVE",
"341.5 32.5 CURVE SMOOTH",
"419.167 -5.167 OFFCURVE",
"507.333 -24 OFFCURVE",
"606 -24 CURVE SMOOTH"
);
}
);
userData = {
assembly = "PUSHB[ ]	/* 6 values pushed */\0127 1 5 4 1 76 \012MPPEM[ ]	/* MeasurePixelPerEm */\012PUSHB[ ]	/* 1 value pushed */\01250 \012LT[ ]	/* LessThan */\012IF[ ]	/* If */\012NPUSHB[ ]	/* 46 values pushed */\0120 2 3 4 3 2 4 128 0 7 5 6 5 7 6 128 0 4 0 5 7 4 5 105 0 3 3 1 97 0 1 1 109 77 0 6 6 0 97 8 1 0 0 110 0 78 \012ELSE[ ]	/* Else */\012NPUSHB[ ]	/* 44 values pushed */\0120 2 3 4 3 2 4 128 0 7 5 6 5 7 6 128 0 1 0 3 2 1 3 105 0 4 0 5 7 4 5 105 0 6 6 0 97 8 1 0 0 110 0 78 \012EIF[ ]	/* EndIf */\012NPUSHB[ ]	/* 23 values pushed */\0121 0 42 41 39 37 33 31 30 28 24 22 20 19 16 14 0 45 1 45 9 12 22 \012CALL[ ]	/* CallFunction */";
};
width = 1226;
}
);
note = Epsilon1;
unicode = 0190;
},
{
glyphname = Ereversed;
lastChange = "2024-07-06 19:18:49 +0000";
layers = (
{
layerId = "D204E62E-96B3-40B8-A6C2-F0C74B8845CF";
paths = (
{
closed = 1;
nodes = (
"1039 1396 LINE SMOOTH",
"1039 1457 OFFCURVE",
"1006 1490 OFFCURVE",
"945 1490 CURVE SMOOTH",
"164 1490 LINE SMOOTH",
"103 1490 OFFCURVE",
"70 1462 OFFCURVE",
"70 1410 CURVE SMOOTH",
"70 1358 OFFCURVE",
"103 1330 OFFCURVE",
"164 1330 CURVE SMOOTH",
"859 1330 LINE",
"859 807 LINE",
"222 807 LINE SMOOTH",
"161 807 OFFCURVE",
"128 779 OFFCURVE",
"128 727 CURVE SMOOTH",
"128 675 OFFCURVE",
"161 647 OFFCURVE",
"222 647 CURVE SMOOTH",
"859 647 LINE",
"859 160 LINE",
"164 160 LINE SMOOTH",
"103 160 OFFCURVE",
"70 132 OFFCURVE",
"70 80 CURVE SMOOTH",
"70 28 OFFCURVE",
"103 0 OFFCURVE",
"164 0 CURVE SMOOTH",
"945 0 LINE SMOOTH",
"1006 0 OFFCURVE",
"1039 33 OFFCURVE",
"1039 94 CURVE SMOOTH"
);
}
);
userData = {
assembly = "NPUSHB[ ]	/* 44 values pushed */\0120 3 0 2 1 3 2 103 0 4 4 5 95 6 1 5 5 103 77 0 1 1 0 95 0 0 0 104 0 78 0 0 0 11 0 11 17 17 17 17 17 7 12 27 \012CALL[ ]	/* CallFunction */";
};
width = 1187;
}
);
note = Eturn;
rightKerningGroup = Ereversed;
unicode = 018E;
},
{
glyphname = Estroke;
lastChange = "2024-07-06 19:18:49 +0000";
layers = (
{
layerId = "D204E62E-96B3-40B8-A6C2-F0C74B8845CF";
paths = (
{
closed = 1;
nodes = (
"374 -190 LINE SMOOTH",
"429 -190 OFFCURVE",
"464 -164 OFFCURVE",
"479 -111 CURVE SMOOTH",
"511 0 LINE",
"1023 0 LINE SMOOTH",
"1084 0 OFFCURVE",
"1117 28 OFFCURVE",
"1117 80 CURVE SMOOTH",
"1117 132 OFFCURVE",
"1084 160 OFFCURVE",
"1023 160 CURVE SMOOTH",
"557 160 LINE",
"707 683 LINE",
"965 683 LINE SMOOTH",
"1026 683 OFFCURVE",
"1059 711 OFFCURVE",
"1059 763 CURVE SMOOTH",
"1059 815 OFFCURVE",
"1026 843 OFFCURVE",
"965 843 CURVE SMOOTH",
"754 843 LINE",
"894 1330 LINE",
"1023 1330 LINE SMOOTH",
"1084 1330 OFFCURVE",
"1117 1358 OFFCURVE",
"1117 1410 CURVE SMOOTH",
"1117 1462 OFFCURVE",
"1084 1490 OFFCURVE",
"1023 1490 CURVE SMOOTH",
"940 1490 LINE",
"967 1584 LINE SMOOTH",
"984 1642 OFFCURVE",
"962 1678 OFFCURVE",
"912 1678 CURVE SMOOTH",
"857 1678 OFFCURVE",
"822 1652 OFFCURVE",
"807 1599 CURVE SMOOTH",
"776 1490 LINE",
"242 1490 LINE SMOOTH",
"181 1490 OFFCURVE",
"148 1457 OFFCURVE",
"148 1396 CURVE SMOOTH",
"148 94 LINE SMOOTH",
"148 33 OFFCURVE",
"181 0 OFFCURVE",
"242 0 CURVE SMOOTH",
"345 0 LINE",
"318 -95 LINE SMOOTH",
"301 -153 OFFCURVE",
"322 -190 OFFCURVE",
"373 -190 CURVE SMOOTH"
);
},
{
closed = 1;
nodes = (
"328 843 LINE",
"328 1330 LINE",
"729 1330 LINE",
"589 843 LINE"
);
},
{
closed = 1;
nodes = (
"328 160 LINE",
"328 683 LINE",
"542 683 LINE",
"391 160 LINE"
);
}
);
userData = {
assembly = "MPPEM[ ]	/* MeasurePixelPerEm */\012PUSHB[ ]	/* 1 value pushed */\01214 \012LT[ ]	/* LessThan */\012IF[ ]	/* If */\012NPUSHB[ ]	/* 50 values pushed */\0120 2 1 1 2 112 14 1 9 0 0 9 113 15 11 2 5 12 1 6 7 5 6 103 10 1 4 4 1 95 3 1 1 1 103 77 16 13 2 7 7 0 95 8 1 0 0 104 0 78 \012ELSE[ ]	/* Else */\012NPUSHB[ ]	/* 48 values pushed */\0120 2 1 2 133 14 1 9 0 9 134 15 11 2 5 12 1 6 7 5 6 103 10 1 4 4 1 95 3 1 1 1 103 77 16 13 2 7 7 0 95 8 1 0 0 104 0 78 \012EIF[ ]	/* EndIf */\012NPUSHB[ ]	/* 34 values pushed */\01224 24 20 20 0 0 24 27 24 27 26 25 20 23 20 23 22 21 0 19 0 19 17 17 17 17 17 17 17 17 17 17 12 31 \012CALL[ ]	/* CallFunction */";
};
width = 1187;
}
);
leftKerningGroup = B;
note = uni0246;
rightKerningGroup = AE;
unicode = 0246;
},
{
glyphname = Ezh;
lastChange = "2024-07-06 19:18:49 +0000";
layers = (
{
layerId = "D204E62E-96B3-40B8-A6C2-F0C74B8845CF";
paths = (
{
closed = 1;
nodes = (
"80 -96 OFFCURVE",
"104 -150 OFFCURVE",
"139 -199 CURVE SMOOTH",
"192.333 -275 OFFCURVE",
"262.167 -334.167 OFFCURVE",
"348.5 -376.5 CURVE SMOOTH",
"434.833 -418.833 OFFCURVE",
"531.333 -440 OFFCURVE",
"638 -440 CURVE SMOOTH",
"756.667 -440 OFFCURVE",
"860.5 -413.333 OFFCURVE",
"949.5 -360 CURVE SMOOTH",
"1038.5 -306.667 OFFCURVE",
"1107.833 -233.333 OFFCURVE",
"1157.5 -140 CURVE SMOOTH",
"1207.167 -46.667 OFFCURVE",
"1232 60 OFFCURVE",
"1232 180 CURVE SMOOTH",
"1232 297.333 OFFCURVE",
"1208 401.167 OFFCURVE",
"1160 491.5 CURVE SMOOTH",
"1112 581.833 OFFCURVE",
"1045.667 653.667 OFFCURVE",
"961 707 CURVE SMOOTH",
"876.333 760.333 OFFCURVE",
"778.667 789.333 OFFCURVE",
"668 794 CURVE",
"668 808 LINE",
"1147 1309 LINE SMOOTH",
"1180 1343 OFFCURVE",
"1194 1377 OFFCURVE",
"1194 1424 CURVE SMOOTH",
"1194 1467 OFFCURVE",
"1161 1490 OFFCURVE",
"1100 1490 CURVE SMOOTH",
"230 1490 LINE SMOOTH",
"169 1490 OFFCURVE",
"136 1461 OFFCURVE",
"136 1408 CURVE SMOOTH",
"136 1355 OFFCURVE",
"169 1326 OFFCURVE",
"230 1326 CURVE SMOOTH",
"944 1326 LINE",
"944 1314 LINE",
"493 850 LINE SMOOTH",
"460 816 OFFCURVE",
"446 782 OFFCURVE",
"446 734 CURVE SMOOTH",
"446 727 LINE SMOOTH",
"446 679 OFFCURVE",
"479 652 OFFCURVE",
"540 652 CURVE SMOOTH",
"558 652 LINE SMOOTH",
"655.333 652 OFFCURVE",
"741.167 632.667 OFFCURVE",
"815.5 594 CURVE SMOOTH",
"889.833 555.333 OFFCURVE",
"948.167 500.5 OFFCURVE",
"990.5 429.5 CURVE SMOOTH",
"1032.833 358.5 OFFCURVE",
"1054 274.667 OFFCURVE",
"1054 178 CURVE SMOOTH",
"1054 92 OFFCURVE",
"1037.167 14.667 OFFCURVE",
"1003.5 -54 CURVE SMOOTH",
"969.833 -122.667 OFFCURVE",
"922.333 -177.167 OFFCURVE",
"861 -217.5 CURVE SMOOTH",
"799.667 -257.833 OFFCURVE",
"726.667 -278 OFFCURVE",
"642 -278 CURVE SMOOTH",
"570.667 -278 OFFCURVE",
"505 -263.667 OFFCURVE",
"445 -235 CURVE SMOOTH",
"385 -206.333 OFFCURVE",
"336 -166.167 OFFCURVE",
"298 -114.5 CURVE SMOOTH",
"277 -86 OFFCURVE",
"261 -54 OFFCURVE",
"250 -20 CURVE SMOOTH",
"232 35 OFFCURVE",
"205 64 OFFCURVE",
"148 64 CURVE SMOOTH",
"142 64 LINE SMOOTH",
"84 64 OFFCURVE",
"50 26 OFFCURVE",
"65 -37 CURVE SMOOTH"
);
}
);
userData = {
assembly = "NPUSHB[ ]	/* 11 values pushed */\01221 1 3 4 22 15 2 2 3 2 76 \012MPPEM[ ]	/* MeasurePixelPerEm */\012PUSHB[ ]	/* 1 value pushed */\01247 \012LT[ ]	/* LessThan */\012IF[ ]	/* If */\012NPUSHB[ ]	/* 36 values pushed */\0120 2 3 0 3 2 0 128 0 0 1 3 0 1 126 0 3 3 4 95 0 4 4 103 77 0 1 1 5 97 0 5 5 108 5 78 \012ELSE[ ]	/* Else */\012NPUSHB[ ]	/* 33 values pushed */\0120 2 3 0 3 2 0 128 0 0 1 3 0 1 126 0 1 0 5 1 5 101 0 3 3 4 95 0 4 4 103 3 78 \012EIF[ ]	/* EndIf */\012NPUSHB[ ]	/* 9 values pushed */\01242 17 34 38 35 16 6 12 28 \012CALL[ ]	/* CallFunction */";
};
width = 1312;
}
);
note = uni01B7;
rightKerningGroup = B;
unicode = 01B7;
},
{
glyphname = Ezhreversed;
lastChange = "2024-07-06 19:18:49 +0000";
layers = (
{
layerId = "D204E62E-96B3-40B8-A6C2-F0C74B8845CF";
paths = (
{
closed = 1;
nodes = (
"1164 64 LINE SMOOTH",
"1107 64 OFFCURVE",
"1080 35 OFFCURVE",
"1062 -20 CURVE SMOOTH",
"1052 -54 OFFCURVE",
"1036 -86 OFFCURVE",
"1014.5 -114.5 CURVE SMOOTH",
"976.833 -166.167 OFFCURVE",
"928 -206.333 OFFCURVE",
"868 -235 CURVE SMOOTH",
"808 -263.667 OFFCURVE",
"742 -278 OFFCURVE",
"670 -278 CURVE SMOOTH",
"586 -278 OFFCURVE",
"513.167 -257.833 OFFCURVE",
"451.5 -217.5 CURVE SMOOTH",
"389.833 -177.167 OFFCURVE",
"342.167 -122.667 OFFCURVE",
"308.5 -54 CURVE SMOOTH",
"274.833 14.667 OFFCURVE",
"258 92 OFFCURVE",
"258 178 CURVE SMOOTH",
"258 274.667 OFFCURVE",
"279.167 358.5 OFFCURVE",
"321.5 429.5 CURVE SMOOTH",
"363.833 500.5 OFFCURVE",
"422.5 555.333 OFFCURVE",
"497.5 594 CURVE SMOOTH",
"572.5 632.667 OFFCURVE",
"658.667 652 OFFCURVE",
"756 652 CURVE SMOOTH",
"772 652 LINE SMOOTH",
"833 652 OFFCURVE",
"866 681 OFFCURVE",
"866 734 CURVE SMOOTH",
"866 782 OFFCURVE",
"852 816 OFFCURVE",
"819 850 CURVE SMOOTH",
"368 1314 LINE",
"368 1326 LINE",
"1084 1326 LINE SMOOTH",
"1145 1326 OFFCURVE",
"1178 1355 OFFCURVE",
"1178 1408 CURVE SMOOTH",
"1178 1461 OFFCURVE",
"1145 1490 OFFCURVE",
"1084 1490 CURVE SMOOTH",
"212 1490 LINE SMOOTH",
"151 1490 OFFCURVE",
"118 1467 OFFCURVE",
"118 1424 CURVE SMOOTH",
"118 1377 OFFCURVE",
"132 1343 OFFCURVE",
"165 1309 CURVE SMOOTH",
"644 808 LINE",
"644 794 LINE",
"534 789.333 OFFCURVE",
"436.667 760.333 OFFCURVE",
"352 707 CURVE SMOOTH",
"267.333 653.667 OFFCURVE",
"200.833 581.833 OFFCURVE",
"152.5 491.5 CURVE SMOOTH",
"104.167 401.167 OFFCURVE",
"80 297.333 OFFCURVE",
"80 180 CURVE SMOOTH",
"80 60 OFFCURVE",
"104.833 -46.667 OFFCURVE",
"154.5 -140 CURVE SMOOTH",
"204.167 -233.333 OFFCURVE",
"273.5 -306.667 OFFCURVE",
"362.5 -360 CURVE SMOOTH",
"451.5 -413.333 OFFCURVE",
"555.333 -440 OFFCURVE",
"674 -440 CURVE SMOOTH",
"780.667 -440 OFFCURVE",
"877.333 -418.833 OFFCURVE",
"964 -376.5 CURVE SMOOTH",
"1050.667 -334.167 OFFCURVE",
"1120.667 -275 OFFCURVE",
"1174 -199 CURVE SMOOTH",
"1209 -150 OFFCURVE",
"1233 -95 OFFCURVE",
"1247 -36 CURVE SMOOTH",
"1263 27 OFFCURVE",
"1228 64 OFFCURVE",
"1170 64 CURVE SMOOTH"
);
}
);
userData = {
assembly = "NPUSHB[ ]	/* 10 values pushed */\01214 1 3 2 20 1 1 3 2 76 \012MPPEM[ ]	/* MeasurePixelPerEm */\012PUSHB[ ]	/* 1 value pushed */\01247 \012LT[ ]	/* LessThan */\012IF[ ]	/* If */\012NPUSHB[ ]	/* 38 values pushed */\0127 1 6 4 5 4 6 5 128 0 1 0 4 6 1 4 105 0 3 3 2 95 0 2 2 103 77 0 5 5 0 97 0 0 0 108 0 78 \012ELSE[ ]	/* Else */\012NPUSHB[ ]	/* 35 values pushed */\0127 1 6 4 5 4 6 5 128 0 1 0 4 6 1 4 105 0 5 0 0 5 0 101 0 3 3 2 95 0 2 2 103 3 78 \012EIF[ ]	/* EndIf */\012NPUSHB[ ]	/* 15 values pushed */\0120 0 0 34 0 34 38 35 17 19 22 35 8 12 28 \012CALL[ ]	/* CallFunction */";
};
width = 1312;
}
);
note = uni01B8;
unicode = 01B8;
},
{
glyphname = F;
lastChange = "2024-07-06 19:18:49 +0000";
layers = (
{
layerId = "D204E62E-96B3-40B8-A6C2-F0C74B8845CF";
paths = (
{
closed = 1;
nodes = (
"148 94 LINE SMOOTH",
"148 33 OFFCURVE",
"180 0 OFFCURVE",
"238 0 CURVE SMOOTH",
"296 0 OFFCURVE",
"328 33 OFFCURVE",
"328 94 CURVE SMOOTH",
"328 683 LINE",
"931 683 LINE SMOOTH",
"992 683 OFFCURVE",
"1025 711 OFFCURVE",
"1025 763 CURVE SMOOTH",
"1025 815 OFFCURVE",
"992 843 OFFCURVE",
"931 843 CURVE SMOOTH",
"328 843 LINE",
"328 1330 LINE",
"991 1330 LINE SMOOTH",
"1052 1330 OFFCURVE",
"1085 1358 OFFCURVE",
"1085 1410 CURVE SMOOTH",
"1085 1462 OFFCURVE",
"1052 1490 OFFCURVE",
"991 1490 CURVE SMOOTH",
"242 1490 LINE SMOOTH",
"181 1490 OFFCURVE",
"148 1457 OFFCURVE",
"148 1396 CURVE SMOOTH"
);
}
);
userData = {
assembly = "NPUSHB[ ]	/* 38 values pushed */\0120 2 0 3 4 2 3 103 0 1 1 0 95 0 0 0 103 77 5 1 4 4 104 4 78 0 0 0 9 0 9 17 17 17 17 6 12 26 \012CALL[ ]	/* CallFunction */";
};
width = 1135;
}
);
leftKerningGroup = B;
note = F;
rightKerningGroup = F;
unicode = 0046;
},
{
glyphname = Fhook;
lastChange = "2024-07-06 19:18:49 +0000";
layers = (
{
layerId = "D204E62E-96B3-40B8-A6C2-F0C74B8845CF";
paths = (
{
closed = 1;
nodes = (
"-66 -391 OFFCURVE",
"-33 -418 OFFCURVE",
"28 -418 CURVE SMOOTH",
"44 -418 LINE SMOOTH",
"136.667 -418 OFFCURVE",
"207.167 -396.833 OFFCURVE",
"255.5 -354.5 CURVE SMOOTH",
"303.833 -312.167 OFFCURVE",
"328 -250.667 OFFCURVE",
"328 -170 CURVE SMOOTH",
"328 683 LINE",
"931 683 LINE SMOOTH",
"992 683 OFFCURVE",
"1025 711 OFFCURVE",
"1025 763 CURVE SMOOTH",
"1025 815 OFFCURVE",
"992 843 OFFCURVE",
"931 843 CURVE SMOOTH",
"328 843 LINE",
"328 1330 LINE",
"991 1330 LINE SMOOTH",
"1052 1330 OFFCURVE",
"1085 1358 OFFCURVE",
"1085 1410 CURVE SMOOTH",
"1085 1462 OFFCURVE",
"1052 1490 OFFCURVE",
"991 1490 CURVE SMOOTH",
"242 1490 LINE SMOOTH",
"181 1490 OFFCURVE",
"148 1457 OFFCURVE",
"148 1396 CURVE SMOOTH",
"148 -162 LINE SMOOTH",
"148 -197.333 OFFCURVE",
"139.667 -222.833 OFFCURVE",
"123 -238.5 CURVE SMOOTH",
"106.333 -254.167 OFFCURVE",
"76.667 -262 OFFCURVE",
"34 -262 CURVE SMOOTH",
"28 -262 LINE SMOOTH",
"-33 -262 OFFCURVE",
"-66 -290 OFFCURVE",
"-66 -340 CURVE SMOOTH"
);
}
);
userData = {
assembly = "NPUSHB[ ]	/* 44 values pushed */\0120 3 0 4 0 3 4 103 0 2 2 1 95 0 1 1 103 77 0 0 0 5 97 6 1 5 5 108 5 78 0 0 0 17 0 16 17 17 17 19 33 7 12 27 \012CALL[ ]	/* CallFunction */";
};
width = 1135;
}
);
leftKerningGroup = Fhook;
note = uni0191;
rightKerningGroup = F;
unicode = 0191;
},
{
glyphname = G;
lastChange = "2024-07-06 19:18:49 +0000";
layers = (
{
layerId = "D204E62E-96B3-40B8-A6C2-F0C74B8845CF";
paths = (
{
closed = 1;
nodes = (
"889.667 -24 OFFCURVE",
"996.333 2.5 OFFCURVE",
"1091 55.5 CURVE SMOOTH",
"1185.667 108.5 OFFCURVE",
"1260.833 180.833 OFFCURVE",
"1316.5 272.5 CURVE SMOOTH",
"1372.167 364.167 OFFCURVE",
"1400 468 OFFCURVE",
"1400 584 CURVE SMOOTH",
"1400 651 LINE SMOOTH",
"1400 712 OFFCURVE",
"1367 745 OFFCURVE",
"1306 745 CURVE SMOOTH",
"926 745 LINE SMOOTH",
"865 745 OFFCURVE",
"832 717 OFFCURVE",
"832 665 CURVE SMOOTH",
"832 613 OFFCURVE",
"865 585 OFFCURVE",
"926 585 CURVE SMOOTH",
"1222 585 LINE",
"1221.333 497.667 OFFCURVE",
"1200.667 420.833 OFFCURVE",
"1160 354.5 CURVE SMOOTH",
"1119.333 288.167 OFFCURVE",
"1065 236.5 OFFCURVE",
"997 199.5 CURVE SMOOTH",
"929 162.5 OFFCURVE",
"853.667 144 OFFCURVE",
"771 144 CURVE SMOOTH",
"671.667 144 OFFCURVE",
"584.333 169.5 OFFCURVE",
"509 220.5 CURVE SMOOTH",
"433.667 271.5 OFFCURVE",
"375 342 OFFCURVE",
"333 432 CURVE SMOOTH",
"291 522 OFFCURVE",
"270 626 OFFCURVE",
"270 744 CURVE SMOOTH",
"270 862.667 OFFCURVE",
"291 967.167 OFFCURVE",
"333 1057.5 CURVE SMOOTH",
"375 1147.833 OFFCURVE",
"433.667 1218.5 OFFCURVE",
"509 1269.5 CURVE SMOOTH",
"584.333 1320.5 OFFCURVE",
"671.667 1346 OFFCURVE",
"771 1346 CURVE SMOOTH",
"844.333 1346 OFFCURVE",
"911.167 1331.667 OFFCURVE",
"971.5 1303 CURVE SMOOTH",
"1031.833 1274.333 OFFCURVE",
"1082.667 1234.667 OFFCURVE",
"1124 1184 CURVE SMOOTH",
"1149 1154 OFFCURVE",
"1168 1121 OFFCURVE",
"1184 1085 CURVE SMOOTH",
"1206 1034 OFFCURVE",
"1235 1008 OFFCURVE",
"1290 1008 CURVE SMOOTH",
"1300 1008 LINE SMOOTH",
"1356 1008 OFFCURVE",
"1386 1049 OFFCURVE",
"1364 1113 CURVE SMOOTH",
"1343 1170 OFFCURVE",
"1315 1223 OFFCURVE",
"1278 1271 CURVE SMOOTH",
"1220 1347 OFFCURVE",
"1147.333 1406.5 OFFCURVE",
"1060 1449.5 CURVE SMOOTH",
"972.667 1492.5 OFFCURVE",
"876.333 1514 OFFCURVE",
"771 1514 CURVE SMOOTH",
"639 1514 OFFCURVE",
"521.667 1481.167 OFFCURVE",
"419 1415.5 CURVE SMOOTH",
"316.333 1349.833 OFFCURVE",
"235.833 1259.167 OFFCURVE",
"177.5 1143.5 CURVE SMOOTH",
"119.167 1027.833 OFFCURVE",
"90 894.667 OFFCURVE",
"90 744 CURVE SMOOTH",
"90 594.667 OFFCURVE",
"119.333 462.167 OFFCURVE",
"178 346.5 CURVE SMOOTH",
"236.667 230.833 OFFCURVE",
"317.167 140.167 OFFCURVE",
"419.5 74.5 CURVE SMOOTH",
"521.833 8.833 OFFCURVE",
"639 -24 OFFCURVE",
"771 -24 CURVE SMOOTH"
);
}
);
userData = {
assembly = "MPPEM[ ]	/* MeasurePixelPerEm */\012PUSHB[ ]	/* 1 value pushed */\01250 \012LT[ ]	/* LessThan */\012IF[ ]	/* If */\012NPUSHB[ ]	/* 38 values pushed */\0120 2 3 6 3 2 6 128 0 6 0 5 4 6 5 103 0 3 3 1 97 0 1 1 109 77 0 4 4 0 97 7 1 0 0 110 0 78 \012ELSE[ ]	/* Else */\012NPUSHB[ ]	/* 36 values pushed */\0120 2 3 6 3 2 6 128 0 1 0 3 2 1 3 105 0 6 0 5 4 6 5 103 0 4 4 0 97 7 1 0 0 110 0 78 \012EIF[ ]	/* EndIf */\012NPUSHB[ ]	/* 21 values pushed */\0121 0 32 31 30 29 26 24 18 16 13 12 9 7 0 36 1 36 8 12 22 \012CALL[ ]	/* CallFunction */";
};
width = 1496;
}
);
leftKerningGroup = C;
note = G;
rightKerningGroup = G;
unicode = 0047;
},
{
glyphname = Ghook;
lastChange = "2024-07-06 19:18:49 +0000";
layers = (
{
layerId = "D204E62E-96B3-40B8-A6C2-F0C74B8845CF";
paths = (
{
closed = 1;
nodes = (
"889.667 -24 OFFCURVE",
"996.333 2.5 OFFCURVE",
"1091 55.5 CURVE SMOOTH",
"1185.667 108.5 OFFCURVE",
"1260.833 180.833 OFFCURVE",
"1316.5 272.5 CURVE SMOOTH",
"1372.167 364.167 OFFCURVE",
"1400 468 OFFCURVE",
"1400 584 CURVE SMOOTH",
"1400 651 LINE SMOOTH",
"1400 712 OFFCURVE",
"1367 745 OFFCURVE",
"1306 745 CURVE SMOOTH",
"926 745 LINE SMOOTH",
"865 745 OFFCURVE",
"832 717 OFFCURVE",
"832 665 CURVE SMOOTH",
"832 613 OFFCURVE",
"865 585 OFFCURVE",
"926 585 CURVE SMOOTH",
"1222 585 LINE",
"1221.333 497.667 OFFCURVE",
"1200.667 420.833 OFFCURVE",
"1160 354.5 CURVE SMOOTH",
"1119.333 288.167 OFFCURVE",
"1065 236.5 OFFCURVE",
"997 199.5 CURVE SMOOTH",
"929 162.5 OFFCURVE",
"853.667 144 OFFCURVE",
"771 144 CURVE SMOOTH",
"671.667 144 OFFCURVE",
"584.333 169.5 OFFCURVE",
"509 220.5 CURVE SMOOTH",
"433.667 271.5 OFFCURVE",
"375 342 OFFCURVE",
"333 432 CURVE SMOOTH",
"291 522 OFFCURVE",
"270 626 OFFCURVE",
"270 744 CURVE SMOOTH",
"270 862.667 OFFCURVE",
"291 967.167 OFFCURVE",
"333 1057.5 CURVE SMOOTH",
"375 1147.833 OFFCURVE",
"433.667 1218.5 OFFCURVE",
"509 1269.5 CURVE SMOOTH",
"584.333 1320.5 OFFCURVE",
"671.667 1346 OFFCURVE",
"771 1346 CURVE SMOOTH",
"844.333 1346 OFFCURVE",
"911.167 1331.667 OFFCURVE",
"971.5 1303 CURVE SMOOTH",
"1031.833 1274.333 OFFCURVE",
"1082.667 1234.667 OFFCURVE",
"1124 1184 CURVE SMOOTH",
"1149 1154 OFFCURVE",
"1168 1121 OFFCURVE",
"1184 1085 CURVE SMOOTH",
"1206 1034 OFFCURVE",
"1235 1008 OFFCURVE",
"1290 1008 CURVE SMOOTH",
"1300 1008 LINE SMOOTH",
"1359 1008 OFFCURVE",
"1391 1041 OFFCURVE",
"1391 1102 CURVE SMOOTH",
"1391 1428 LINE SMOOTH",
"1391 1463.333 OFFCURVE",
"1400 1488.833 OFFCURVE",
"1418 1504.5 CURVE SMOOTH",
"1436 1520.167 OFFCURVE",
"1466.333 1528 OFFCURVE",
"1509 1528 CURVE SMOOTH",
"1515 1528 LINE SMOOTH",
"1576 1528 OFFCURVE",
"1609 1554 OFFCURVE",
"1609 1602 CURVE SMOOTH",
"1609 1650 OFFCURVE",
"1576 1676 OFFCURVE",
"1515 1676 CURVE SMOOTH",
"1509 1676 LINE SMOOTH",
"1416.333 1676 OFFCURVE",
"1345.833 1655 OFFCURVE",
"1297.5 1613 CURVE SMOOTH",
"1249.167 1571 OFFCURVE",
"1225 1509.333 OFFCURVE",
"1225 1428 CURVE SMOOTH",
"1225 1332 LINE",
"1168.333 1388.667 OFFCURVE",
"1101.167 1433.167 OFFCURVE",
"1023.5 1465.5 CURVE SMOOTH",
"945.833 1497.833 OFFCURVE",
"861.667 1514 OFFCURVE",
"771 1514 CURVE SMOOTH",
"639 1514 OFFCURVE",
"521.667 1481.167 OFFCURVE",
"419 1415.5 CURVE SMOOTH",
"316.333 1349.833 OFFCURVE",
"235.833 1259.167 OFFCURVE",
"177.5 1143.5 CURVE SMOOTH",
"119.167 1027.833 OFFCURVE",
"90 894.667 OFFCURVE",
"90 744 CURVE SMOOTH",
"90 594.667 OFFCURVE",
"119.333 462.167 OFFCURVE",
"178 346.5 CURVE SMOOTH",
"236.667 230.833 OFFCURVE",
"317.167 140.167 OFFCURVE",
"419.5 74.5 CURVE SMOOTH",
"521.833 8.833 OFFCURVE",
"639 -24 OFFCURVE",
"771 -24 CURVE SMOOTH"
);
}
);
userData = {
assembly = "PUSHB[ ]	/* 6 values pushed */\01211 1 4 5 1 76 \012MPPEM[ ]	/* MeasurePixelPerEm */\012PUSHB[ ]	/* 1 value pushed */\01250 \012LT[ ]	/* LessThan */\012IF[ ]	/* If */\012NPUSHB[ ]	/* 46 values pushed */\0120 4 5 8 5 4 8 128 0 2 0 3 1 2 3 105 0 8 0 7 6 8 7 103 0 5 5 1 97 0 1 1 109 77 0 6 6 0 97 9 1 0 0 110 0 78 \012ELSE[ ]	/* Else */\012NPUSHB[ ]	/* 44 values pushed */\0120 4 5 8 5 4 8 128 0 2 0 3 1 2 3 105 0 1 0 5 4 1 5 105 0 8 0 7 6 8 7 103 0 6 6 0 97 9 1 0 0 110 0 78 \012EIF[ ]	/* EndIf */\012NPUSHB[ ]	/* 25 values pushed */\0121 0 42 41 40 39 36 34 28 26 23 22 19 17 16 14 9 7 0 46 1 46 10 12 22 \012CALL[ ]	/* CallFunction */";
};
width = 1496;
}
);
leftKerningGroup = C;
note = uni0193;
rightKerningGroup = G;
unicode = 0193;
},
{
glyphname = Glottalstop;
lastChange = "2024-07-06 19:18:49 +0000";
layers = (
{
layerId = "D204E62E-96B3-40B8-A6C2-F0C74B8845CF";
paths = (
{
closed = 1;
nodes = (
"492 454 LINE SMOOTH",
"431 454 OFFCURVE",
"398 421 OFFCURVE",
"398 360 CURVE SMOOTH",
"398 94 LINE SMOOTH",
"398 33 OFFCURVE",
"431 0 OFFCURVE",
"492 0 CURVE SMOOTH",
"514 0 LINE SMOOTH",
"575 0 OFFCURVE",
"608 33 OFFCURVE",
"608 94 CURVE SMOOTH",
"608 291 LINE",
"692.667 307.667 OFFCURVE",
"763 341.833 OFFCURVE",
"819 393.5 CURVE SMOOTH",
"875 445.167 OFFCURVE",
"916.833 508.167 OFFCURVE",
"944.5 582.5 CURVE SMOOTH",
"972.167 656.833 OFFCURVE",
"986 736 OFFCURVE",
"986 820 CURVE SMOOTH",
"986 968 LINE SMOOTH",
"986 1064.667 OFFCURVE",
"968 1154 OFFCURVE",
"932 1236 CURVE SMOOTH",
"896 1318 OFFCURVE",
"841.667 1384.167 OFFCURVE",
"769 1434.5 CURVE SMOOTH",
"696.333 1484.833 OFFCURVE",
"604.667 1510 OFFCURVE",
"494 1510 CURVE SMOOTH",
"408 1510 OFFCURVE",
"332.667 1492.167 OFFCURVE",
"268 1456.5 CURVE SMOOTH",
"203.333 1420.833 OFFCURVE",
"152.5 1372.333 OFFCURVE",
"115.5 1311 CURVE SMOOTH",
"95 1277 OFFCURVE",
"80 1241 OFFCURVE",
"70 1202 CURVE SMOOTH",
"54 1139 OFFCURVE",
"93 1102 OFFCURVE",
"157 1102 CURVE SMOOTH",
"165 1102 LINE SMOOTH",
"222 1102 OFFCURVE",
"247 1131 OFFCURVE",
"267 1186 CURVE SMOOTH",
"279 1219 OFFCURVE",
"297 1247 OFFCURVE",
"321 1271.5 CURVE SMOOTH",
"363.667 1314.5 OFFCURVE",
"421.333 1336 OFFCURVE",
"494 1336 CURVE SMOOTH",
"569.333 1336 OFFCURVE",
"627.667 1317.833 OFFCURVE",
"669 1281.5 CURVE SMOOTH",
"710.333 1245.167 OFFCURVE",
"739.167 1199 OFFCURVE",
"755.5 1143 CURVE SMOOTH",
"771.833 1087 OFFCURVE",
"780 1028.667 OFFCURVE",
"780 968 CURVE SMOOTH",
"780 820 LINE SMOOTH",
"780 759.333 OFFCURVE",
"772 701 OFFCURVE",
"756 645 CURVE SMOOTH",
"740 589 OFFCURVE",
"711.333 543.167 OFFCURVE",
"670 507.5 CURVE SMOOTH",
"628.667 471.833 OFFCURVE",
"570 454 OFFCURVE",
"494 454 CURVE SMOOTH"
);
}
);
userData = {
assembly = "NPUSHB[ ]	/* 53 values pushed */\01227 1 4 0 1 76 0 2 1 0 1 2 0 128 0 1 1 3 97 0 3 3 109 77 5 1 0 0 4 95 0 4 4 104 4 78 2 0 29 28 19 17 14 13 11 9 0 30 2 30 6 12 22 \012CALL[ ]	/* CallFunction */";
};
width = 1042;
}
);
note = uni0241;
unicode = 0241;
},
{
glyphname = Yogh;
lastChange = "2024-07-06 19:18:49 +0000";
layers = (
{
layerId = "D204E62E-96B3-40B8-A6C2-F0C74B8845CF";
paths = (
{
closed = 1;
nodes = (
"383 386 OFFCURVE",
"467 415 OFFCURVE",
"547 448 CURVE SMOOTH",
"657 494 OFFCURVE",
"753 547.667 OFFCURVE",
"835 609 CURVE",
"865.667 582.333 OFFCURVE",
"887.833 547 OFFCURVE",
"901.5 503 CURVE SMOOTH",
"915.167 459 OFFCURVE",
"922 404.667 OFFCURVE",
"922 340 CURVE SMOOTH",
"922 215.333 OFFCURVE",
"893.167 113.833 OFFCURVE",
"835.5 35.5 CURVE SMOOTH",
"777.833 -42.833 OFFCURVE",
"694.333 -105.5 OFFCURVE",
"585 -152.5 CURVE SMOOTH",
"496 -191 OFFCURVE",
"392 -224 OFFCURVE",
"274 -252 CURVE SMOOTH",
"218 -265 OFFCURVE",
"190 -298 OFFCURVE",
"190 -353 CURVE SMOOTH",
"190 -404 OFFCURVE",
"229 -429 OFFCURVE",
"294 -414 CURVE SMOOTH",
"390 -391 OFFCURVE",
"481 -365 OFFCURVE",
"566 -336.5 CURVE SMOOTH",
"680.667 -297.5 OFFCURVE",
"780.333 -249.167 OFFCURVE",
"865 -191.5 CURVE SMOOTH",
"949.667 -133.833 OFFCURVE",
"1015.333 -62.833 OFFCURVE",
"1062 21.5 CURVE SMOOTH",
"1108.667 105.833 OFFCURVE",
"1132 207.333 OFFCURVE",
"1132 326 CURVE SMOOTH",
"1132 423.333 OFFCURVE",
"1116.833 504.167 OFFCURVE",
"1086.5 568.5 CURVE SMOOTH",
"1056.167 632.833 OFFCURVE",
"1013 683 OFFCURVE",
"957 719 CURVE",
"1005 772.333 OFFCURVE",
"1042.167 829.5 OFFCURVE",
"1068.5 890.5 CURVE SMOOTH",
"1094.833 951.5 OFFCURVE",
"1108 1016 OFFCURVE",
"1108 1084 CURVE SMOOTH",
"1108 1175.333 OFFCURVE",
"1086.5 1252.667 OFFCURVE",
"1043.5 1316 CURVE SMOOTH",
"1000.5 1379.333 OFFCURVE",
"941.5 1427.5 OFFCURVE",
"866.5 1460.5 CURVE SMOOTH",
"791.5 1493.5 OFFCURVE",
"706 1510 OFFCURVE",
"610 1510 CURVE SMOOTH",
"511.333 1510 OFFCURVE",
"423.5 1493.5 OFFCURVE",
"346.5 1460.5 CURVE SMOOTH",
"269.5 1427.5 OFFCURVE",
"209 1380.833 OFFCURVE",
"165 1320.5 CURVE SMOOTH",
"140 1286 OFFCURVE",
"122 1247 OFFCURVE",
"111 1205 CURVE SMOOTH",
"94 1143 OFFCURVE",
"135 1106 OFFCURVE",
"198 1106 CURVE SMOOTH",
"221 1106 LINE SMOOTH",
"278 1106 OFFCURVE",
"300 1135 OFFCURVE",
"322 1189 CURVE SMOOTH",
"335 1222 OFFCURVE",
"357 1251 OFFCURVE",
"388.5 1276 CURVE SMOOTH",
"443.5 1320 OFFCURVE",
"517.333 1342 OFFCURVE",
"610 1342 CURVE SMOOTH",
"703.333 1342 OFFCURVE",
"775.333 1317.833 OFFCURVE",
"826 1269.5 CURVE SMOOTH",
"876.667 1221.167 OFFCURVE",
"902 1152.667 OFFCURVE",
"902 1064 CURVE SMOOTH",
"902 970.667 OFFCURVE",
"874.333 889.333 OFFCURVE",
"819 820 CURVE SMOOTH",
"763.667 750.667 OFFCURVE",
"683 689.5 OFFCURVE",
"577 636.5 CURVE SMOOTH",
"490 593 OFFCURVE",
"387 552 OFFCURVE",
"268 513 CURVE SMOOTH",
"215 495 OFFCURVE",
"190 463 OFFCURVE",
"190 413 CURVE SMOOTH",
"190 367 OFFCURVE",
"230 346 OFFCURVE",
"294 363 CURVE SMOOTH"
);
}
);
userData = {
assembly = "NPUSHB[ ]	/* 31 values pushed */\01239 32 31 23 1 0 6 1 73 0 1 0 1 134 0 0 0 2 97 0 2 2 109 0 78 35 18 39 3 12 25 \012CALL[ ]	/* CallFunction */";
};
width = 1228;
}
);
note = uni021C;
unicode = 021C;
},
{
glyphname = H;
lastChange = "2024-07-06 19:18:49 +0000";
layers = (
{
layerId = "D204E62E-96B3-40B8-A6C2-F0C74B8845CF";
paths = (
{
closed = 1;
nodes = (
"148 94 LINE SMOOTH",
"148 33 OFFCURVE",
"180 0 OFFCURVE",
"238 0 CURVE SMOOTH",
"296 0 OFFCURVE",
"328 33 OFFCURVE",
"328 94 CURVE SMOOTH",
"328 683 LINE",
"1122 683 LINE",
"1122 94 LINE SMOOTH",
"1122 33 OFFCURVE",
"1154 0 OFFCURVE",
"1212 0 CURVE SMOOTH",
"1270 0 OFFCURVE",
"1302 33 OFFCURVE",
"1302 94 CURVE SMOOTH",
"1302 1396 LINE SMOOTH",
"1302 1457 OFFCURVE",
"1270 1490 OFFCURVE",
"1212 1490 CURVE SMOOTH",
"1154 1490 OFFCURVE",
"1122 1457 OFFCURVE",
"1122 1396 CURVE SMOOTH",
"1122 843 LINE",
"328 843 LINE",
"328 1396 LINE SMOOTH",
"328 1457 OFFCURVE",
"296 1490 OFFCURVE",
"238 1490 CURVE SMOOTH",
"180 1490 OFFCURVE",
"148 1457 OFFCURVE",
"148 1396 CURVE SMOOTH"
);
}
);
userData = {
assembly = "NPUSHB[ ]	/* 36 values pushed */\0120 1 0 4 3 1 4 103 2 1 0 0 103 77 6 5 2 3 3 104 3 78 0 0 0 11 0 11 17 17 17 17 17 7 12 27 \012CALL[ ]	/* CallFunction */";
};
width = 1450;
}
);
leftKerningGroup = B;
note = H;
rightKerningGroup = Ereversed;
unicode = 0048;
},
{
glyphname = Hbar;
lastChange = "2024-07-06 19:18:49 +0000";
layers = (
{
layerId = "D204E62E-96B3-40B8-A6C2-F0C74B8845CF";
paths = (
{
closed = 1;
nodes = (
"1444 1149 OFFCURVE",
"1411 1176 OFFCURVE",
"1350 1176 CURVE SMOOTH",
"1324 1176 LINE",
"1324 1396 LINE SMOOTH",
"1324 1457 OFFCURVE",
"1292 1490 OFFCURVE",
"1234 1490 CURVE SMOOTH",
"1176 1490 OFFCURVE",
"1144 1457 OFFCURVE",
"1144 1396 CURVE SMOOTH",
"1144 1176 LINE",
"350 1176 LINE",
"350 1396 LINE SMOOTH",
"350 1457 OFFCURVE",
"318 1490 OFFCURVE",
"260 1490 CURVE SMOOTH",
"202 1490 OFFCURVE",
"170 1457 OFFCURVE",
"170 1396 CURVE SMOOTH",
"170 1176 LINE",
"110 1176 LINE SMOOTH",
"71 1176 OFFCURVE",
"50 1149 OFFCURVE",
"50 1100 CURVE SMOOTH",
"50 1051 OFFCURVE",
"83 1024 OFFCURVE",
"144 1024 CURVE SMOOTH",
"170 1024 LINE",
"170 94 LINE SMOOTH",
"170 33 OFFCURVE",
"202 0 OFFCURVE",
"260 0 CURVE SMOOTH",
"318 0 OFFCURVE",
"350 33 OFFCURVE",
"350 94 CURVE SMOOTH",
"350 683 LINE",
"1144 683 LINE",
"1144 94 LINE SMOOTH",
"1144 33 OFFCURVE",
"1176 0 OFFCURVE",
"1234 0 CURVE SMOOTH",
"1292 0 OFFCURVE",
"1324 33 OFFCURVE",
"1324 94 CURVE SMOOTH",
"1324 1024 LINE",
"1384 1024 LINE SMOOTH",
"1423 1024 OFFCURVE",
"1444 1051 OFFCURVE",
"1444 1100 CURVE SMOOTH"
);
},
{
closed = 1;
nodes = (
"1144 1024 LINE",
"1144 843 LINE",
"350 843 LINE",
"350 1024 LINE"
);
}
);
userData = {
assembly = "NPUSHB[ ]	/* 56 values pushed */\01212 9 7 3 5 10 4 2 0 11 5 0 103 0 11 0 2 1 11 2 103 8 1 6 6 103 77 3 1 1 1 104 1 78 0 0 23 22 21 20 0 19 0 19 17 17 17 17 17 17 17 17 17 13 12 31 \012CALL[ ]	/* CallFunction */";
};
width = 1494;
}
);
leftKerningGroup = B;
note = Hbar;
rightKerningGroup = Ereversed;
unicode = 0126;
},
{
glyphname = Hwair;
lastChange = "2024-07-06 19:18:49 +0000";
layers = (
{
layerId = "D204E62E-96B3-40B8-A6C2-F0C74B8845CF";
paths = (
{
closed = 1;
nodes = (
"1692.333 -20 OFFCURVE",
"1798.5 17.833 OFFCURVE",
"1877.5 93.5 CURVE SMOOTH",
"1956.5 169.167 OFFCURVE",
"1996 271.333 OFFCURVE",
"1996 400 CURVE SMOOTH",
"1996 962 LINE SMOOTH",
"1996 1023 OFFCURVE",
"1966 1056 OFFCURVE",
"1911 1056 CURVE SMOOTH",
"1856 1056 OFFCURVE",
"1826 1023 OFFCURVE",
"1826 962 CURVE SMOOTH",
"1826 408 LINE SMOOTH",
"1826 321.333 OFFCURVE",
"1802.667 254.333 OFFCURVE",
"1756 207 CURVE SMOOTH",
"1709.333 159.667 OFFCURVE",
"1643.667 136 OFFCURVE",
"1559 136 CURVE SMOOTH",
"1474.333 136 OFFCURVE",
"1410.333 159.667 OFFCURVE",
"1367 207 CURVE SMOOTH",
"1323.667 254.333 OFFCURVE",
"1302 321.333 OFFCURVE",
"1302 408 CURVE SMOOTH",
"1302 1396 LINE SMOOTH",
"1302 1457 OFFCURVE",
"1270 1490 OFFCURVE",
"1212 1490 CURVE SMOOTH",
"1154 1490 OFFCURVE",
"1122 1457 OFFCURVE",
"1122 1396 CURVE SMOOTH",
"1122 843 LINE",
"328 843 LINE",
"328 1396 LINE SMOOTH",
"328 1457 OFFCURVE",
"296 1490 OFFCURVE",
"238 1490 CURVE SMOOTH",
"180 1490 OFFCURVE",
"148 1457 OFFCURVE",
"148 1396 CURVE SMOOTH",
"148 94 LINE SMOOTH",
"148 33 OFFCURVE",
"180 0 OFFCURVE",
"238 0 CURVE SMOOTH",
"296 0 OFFCURVE",
"328 33 OFFCURVE",
"328 94 CURVE SMOOTH",
"328 683 LINE",
"1122 683 LINE",
"1122 400 LINE SMOOTH",
"1122 271.333 OFFCURVE",
"1161.5 169.167 OFFCURVE",
"1240.5 93.5 CURVE SMOOTH",
"1319.5 17.833 OFFCURVE",
"1425.667 -20 OFFCURVE",
"1559 -20 CURVE SMOOTH"
);
}
);
userData = {
assembly = "MPPEM[ ]	/* MeasurePixelPerEm */\012PUSHB[ ]	/* 1 value pushed */\01226 \012LT[ ]	/* LessThan */\012IF[ ]	/* If */\012NPUSHB[ ]	/* 32 values pushed */\0120 4 0 1 6 4 1 103 5 1 3 3 103 77 0 7 7 106 77 0 6 6 0 97 2 8 2 0 0 110 0 78 \012ELSE[ ]	/* Else */\012NPUSHB[ ]	/* 36 values pushed */\0120 4 0 1 6 4 1 103 5 1 3 3 103 77 0 7 7 106 77 0 2 2 104 77 0 6 6 0 97 8 1 0 0 110 0 78 \012EIF[ ]	/* EndIf */\012NPUSHB[ ]	/* 23 values pushed */\0121 0 22 21 18 16 13 12 11 10 9 8 7 6 5 4 0 25 1 25 9 12 22 \012CALL[ ]	/* CallFunction */";
};
width = 2122;
}
);
leftKerningGroup = B;
note = uni01F6;
rightKerningGroup = Hwair;
unicode = 01F6;
},
{
glyphname = I;
lastChange = "2024-07-06 19:18:49 +0000";
layers = (
{
layerId = "D204E62E-96B3-40B8-A6C2-F0C74B8845CF";
paths = (
{
closed = 1;
nodes = (
"328 1396 LINE SMOOTH",
"328 1457 OFFCURVE",
"296 1490 OFFCURVE",
"238 1490 CURVE SMOOTH",
"180 1490 OFFCURVE",
"148 1457 OFFCURVE",
"148 1396 CURVE SMOOTH",
"148 94 LINE SMOOTH",
"148 33 OFFCURVE",
"180 0 OFFCURVE",
"238 0 CURVE SMOOTH",
"296 0 OFFCURVE",
"328 33 OFFCURVE",
"328 94 CURVE SMOOTH"
);
}
);
userData = {
assembly = "NPUSHB[ ]	/* 22 values pushed */\0122 1 1 1 103 77 0 0 0 104 0 78 0 0 0 3 0 3 17 3 12 23 \012CALL[ ]	/* CallFunction */";
};
width = 476;
}
);
leftKerningGroup = B;
note = I;
rightKerningGroup = Ereversed;
unicode = 0049;
},
{
glyphname = J;
lastChange = "2024-07-06 19:18:49 +0000";
layers = (
{
layerId = "D204E62E-96B3-40B8-A6C2-F0C74B8845CF";
paths = (
{
closed = 1;
nodes = (
"644.333 -20 OFFCURVE",
"750 18.333 OFFCURVE",
"832 95 CURVE SMOOTH",
"914 171.667 OFFCURVE",
"955 281.333 OFFCURVE",
"955 424 CURVE SMOOTH",
"955 1396 LINE SMOOTH",
"955 1457 OFFCURVE",
"923 1490 OFFCURVE",
"865 1490 CURVE SMOOTH",
"807 1490 OFFCURVE",
"775 1457 OFFCURVE",
"775 1396 CURVE SMOOTH",
"775 424 LINE SMOOTH",
"775 331.333 OFFCURVE",
"751.167 260.833 OFFCURVE",
"703.5 212.5 CURVE SMOOTH",
"655.833 164.167 OFFCURVE",
"593 140 OFFCURVE",
"515 140 CURVE SMOOTH",
"437 140 OFFCURVE",
"374.167 164.167 OFFCURVE",
"326.5 212.5 CURVE SMOOTH",
"278.833 260.833 OFFCURVE",
"255 331.333 OFFCURVE",
"255 424 CURVE SMOOTH",
"255 476 OFFCURVE",
"223 504 OFFCURVE",
"165 504 CURVE SMOOTH",
"107 504 OFFCURVE",
"75 476 OFFCURVE",
"75 424 CURVE SMOOTH",
"75 281.333 OFFCURVE",
"116 171.667 OFFCURVE",
"198 95 CURVE SMOOTH",
"280 18.333 OFFCURVE",
"385.667 -20 OFFCURVE",
"515 -20 CURVE SMOOTH"
);
}
);
userData = {
assembly = "NPUSHB[ ]	/* 40 values pushed */\0120 1 3 2 3 1 2 128 0 3 3 103 77 0 2 2 0 97 4 1 0 0 110 0 78 1 0 14 13 10 8 5 4 0 17 1 17 5 12 22 \012CALL[ ]	/* CallFunction */";
};
width = 1095;
}
);
leftKerningGroup = J;
note = J;
rightKerningGroup = J;
unicode = 004A;
},
{
glyphname = K;
lastChange = "2024-07-06 19:18:49 +0000";
layers = (
{
layerId = "D204E62E-96B3-40B8-A6C2-F0C74B8845CF";
paths = (
{
closed = 1;
nodes = (
"148 94 LINE SMOOTH",
"148 33 OFFCURVE",
"180 0 OFFCURVE",
"238 0 CURVE SMOOTH",
"296 0 OFFCURVE",
"328 33 OFFCURVE",
"328 94 CURVE SMOOTH",
"328 488 LINE",
"545 722 LINE",
"1019 59 LINE SMOOTH",
"1048 18 OFFCURVE",
"1083 0 OFFCURVE",
"1133 0 CURVE SMOOTH",
"1168 0 LINE SMOOTH",
"1227 0 OFFCURVE",
"1237 51 OFFCURVE",
"1192 114 CURVE SMOOTH",
"669 845 LINE",
"1166 1374 LINE SMOOTH",
"1223 1434 OFFCURVE",
"1198 1490 OFFCURVE",
"1115 1490 CURVE SMOOTH",
"1105 1490 LINE SMOOTH",
"1057 1490 OFFCURVE",
"1022 1475 OFFCURVE",
"989 1440 CURVE SMOOTH",
"455 865 LINE SMOOTH",
"412.333 819 OFFCURVE",
"370 772.667 OFFCURVE",
"328 726 CURVE",
"328 1396 LINE SMOOTH",
"328 1457 OFFCURVE",
"296 1490 OFFCURVE",
"238 1490 CURVE SMOOTH",
"180 1490 OFFCURVE",
"148 1457 OFFCURVE",
"148 1396 CURVE SMOOTH"
);
}
);
userData = {
assembly = "NPUSHB[ ]	/* 35 values pushed */\01213 12 9 3 4 2 0 1 76 1 1 0 0 103 77 4 3 2 2 2 104 2 78 0 0 0 14 0 14 18 21 17 5 12 25 \012CALL[ ]	/* CallFunction */";
};
width = 1299;
}
);
leftKerningGroup = B;
note = K;
rightKerningGroup = K;
unicode = 004B;
},
{
glyphname = Khook;
lastChange = "2024-07-06 19:18:49 +0000";
layers = (
{
layerId = "D204E62E-96B3-40B8-A6C2-F0C74B8845CF";
paths = (
{
closed = 1;
nodes = (
"148 94 LINE SMOOTH",
"148 33 OFFCURVE",
"180 0 OFFCURVE",
"238 0 CURVE SMOOTH",
"296 0 OFFCURVE",
"328 33 OFFCURVE",
"328 94 CURVE SMOOTH",
"328 482 LINE",
"514 692 LINE",
"989 57 LINE SMOOTH",
"1019 17 OFFCURVE",
"1053 0 OFFCURVE",
"1103 0 CURVE SMOOTH",
"1141 0 LINE SMOOTH",
"1201 0 OFFCURVE",
"1210 52 OFFCURVE",
"1162 115 CURVE SMOOTH",
"626 818 LINE",
"1050 1274 LINE SMOOTH",
"1087.333 1314 OFFCURVE",
"1122.667 1336.5 OFFCURVE",
"1156 1341.5 CURVE SMOOTH",
"1173 1344 OFFCURVE",
"1190 1343 OFFCURVE",
"1207 1339 CURVE SMOOTH",
"1241 1330 OFFCURVE",
"1266 1340 OFFCURVE",
"1290 1385 CURVE SMOOTH",
"1313 1428 OFFCURVE",
"1300 1475 OFFCURVE",
"1242 1494 CURVE SMOOTH",
"1207 1506 OFFCURVE",
"1169 1510 OFFCURVE",
"1130.5 1506.5 CURVE SMOOTH",
"1059.5 1500.833 OFFCURVE",
"994.667 1466 OFFCURVE",
"936 1402 CURVE SMOOTH",
"346 750 LINE",
"328 750 LINE",
"328 1396 LINE SMOOTH",
"328 1457 OFFCURVE",
"296 1490 OFFCURVE",
"238 1490 CURVE SMOOTH",
"180 1490 OFFCURVE",
"148 1457 OFFCURVE",
"148 1396 CURVE SMOOTH"
);
}
);
userData = {
assembly = "NPUSHB[ ]	/* 35 values pushed */\01217 16 13 9 8 3 6 1 0 1 76 0 0 0 103 77 3 2 2 1 1 104 1 78 0 0 0 18 0 18 28 17 4 12 24 \012CALL[ ]	/* CallFunction */";
};
width = 1312;
}
);
leftKerningGroup = B;
note = uni0198;
rightKerningGroup = K;
unicode = 0198;
},
{
glyphname = L;
lastChange = "2024-07-06 19:18:49 +0000";
layers = (
{
layerId = "D204E62E-96B3-40B8-A6C2-F0C74B8845CF";
paths = (
{
closed = 1;
nodes = (
"148 94 LINE SMOOTH",
"148 33 OFFCURVE",
"181 0 OFFCURVE",
"242 0 CURVE SMOOTH",
"952 0 LINE SMOOTH",
"1013 0 OFFCURVE",
"1046 28 OFFCURVE",
"1046 80 CURVE SMOOTH",
"1046 132 OFFCURVE",
"1013 160 OFFCURVE",
"952 160 CURVE SMOOTH",
"328 160 LINE",
"328 1396 LINE SMOOTH",
"328 1457 OFFCURVE",
"296 1490 OFFCURVE",
"238 1490 CURVE SMOOTH",
"180 1490 OFFCURVE",
"148 1457 OFFCURVE",
"148 1396 CURVE SMOOTH"
);
}
);
userData = {
assembly = "NPUSHB[ ]	/* 28 values pushed */\0120 0 0 103 77 0 1 1 2 96 3 1 2 2 104 2 78 0 0 0 5 0 5 17 17 4 12 24 \012CALL[ ]	/* CallFunction */";
};
width = 1096;
}
);
leftKerningGroup = B;
note = L;
rightKerningGroup = L;
unicode = 004C;
},
{
glyphname = M;
lastChange = "2024-07-06 19:18:49 +0000";
layers = (
{
layerId = "D204E62E-96B3-40B8-A6C2-F0C74B8845CF";
paths = (
{
closed = 1;
nodes = (
"148 94 LINE SMOOTH",
"148 33 OFFCURVE",
"180 0 OFFCURVE",
"237 0 CURVE SMOOTH",
"294 0 OFFCURVE",
"326 33 OFFCURVE",
"326 94 CURVE SMOOTH",
"326 864 LINE SMOOTH",
"326 914.667 OFFCURVE",
"325.5 970.667 OFFCURVE",
"324.5 1032 CURVE SMOOTH",
"323.5 1093.333 OFFCURVE",
"322 1154.667 OFFCURVE",
"320 1216 CURVE",
"398 1013 LINE SMOOTH",
"421.333 951.667 OFFCURVE",
"440.667 902 OFFCURVE",
"456 864 CURVE SMOOTH",
"775 73 LINE SMOOTH",
"795 23 OFFCURVE",
"828 0 OFFCURVE",
"878 0 CURVE SMOOTH",
"928 0 OFFCURVE",
"961 22 OFFCURVE",
"981 73 CURVE SMOOTH",
"1298 864 LINE SMOOTH",
"1314 904 OFFCURVE",
"1334 956.667 OFFCURVE",
"1358 1022 CURVE SMOOTH",
"1437 1238 LINE",
"1433 1042.5 LINE SMOOTH",
"1431.667 976.833 OFFCURVE",
"1431 917.333 OFFCURVE",
"1431 864 CURVE SMOOTH",
"1431 94 LINE SMOOTH",
"1431 33 OFFCURVE",
"1463 0 OFFCURVE",
"1520 0 CURVE SMOOTH",
"1577 0 OFFCURVE",
"1608 33 OFFCURVE",
"1608 94 CURVE SMOOTH",
"1608 1396 LINE SMOOTH",
"1608 1457 OFFCURVE",
"1575 1490 OFFCURVE",
"1514 1490 CURVE SMOOTH",
"1441 1490 LINE SMOOTH",
"1387 1490 OFFCURVE",
"1352 1466 OFFCURVE",
"1333 1416 CURVE SMOOTH",
"990 528 LINE",
"957.5 442.5 LINE",
"917.5 336.5 LINE SMOOTH",
"903.833 300.167 OFFCURVE",
"891.667 267 OFFCURVE",
"881 237 CURVE",
"870.333 267 OFFCURVE",
"858.167 300.167 OFFCURVE",
"844.5 336.5 CURVE SMOOTH",
"804.5 442.5 LINE SMOOTH",
"791.5 476.833 OFFCURVE",
"780.333 505.333 OFFCURVE",
"771 528 CURVE SMOOTH",
"422 1416 LINE SMOOTH",
"402 1467 OFFCURVE",
"368 1490 OFFCURVE",
"314 1490 CURVE SMOOTH",
"242 1490 LINE SMOOTH",
"181 1490 OFFCURVE",
"148 1457 OFFCURVE",
"148 1396 CURVE SMOOTH"
);
}
);
userData = {
assembly = "NPUSHB[ ]	/* 36 values pushed */\01228 19 7 3 2 0 1 76 1 1 0 0 103 77 5 4 3 3 2 2 104 2 78 0 0 0 32 0 32 24 17 26 17 6 12 26 \012CALL[ ]	/* CallFunction */";
};
width = 1756;
}
);
leftKerningGroup = B;
note = M;
rightKerningGroup = Ereversed;
unicode = 004D;
},
{
glyphname = Mturned;
lastChange = "2024-07-06 19:18:49 +0000";
layers = (
{
layerId = "D204E62E-96B3-40B8-A6C2-F0C74B8845CF";
paths = (
{
closed = 1;
nodes = (
"864.667 103.667 OFFCURVE",
"906 53.333 OFFCURVE",
"960 24 CURVE SMOOTH",
"1014 -5.333 OFFCURVE",
"1077.333 -20 OFFCURVE",
"1150 -20 CURVE SMOOTH",
"1220.667 -20 OFFCURVE",
"1281.5 -7.833 OFFCURVE",
"1332.5 16.5 CURVE SMOOTH",
"1383.5 40.833 OFFCURVE",
"1425.333 74.667 OFFCURVE",
"1458 118 CURVE",
"1461 59 LINE SMOOTH",
"1463 21 OFFCURVE",
"1496 0 OFFCURVE",
"1556 0 CURVE SMOOTH",
"1558 0 LINE SMOOTH",
"1619 0 OFFCURVE",
"1652 33 OFFCURVE",
"1652 94 CURVE SMOOTH",
"1652 1396 LINE SMOOTH",
"1652 1457 OFFCURVE",
"1619 1490 OFFCURVE",
"1558 1490 CURVE SMOOTH",
"1548 1490 LINE SMOOTH",
"1487 1490 OFFCURVE",
"1454 1457 OFFCURVE",
"1454 1396 CURVE SMOOTH",
"1454 361 LINE",
"1438 297 OFFCURVE",
"1408.667 245.167 OFFCURVE",
"1366 205.5 CURVE SMOOTH",
"1323.333 165.833 OFFCURVE",
"1262 146 OFFCURVE",
"1182 146 CURVE SMOOTH",
"1150.667 146 OFFCURVE",
"1120.5 154.167 OFFCURVE",
"1091.5 170.5 CURVE SMOOTH",
"1062.5 186.833 OFFCURVE",
"1038.667 216.333 OFFCURVE",
"1020 259 CURVE SMOOTH",
"1001.333 301.667 OFFCURVE",
"992 362.667 OFFCURVE",
"992 442 CURVE SMOOTH",
"992 1396 LINE SMOOTH",
"992 1457 OFFCURVE",
"959 1490 OFFCURVE",
"898 1490 CURVE SMOOTH",
"888 1490 LINE SMOOTH",
"827 1490 OFFCURVE",
"794 1457 OFFCURVE",
"794 1396 CURVE SMOOTH",
"794 442 LINE SMOOTH",
"794 414.667 OFFCURVE",
"795 388.333 OFFCURVE",
"797 363 CURVE",
"781 298.333 OFFCURVE",
"751 246 OFFCURVE",
"707 206 CURVE SMOOTH",
"663 166 OFFCURVE",
"600.667 146 OFFCURVE",
"520 146 CURVE SMOOTH",
"489.333 146 OFFCURVE",
"459.833 154.167 OFFCURVE",
"431.5 170.5 CURVE SMOOTH",
"403.167 186.833 OFFCURVE",
"380 216.333 OFFCURVE",
"362 259 CURVE SMOOTH",
"344 301.667 OFFCURVE",
"334.667 362.667 OFFCURVE",
"334 442 CURVE",
"334 1396 LINE SMOOTH",
"334 1457 OFFCURVE",
"301 1490 OFFCURVE",
"240 1490 CURVE SMOOTH",
"228 1490 LINE SMOOTH",
"167 1490 OFFCURVE",
"134 1457 OFFCURVE",
"134 1396 CURVE SMOOTH",
"134 442 LINE SMOOTH",
"134 326.667 OFFCURVE",
"148.5 235.333 OFFCURVE",
"177.5 168 CURVE SMOOTH",
"206.5 100.667 OFFCURVE",
"247.667 52.5 OFFCURVE",
"301 23.5 CURVE SMOOTH",
"354.333 -5.5 OFFCURVE",
"416.667 -20 OFFCURVE",
"488 -20 CURVE SMOOTH",
"573.333 -20 OFFCURVE",
"644.5 -2.667 OFFCURVE",
"701.5 32 CURVE SMOOTH",
"758.5 66.667 OFFCURVE",
"803.333 114.333 OFFCURVE",
"836 175 CURVE"
);
}
);
userData = {
assembly = "MPPEM[ ]	/* MeasurePixelPerEm */\012PUSHB[ ]	/* 1 value pushed */\01226 \012LT[ ]	/* LessThan */\012IF[ ]	/* If */\012NPUSHB[ ]	/* 10 values pushed */\01229 1 2 1 34 1 0 2 2 76 \012ELSE[ ]	/* Else */\012NPUSHB[ ]	/* 10 values pushed */\01229 1 2 1 34 1 6 2 2 76 \012EIF[ ]	/* EndIf */\012MPPEM[ ]	/* MeasurePixelPerEm */\012PUSHB[ ]	/* 1 value pushed */\01226 \012LT[ ]	/* LessThan */\012IF[ ]	/* If */\012NPUSHB[ ]	/* 21 values pushed */\0125 3 2 1 1 103 77 4 1 2 2 0 97 7 6 2 0 0 110 0 78 \012ELSE[ ]	/* Else */\012NPUSHB[ ]	/* 25 values pushed */\0125 3 2 1 1 103 77 0 6 6 104 77 4 1 2 2 0 97 7 1 0 0 110 0 78 \012EIF[ ]	/* EndIf */\012NPUSHB[ ]	/* 11 values pushed */\01235 17 19 36 21 36 20 34 8 12 30 \012CALL[ ]	/* CallFunction */";
};
width = 1786;
}
);
note = mcapturn;
unicode = 019C;
},
{
glyphname = N;
lastChange = "2024-07-06 19:18:49 +0000";
layers = (
{
layerId = "D204E62E-96B3-40B8-A6C2-F0C74B8845CF";
paths = (
{
closed = 1;
nodes = (
"148 94 LINE SMOOTH",
"148 33 OFFCURVE",
"180 0 OFFCURVE",
"238 0 CURVE SMOOTH",
"296 0 OFFCURVE",
"328 33 OFFCURVE",
"328 94 CURVE SMOOTH",
"328 864 LINE SMOOTH",
"328 896.667 OFFCURVE",
"327.333 944.833 OFFCURVE",
"326 1008.5 CURVE SMOOTH",
"324.667 1072.167 OFFCURVE",
"322.333 1150.333 OFFCURVE",
"319 1243 CURVE",
"372.333 1153.667 OFFCURVE",
"419.167 1075.833 OFFCURVE",
"459.5 1009.5 CURVE SMOOTH",
"499.833 943.167 OFFCURVE",
"530.333 894 OFFCURVE",
"551 862 CURVE SMOOTH",
"1058 62 LINE SMOOTH",
"1085 19 OFFCURVE",
"1120 0 OFFCURVE",
"1171 0 CURVE SMOOTH",
"1212 0 LINE SMOOTH",
"1273 0 OFFCURVE",
"1306 33 OFFCURVE",
"1306 94 CURVE SMOOTH",
"1306 1396 LINE SMOOTH",
"1306 1457 OFFCURVE",
"1274 1490 OFFCURVE",
"1216 1490 CURVE SMOOTH",
"1158 1490 OFFCURVE",
"1126 1457 OFFCURVE",
"1126 1396 CURVE SMOOTH",
"1126 528 LINE SMOOTH",
"1126 503.333 OFFCURVE",
"1126.5 463 OFFCURVE",
"1127.5 407 CURVE SMOOTH",
"1128.5 351 OFFCURVE",
"1130 297 OFFCURVE",
"1132 245 CURVE",
"1102 297.667 OFFCURVE",
"1071.667 349.667 OFFCURVE",
"1041 401 CURVE SMOOTH",
"1010.333 452.333 OFFCURVE",
"986.333 492 OFFCURVE",
"969 520 CURVE SMOOTH",
"394 1428 LINE SMOOTH",
"367 1471 OFFCURVE",
"332 1490 OFFCURVE",
"281 1490 CURVE SMOOTH",
"242 1490 LINE SMOOTH",
"181 1490 OFFCURVE",
"148 1457 OFFCURVE",
"148 1396 CURVE SMOOTH"
);
}
);
userData = {
assembly = "NPUSHB[ ]	/* 33 values pushed */\01217 6 2 2 0 1 76 1 1 0 0 103 77 4 3 2 2 2 104 2 78 0 0 0 21 0 21 17 24 17 5 12 25 \012CALL[ ]	/* CallFunction */";
};
width = 1454;
}
);
leftKerningGroup = B;
note = N;
rightKerningGroup = Ereversed;
unicode = 004E;
},
{
glyphname = Eng;
lastChange = "2024-07-06 19:18:49 +0000";
layers = (
{
layerId = "D204E62E-96B3-40B8-A6C2-F0C74B8845CF";
paths = (
{
closed = 1;
nodes = (
"912 -391 OFFCURVE",
"945 -418 OFFCURVE",
"1006 -418 CURVE SMOOTH",
"1022 -418 LINE SMOOTH",
"1114.667 -418 OFFCURVE",
"1185.167 -396.833 OFFCURVE",
"1233.5 -354.5 CURVE SMOOTH",
"1281.833 -312.167 OFFCURVE",
"1306 -250.667 OFFCURVE",
"1306 -170 CURVE SMOOTH",
"1306 1396 LINE SMOOTH",
"1306 1457 OFFCURVE",
"1274 1490 OFFCURVE",
"1216 1490 CURVE SMOOTH",
"1158 1490 OFFCURVE",
"1126 1457 OFFCURVE",
"1126 1396 CURVE SMOOTH",
"1126 528 LINE SMOOTH",
"1126 503.333 OFFCURVE",
"1126.5 463 OFFCURVE",
"1127.5 407 CURVE SMOOTH",
"1128.5 351 OFFCURVE",
"1130 297 OFFCURVE",
"1132 245 CURVE",
"1102 297.667 OFFCURVE",
"1071.667 349.667 OFFCURVE",
"1041 401 CURVE SMOOTH",
"1010.333 452.333 OFFCURVE",
"986.333 492 OFFCURVE",
"969 520 CURVE SMOOTH",
"394 1428 LINE SMOOTH",
"367 1471 OFFCURVE",
"332 1490 OFFCURVE",
"281 1490 CURVE SMOOTH",
"242 1490 LINE SMOOTH",
"181 1490 OFFCURVE",
"148 1457 OFFCURVE",
"148 1396 CURVE SMOOTH",
"148 94 LINE SMOOTH",
"148 33 OFFCURVE",
"180 0 OFFCURVE",
"238 0 CURVE SMOOTH",
"296 0 OFFCURVE",
"328 33 OFFCURVE",
"328 94 CURVE SMOOTH",
"328 864 LINE SMOOTH",
"328 896.667 OFFCURVE",
"327.333 944.833 OFFCURVE",
"326 1008.5 CURVE SMOOTH",
"324.667 1072.167 OFFCURVE",
"322.333 1150.333 OFFCURVE",
"319 1243 CURVE",
"372.333 1153.667 OFFCURVE",
"419.167 1075.833 OFFCURVE",
"459.5 1009.5 CURVE SMOOTH",
"499.833 943.167 OFFCURVE",
"530.333 894 OFFCURVE",
"551 862 CURVE SMOOTH",
"1058 62 LINE SMOOTH",
"1085 19 OFFCURVE",
"1106 0 OFFCURVE",
"1126 0 CURVE",
"1126 -162 LINE SMOOTH",
"1126 -197.333 OFFCURVE",
"1117.667 -222.833 OFFCURVE",
"1101 -238.5 CURVE SMOOTH",
"1084.333 -254.167 OFFCURVE",
"1054.667 -262 OFFCURVE",
"1012 -262 CURVE SMOOTH",
"1006 -262 LINE SMOOTH",
"945 -262 OFFCURVE",
"912 -290 OFFCURVE",
"912 -340 CURVE SMOOTH"
);
}
);
userData = {
assembly = "NPUSHB[ ]	/* 45 values pushed */\01222 11 2 1 3 1 76 4 1 3 3 103 77 2 1 1 1 104 77 0 0 0 5 97 6 1 5 5 108 5 78 0 0 0 31 0 30 24 17 24 19 33 7 12 27 \012CALL[ ]	/* CallFunction */";
};
width = 1454;
}
);
leftKerningGroup = B;
note = Eng;
rightKerningGroup = Ereversed;
unicode = 014A;
},
{
glyphname = Nhookleft;
lastChange = "2024-07-06 19:18:49 +0000";
layers = (
{
layerId = "D204E62E-96B3-40B8-A6C2-F0C74B8845CF";
paths = (
{
closed = 1;
nodes = (
"-66 -391 OFFCURVE",
"-33 -418 OFFCURVE",
"28 -418 CURVE SMOOTH",
"44 -418 LINE SMOOTH",
"136.667 -418 OFFCURVE",
"207.167 -396.833 OFFCURVE",
"255.5 -354.5 CURVE SMOOTH",
"303.833 -312.167 OFFCURVE",
"328 -250.667 OFFCURVE",
"328 -170 CURVE SMOOTH",
"328 864 LINE SMOOTH",
"328 896.667 OFFCURVE",
"327.333 944.833 OFFCURVE",
"326 1008.5 CURVE SMOOTH",
"324.667 1072.167 OFFCURVE",
"322.333 1150.333 OFFCURVE",
"319 1243 CURVE",
"372.333 1153.667 OFFCURVE",
"419.167 1075.833 OFFCURVE",
"459.5 1009.5 CURVE SMOOTH",
"499.833 943.167 OFFCURVE",
"530.333 894 OFFCURVE",
"551 862 CURVE SMOOTH",
"1058 62 LINE SMOOTH",
"1085 19 OFFCURVE",
"1120 0 OFFCURVE",
"1171 0 CURVE SMOOTH",
"1212 0 LINE SMOOTH",
"1273 0 OFFCURVE",
"1306 33 OFFCURVE",
"1306 94 CURVE SMOOTH",
"1306 1396 LINE SMOOTH",
"1306 1457 OFFCURVE",
"1274 1490 OFFCURVE",
"1216 1490 CURVE SMOOTH",
"1158 1490 OFFCURVE",
"1126 1457 OFFCURVE",
"1126 1396 CURVE SMOOTH",
"1126 528 LINE SMOOTH",
"1126 503.333 OFFCURVE",
"1126.5 463 OFFCURVE",
"1127.5 407 CURVE SMOOTH",
"1128.5 351 OFFCURVE",
"1130 297 OFFCURVE",
"1132 245 CURVE",
"1102 297.667 OFFCURVE",
"1071.667 349.667 OFFCURVE",
"1041 401 CURVE SMOOTH",
"1010.333 452.333 OFFCURVE",
"986.333 492 OFFCURVE",
"969 520 CURVE SMOOTH",
"394 1428 LINE SMOOTH",
"367 1471 OFFCURVE",
"332 1490 OFFCURVE",
"281 1490 CURVE SMOOTH",
"242 1490 LINE SMOOTH",
"181 1490 OFFCURVE",
"148 1457 OFFCURVE",
"148 1396 CURVE SMOOTH",
"148 -162 LINE SMOOTH",
"148 -197.333 OFFCURVE",
"139.667 -222.833 OFFCURVE",
"123 -238.5 CURVE SMOOTH",
"106.333 -254.167 OFFCURVE",
"76.667 -262 OFFCURVE",
"34 -262 CURVE SMOOTH",
"28 -262 LINE SMOOTH",
"-33 -262 OFFCURVE",
"-66 -290 OFFCURVE",
"-66 -340 CURVE SMOOTH"
);
}
);
userData = {
assembly = "NPUSHB[ ]	/* 43 values pushed */\01222 11 2 3 1 1 76 2 1 1 1 103 77 0 3 3 104 77 0 0 0 4 97 5 1 4 4 108 4 78 0 0 0 29 0 28 17 24 19 33 6 12 26 \012CALL[ ]	/* CallFunction */";
};
width = 1454;
}
);
leftKerningGroup = Fhook;
note = Nhook;
rightKerningGroup = Ereversed;
unicode = 019D;
},
{
glyphname = Nlongrightleg;
lastChange = "2024-07-06 19:18:49 +0000";
layers = (
{
layerId = "D204E62E-96B3-40B8-A6C2-F0C74B8845CF";
paths = (
{
closed = 1;
nodes = (
"1050 -416 LINE SMOOTH",
"1111 -416 OFFCURVE",
"1144 -383 OFFCURVE",
"1144 -322 CURVE SMOOTH",
"1144 1018 LINE SMOOTH",
"1144 1128 OFFCURVE",
"1119 1219.333 OFFCURVE",
"1069 1292 CURVE SMOOTH",
"1019 1364.667 OFFCURVE",
"953.667 1419.167 OFFCURVE",
"873 1455.5 CURVE SMOOTH",
"792.333 1491.833 OFFCURVE",
"706 1510 OFFCURVE",
"614 1510 CURVE SMOOTH",
"550 1510 OFFCURVE",
"490.167 1502.333 OFFCURVE",
"434.5 1487 CURVE SMOOTH",
"378.833 1471.667 OFFCURVE",
"329.333 1452.667 OFFCURVE",
"286 1430 CURVE",
"286 1460 LINE SMOOTH",
"286 1479 OFFCURVE",
"253 1490 OFFCURVE",
"192 1490 CURVE SMOOTH",
"182 1490 LINE SMOOTH",
"121 1490 OFFCURVE",
"88 1457 OFFCURVE",
"88 1396 CURVE SMOOTH",
"88 94 LINE SMOOTH",
"88 33 OFFCURVE",
"121 0 OFFCURVE",
"182 0 CURVE SMOOTH",
"192 0 LINE SMOOTH",
"253 0 OFFCURVE",
"286 33 OFFCURVE",
"286 94 CURVE SMOOTH",
"286 1270 LINE",
"328.667 1292.667 OFFCURVE",
"376.333 1310.667 OFFCURVE",
"429 1324 CURVE SMOOTH",
"481.667 1337.333 OFFCURVE",
"537.333 1344 OFFCURVE",
"596 1344 CURVE SMOOTH",
"706.667 1344 OFFCURVE",
"792.167 1318 OFFCURVE",
"852.5 1266 CURVE SMOOTH",
"912.833 1214 OFFCURVE",
"942.667 1131.333 OFFCURVE",
"942 1018 CURVE SMOOTH",
"942 -322 LINE SMOOTH",
"942 -383 OFFCURVE",
"975 -416 OFFCURVE",
"1036 -416 CURVE SMOOTH"
);
}
);
userData = {
assembly = "NPUSHB[ ]	/* 10 values pushed */\01213 1 1 3 8 1 2 1 2 76 \012MPPEM[ ]	/* MeasurePixelPerEm */\012PUSHB[ ]	/* 1 value pushed */\01226 \012LT[ ]	/* LessThan */\012IF[ ]	/* If */\012NPUSHB[ ]	/* 22 values pushed */\0120 1 1 3 97 4 1 3 3 103 77 0 2 2 104 77 0 0 0 108 0 78 \012ELSE[ ]	/* Else */\012NPUSHB[ ]	/* 26 values pushed */\0120 3 3 103 77 0 1 1 4 97 0 4 4 109 77 0 2 2 104 77 0 0 0 108 0 78 \012EIF[ ]	/* EndIf */\012PUSHB[ ]	/* 8 values pushed */\01235 17 19 35 16 5 12 27 \012CALL[ ]	/* CallFunction */";
};
width = 1228;
}
);
note = uni0220;
unicode = 0220;
},
{
glyphname = O;
lastChange = "2024-07-06 19:18:49 +0000";
layers = (
{
layerId = "D204E62E-96B3-40B8-A6C2-F0C74B8845CF";
paths = (
{
closed = 1;
nodes = (
"899 -24 OFFCURVE",
"1015.833 9 OFFCURVE",
"1117.5 75 CURVE SMOOTH",
"1219.167 141 OFFCURVE",
"1299 231.833 OFFCURVE",
"1357 347.5 CURVE SMOOTH",
"1415 463.167 OFFCURVE",
"1444 595.333 OFFCURVE",
"1444 744 CURVE SMOOTH",
"1444 894 OFFCURVE",
"1415 1026.833 OFFCURVE",
"1357 1142.5 CURVE SMOOTH",
"1299 1258.167 OFFCURVE",
"1219.167 1349 OFFCURVE",
"1117.5 1415 CURVE SMOOTH",
"1015.833 1481 OFFCURVE",
"899 1514 OFFCURVE",
"767 1514 CURVE SMOOTH",
"635.667 1514 OFFCURVE",
"519 1481 OFFCURVE",
"417 1415 CURVE SMOOTH",
"315 1349 OFFCURVE",
"235 1258.167 OFFCURVE",
"177 1142.5 CURVE SMOOTH",
"119 1026.833 OFFCURVE",
"90 894 OFFCURVE",
"90 744 CURVE SMOOTH",
"90 595.333 OFFCURVE",
"119 463.167 OFFCURVE",
"177 347.5 CURVE SMOOTH",
"235 231.833 OFFCURVE",
"315 141 OFFCURVE",
"417 75 CURVE SMOOTH",
"519 9 OFFCURVE",
"635.667 -24 OFFCURVE",
"767 -24 CURVE SMOOTH"
);
},
{
closed = 1;
nodes = (
"677 144 OFFCURVE",
"594.333 167.167 OFFCURVE",
"519 213.5 CURVE SMOOTH",
"443.667 259.833 OFFCURVE",
"383.333 327.667 OFFCURVE",
"338 417 CURVE SMOOTH",
"292.667 506.333 OFFCURVE",
"270 615.333 OFFCURVE",
"270 744 CURVE SMOOTH",
"270 873.333 OFFCURVE",
"292.667 982.833 OFFCURVE",
"338 1072.5 CURVE SMOOTH",
"383.333 1162.167 OFFCURVE",
"443.667 1230.167 OFFCURVE",
"519 1276.5 CURVE SMOOTH",
"594.333 1322.833 OFFCURVE",
"677 1346 OFFCURVE",
"767 1346 CURVE SMOOTH",
"857 1346 OFFCURVE",
"939.667 1322.833 OFFCURVE",
"1015 1276.5 CURVE SMOOTH",
"1090.333 1230.167 OFFCURVE",
"1150.667 1162.167 OFFCURVE",
"1196 1072.5 CURVE SMOOTH",
"1241.333 982.833 OFFCURVE",
"1264 873.333 OFFCURVE",
"1264 744 CURVE SMOOTH",
"1264 615.333 OFFCURVE",
"1241.333 506.333 OFFCURVE",
"1196 417 CURVE SMOOTH",
"1150.667 327.667 OFFCURVE",
"1090.333 259.833 OFFCURVE",
"1015 213.5 CURVE SMOOTH",
"939.667 167.167 OFFCURVE",
"857 144 OFFCURVE",
"767 144 CURVE SMOOTH"
);
}
);
userData = {
assembly = "MPPEM[ ]	/* MeasurePixelPerEm */\012PUSHB[ ]	/* 1 value pushed */\01250 \012LT[ ]	/* LessThan */\012IF[ ]	/* If */\012NPUSHB[ ]	/* 23 values pushed */\0120 3 3 1 97 0 1 1 109 77 5 1 2 2 0 97 4 1 0 0 110 0 78 \012ELSE[ ]	/* Else */\012NPUSHB[ ]	/* 21 values pushed */\0120 1 0 3 2 1 3 105 5 1 2 2 0 97 4 1 0 0 110 0 78 \012EIF[ ]	/* EndIf */\012NPUSHB[ ]	/* 19 values pushed */\01217 16 1 0 25 23 16 31 17 31 9 7 0 15 1 15 6 12 22 \012CALL[ ]	/* CallFunction */";
};
width = 1534;
}
);
leftKerningGroup = C;
note = O;
rightKerningGroup = Oopen;
unicode = 004F;
},
{
glyphname = OU;
lastChange = "2024-07-06 19:18:49 +0000";
layers = (
{
layerId = "D204E62E-96B3-40B8-A6C2-F0C74B8845CF";
paths = (
{
closed = 1;
nodes = (
"533.333 896 OFFCURVE",
"477.5 901.167 OFFCURVE",
"426.5 911.5 CURVE SMOOTH",
"375.5 921.833 OFFCURVE",
"334.333 943.667 OFFCURVE",
"303 977 CURVE SMOOTH",
"271.667 1010.333 OFFCURVE",
"256 1060.667 OFFCURVE",
"256 1128 CURVE SMOOTH",
"256 1192.667 OFFCURVE",
"272 1242.333 OFFCURVE",
"304 1277 CURVE SMOOTH",
"321 1296 OFFCURVE",
"343 1312 OFFCURVE",
"370 1325 CURVE SMOOTH",
"419 1349 OFFCURVE",
"446 1378 OFFCURVE",
"446 1431 CURVE SMOOTH",
"446 1481 OFFCURVE",
"408 1511 OFFCURVE",
"346 1496 CURVE SMOOTH",
"311 1488 OFFCURVE",
"278 1476 OFFCURVE",
"247 1461.5 CURVE SMOOTH",
"187 1433.167 OFFCURVE",
"139.167 1391.5 OFFCURVE",
"103.5 1336.5 CURVE SMOOTH",
"67.833 1281.5 OFFCURVE",
"50 1212 OFFCURVE",
"50 1128 CURVE SMOOTH",
"50 1042.667 OFFCURVE",
"68.667 973.5 OFFCURVE",
"106 920.5 CURVE SMOOTH",
"143.333 867.5 OFFCURVE",
"193 827 OFFCURVE",
"255 799 CURVE",
"191.667 762.333 OFFCURVE",
"141.667 713.5 OFFCURVE",
"105 652.5 CURVE SMOOTH",
"68.333 591.5 OFFCURVE",
"50 518.667 OFFCURVE",
"50 434 CURVE SMOOTH",
"50 332 OFFCURVE",
"74.333 247.333 OFFCURVE",
"123 180 CURVE SMOOTH",
"171.667 112.667 OFFCURVE",
"237.833 62.5 OFFCURVE",
"321.5 29.5 CURVE SMOOTH",
"405.167 -3.5 OFFCURVE",
"498.667 -20 OFFCURVE",
"602 -20 CURVE SMOOTH",
"626 -20 LINE SMOOTH",
"730 -20 OFFCURVE",
"823.667 -3.333 OFFCURVE",
"907 30 CURVE SMOOTH",
"990.333 63.333 OFFCURVE",
"1056.333 113.667 OFFCURVE",
"1105 181 CURVE SMOOTH",
"1153.667 248.333 OFFCURVE",
"1178 333.333 OFFCURVE",
"1178 436 CURVE SMOOTH",
"1178 520 OFFCURVE",
"1159.667 592.333 OFFCURVE",
"1123 653 CURVE SMOOTH",
"1086.333 713.667 OFFCURVE",
"1036.667 762.333 OFFCURVE",
"974 799 CURVE",
"1035.333 827 OFFCURVE",
"1084.667 867.5 OFFCURVE",
"1122 920.5 CURVE SMOOTH",
"1159.333 973.5 OFFCURVE",
"1178 1042.667 OFFCURVE",
"1178 1128 CURVE SMOOTH",
"1178 1212 OFFCURVE",
"1160.5 1281.5 OFFCURVE",
"1125.5 1336.5 CURVE SMOOTH",
"1090.5 1391.5 OFFCURVE",
"1043 1433.167 OFFCURVE",
"983 1461.5 CURVE SMOOTH",
"951 1476 OFFCURVE",
"918 1488 OFFCURVE",
"882 1496 CURVE SMOOTH",
"820 1511 OFFCURVE",
"782 1481 OFFCURVE",
"782 1431 CURVE SMOOTH",
"782 1378 OFFCURVE",
"809 1350 OFFCURVE",
"859 1325 CURVE SMOOTH",
"885 1312 OFFCURVE",
"907 1296 OFFCURVE",
"924.5 1277 CURVE SMOOTH",
"956.167 1242.333 OFFCURVE",
"972 1192.667 OFFCURVE",
"972 1128 CURVE SMOOTH",
"972 1060.667 OFFCURVE",
"956.5 1010.333 OFFCURVE",
"925.5 977 CURVE SMOOTH",
"894.5 943.667 OFFCURVE",
"853.5 921.833 OFFCURVE",
"802.5 911.5 CURVE SMOOTH",
"751.5 901.167 OFFCURVE",
"695.333 896 OFFCURVE",
"634 896 CURVE SMOOTH",
"594 896 LINE SMOOTH"
);
},
{
closed = 1;
nodes = (
"730.667 724 OFFCURVE",
"814.5 700.333 OFFCURVE",
"877.5 653 CURVE SMOOTH",
"940.5 605.667 OFFCURVE",
"972 533.333 OFFCURVE",
"972 436 CURVE SMOOTH",
"972 336 OFFCURVE",
"940.5 263.5 OFFCURVE",
"877.5 218.5 CURVE SMOOTH",
"814.5 173.5 OFFCURVE",
"730.667 151.333 OFFCURVE",
"626 152 CURVE SMOOTH",
"602 152 LINE SMOOTH",
"497.333 152 OFFCURVE",
"413.5 174.333 OFFCURVE",
"350.5 219 CURVE SMOOTH",
"287.5 263.667 OFFCURVE",
"256 335.333 OFFCURVE",
"256 434 CURVE SMOOTH",
"256 532.667 OFFCURVE",
"287.5 605.667 OFFCURVE",
"350.5 653 CURVE SMOOTH",
"413.5 700.333 OFFCURVE",
"497.333 724 OFFCURVE",
"602 724 CURVE SMOOTH",
"626 724 LINE SMOOTH"
);
}
);
userData = {
assembly = "NPUSHB[ ]	/* 62 values pushed */\01239 8 2 0 1 31 16 2 4 0 2 76 6 1 0 7 1 4 5 0 4 105 3 1 1 1 109 77 0 5 5 2 97 0 2 2 110 2 78 48 46 2 0 55 52 46 59 48 59 38 37 25 22 10 9 0 45 2 45 8 12 22 \012CALL[ ]	/* CallFunction */";
};
width = 1228;
}
);
note = uni0222;
unicode = 0222;
},
{
glyphname = Ohorn;
lastChange = "2024-07-06 19:18:49 +0000";
layers = (
{
layerId = "D204E62E-96B3-40B8-A6C2-F0C74B8845CF";
paths = (
{
closed = 1;
nodes = (
"899 -24 OFFCURVE",
"1015.833 9 OFFCURVE",
"1117.5 75 CURVE SMOOTH",
"1219.167 141 OFFCURVE",
"1299 231.833 OFFCURVE",
"1357 347.5 CURVE SMOOTH",
"1415 463.167 OFFCURVE",
"1444 595.333 OFFCURVE",
"1444 744 CURVE SMOOTH",
"1444 872 OFFCURVE",
"1422.333 988.333 OFFCURVE",
"1379 1093 CURVE SMOOTH",
"1335.667 1197.667 OFFCURVE",
"1275.667 1284 OFFCURVE",
"1199 1352 CURVE",
"1235 1350.5 LINE",
"1274 1350 LINE SMOOTH",
"1387.333 1350 OFFCURVE",
"1444 1406.667 OFFCURVE",
"1444 1520 CURVE SMOOTH",
"1444 1636 LINE SMOOTH",
"1444 1697 OFFCURVE",
"1414 1730 OFFCURVE",
"1359 1730 CURVE SMOOTH",
"1304 1730 OFFCURVE",
"1274 1697 OFFCURVE",
"1274 1636 CURVE SMOOTH",
"1274 1508 LINE SMOOTH",
"1274 1496 OFFCURVE",
"1268 1490 OFFCURVE",
"1256 1490 CURVE SMOOTH",
"1181.333 1490 OFFCURVE",
"1121.167 1491.167 OFFCURVE",
"1075.5 1493.5 CURVE SMOOTH",
"1029.833 1495.833 OFFCURVE",
"991.5 1498.667 OFFCURVE",
"960.5 1502 CURVE SMOOTH",
"929.5 1505.333 OFFCURVE",
"899.667 1508.167 OFFCURVE",
"871 1510.5 CURVE SMOOTH",
"842.333 1512.833 OFFCURVE",
"807.667 1514 OFFCURVE",
"767 1514 CURVE SMOOTH",
"635.667 1514 OFFCURVE",
"519 1481 OFFCURVE",
"417 1415 CURVE SMOOTH",
"315 1349 OFFCURVE",
"235 1258.167 OFFCURVE",
"177 1142.5 CURVE SMOOTH",
"119 1026.833 OFFCURVE",
"90 894 OFFCURVE",
"90 744 CURVE SMOOTH",
"90 595.333 OFFCURVE",
"119 463.167 OFFCURVE",
"177 347.5 CURVE SMOOTH",
"235 231.833 OFFCURVE",
"315 141 OFFCURVE",
"417 75 CURVE SMOOTH",
"519 9 OFFCURVE",
"635.667 -24 OFFCURVE",
"767 -24 CURVE SMOOTH"
);
},
{
closed = 1;
nodes = (
"677 144 OFFCURVE",
"594.333 167.167 OFFCURVE",
"519 213.5 CURVE SMOOTH",
"443.667 259.833 OFFCURVE",
"383.333 327.667 OFFCURVE",
"338 417 CURVE SMOOTH",
"292.667 506.333 OFFCURVE",
"270 615.333 OFFCURVE",
"270 744 CURVE SMOOTH",
"270 873.333 OFFCURVE",
"292.667 982.833 OFFCURVE",
"338 1072.5 CURVE SMOOTH",
"383.333 1162.167 OFFCURVE",
"443.667 1230.167 OFFCURVE",
"519 1276.5 CURVE SMOOTH",
"594.333 1322.833 OFFCURVE",
"677 1346 OFFCURVE",
"767 1346 CURVE SMOOTH",
"857 1346 OFFCURVE",
"939.667 1322.833 OFFCURVE",
"1015 1276.5 CURVE SMOOTH",
"1090.333 1230.167 OFFCURVE",
"1150.667 1162.167 OFFCURVE",
"1196 1072.5 CURVE SMOOTH",
"1241.333 982.833 OFFCURVE",
"1264 873.333 OFFCURVE",
"1264 744 CURVE SMOOTH",
"1264 615.333 OFFCURVE",
"1241.333 506.333 OFFCURVE",
"1196 417 CURVE SMOOTH",
"1150.667 327.667 OFFCURVE",
"1090.333 259.833 OFFCURVE",
"1015 213.5 CURVE SMOOTH",
"939.667 167.167 OFFCURVE",
"857 144 OFFCURVE",
"767 144 CURVE SMOOTH"
);
}
);
userData = {
assembly = "MPPEM[ ]	/* MeasurePixelPerEm */\012PUSHB[ ]	/* 1 value pushed */\01224 \012LT[ ]	/* LessThan */\012IF[ ]	/* If */\012PUSHB[ ]	/* 6 values pushed */\01215 1 4 1 1 76 \012ELSE[ ]	/* Else */\012PUSHB[ ]	/* 6 values pushed */\01215 1 2 1 1 76 \012EIF[ ]	/* EndIf */\012MPPEM[ ]	/* MeasurePixelPerEm */\012PUSHB[ ]	/* 1 value pushed */\01212 \012LT[ ]	/* LessThan */\012IF[ ]	/* If */\012NPUSHB[ ]	/* 31 values pushed */\0120 3 1 1 3 112 6 1 4 4 1 97 2 1 1 1 109 77 8 1 5 5 0 97 7 1 0 0 110 0 78 \012ELSE[ ]	/* Else */\012MPPEM[ ]	/* MeasurePixelPerEm */\012PUSHB[ ]	/* 1 value pushed */\01224 \012LT[ ]	/* LessThan */\012IF[ ]	/* If */\012NPUSHB[ ]	/* 30 values pushed */\0120 3 1 3 133 6 1 4 4 1 97 2 1 1 1 109 77 8 1 5 5 0 97 7 1 0 0 110 0 78 \012ELSE[ ]	/* Else */\012MPPEM[ ]	/* MeasurePixelPerEm */\012PUSHB[ ]	/* 1 value pushed */\01250 \012LT[ ]	/* LessThan */\012IF[ ]	/* If */\012NPUSHB[ ]	/* 40 values pushed */\0120 3 1 3 133 6 1 4 4 1 97 0 1 1 109 77 6 1 4 4 2 97 0 2 2 109 77 8 1 5 5 0 97 7 1 0 0 110 0 78 \012ELSE[ ]	/* Else */\012NPUSHB[ ]	/* 35 values pushed */\0120 3 1 3 133 0 1 2 4 1 89 6 1 4 4 2 97 0 2 2 109 77 8 1 5 5 0 97 7 1 0 0 110 0 78 \012EIF[ ]	/* EndIf */\012EIF[ ]	/* EndIf */\012EIF[ ]	/* EndIf */\012NPUSHB[ ]	/* 25 values pushed */\01231 30 1 0 39 37 30 45 31 45 22 19 17 16 13 11 9 7 0 29 1 29 9 12 22 \012CALL[ ]	/* CallFunction */";
};
width = 1534;
}
);
leftKerningGroup = C;
note = Ohorn;
rightKerningGroup = Ohorn;
unicode = 01A0;
},
{
glyphname = Oi;
lastChange = "2024-07-06 19:18:49 +0000";
layers = (
{
layerId = "D204E62E-96B3-40B8-A6C2-F0C74B8845CF";
paths = (
{
closed = 1;
nodes = (
"1556 1396 LINE SMOOTH",
"1556 1457 OFFCURVE",
"1523 1490 OFFCURVE",
"1462 1490 CURVE SMOOTH",
"1419 1490 OFFCURVE",
"1386 1483 OFFCURVE",
"1346 1467 CURVE SMOOTH",
"1133 1380 LINE",
"1083 1420.667 OFFCURVE",
"1023 1452.5 OFFCURVE",
"953 1475.5 CURVE SMOOTH",
"883 1498.5 OFFCURVE",
"808.667 1510 OFFCURVE",
"730 1510 CURVE SMOOTH",
"596.667 1510 OFFCURVE",
"482.167 1482.167 OFFCURVE",
"386.5 1426.5 CURVE SMOOTH",
"290.833 1370.833 OFFCURVE",
"217.5 1291 OFFCURVE",
"166.5 1187 CURVE SMOOTH",
"115.5 1083 OFFCURVE",
"90 958 OFFCURVE",
"90 812 CURVE SMOOTH",
"90 678 LINE SMOOTH",
"90 535.333 OFFCURVE",
"114.667 411.667 OFFCURVE",
"164 307 CURVE SMOOTH",
"213.333 202.333 OFFCURVE",
"284.5 121.667 OFFCURVE",
"377.5 65 CURVE SMOOTH",
"470.5 8.333 OFFCURVE",
"582 -20 OFFCURVE",
"712 -20 CURVE SMOOTH",
"821.333 -20 OFFCURVE",
"921.167 -0.833 OFFCURVE",
"1011.5 37.5 CURVE SMOOTH",
"1078 66 OFFCURVE",
"1133 103 OFFCURVE",
"1175 148 CURVE SMOOTH",
"1206 182 OFFCURVE",
"1214 216 OFFCURVE",
"1214 262 CURVE SMOOTH",
"1214 1241 LINE",
"1356 1292 LINE",
"1356 -324 LINE SMOOTH",
"1356 -385 OFFCURVE",
"1389 -418 OFFCURVE",
"1450 -418 CURVE SMOOTH",
"1462 -418 LINE SMOOTH",
"1523 -418 OFFCURVE",
"1556 -385 OFFCURVE",
"1556 -324 CURVE SMOOTH"
);
},
{
closed = 1;
nodes = (
"296 812 LINE SMOOTH",
"296 985.333 OFFCURVE",
"332.5 1117 OFFCURVE",
"405.5 1207 CURVE SMOOTH",
"478.5 1297 OFFCURVE",
"586 1342 OFFCURVE",
"728 1342 CURVE SMOOTH",
"789.333 1342 OFFCURVE",
"845.5 1332.5 OFFCURVE",
"896.5 1313.5 CURVE SMOOTH",
"947.5 1294.5 OFFCURVE",
"987.333 1268.667 OFFCURVE",
"1016 1236 CURVE",
"1016 250 LINE",
"983.333 215.333 OFFCURVE",
"941.333 189.333 OFFCURVE",
"890 172 CURVE SMOOTH",
"838.667 154.667 OFFCURVE",
"783.333 146 OFFCURVE",
"724 146 CURVE SMOOTH",
"582 146 OFFCURVE",
"475.333 192.667 OFFCURVE",
"404 286 CURVE SMOOTH",
"332.667 379.333 OFFCURVE",
"296.667 510 OFFCURVE",
"296 678 CURVE"
);
}
);
userData = {
assembly = "MPPEM[ ]	/* MeasurePixelPerEm */\012PUSHB[ ]	/* 1 value pushed */\01226 \012LT[ ]	/* LessThan */\012IF[ ]	/* If */\012NPUSHB[ ]	/* 14 values pushed */\01220 1 5 2 30 29 5 4 3 5 4 5 2 76 \012ELSE[ ]	/* Else */\012NPUSHB[ ]	/* 14 values pushed */\01220 1 5 3 30 29 5 4 3 5 4 5 2 76 \012EIF[ ]	/* EndIf */\012MPPEM[ ]	/* MeasurePixelPerEm */\012PUSHB[ ]	/* 1 value pushed */\01226 \012LT[ ]	/* LessThan */\012IF[ ]	/* If */\012NPUSHB[ ]	/* 28 values pushed */\0120 5 5 2 97 6 3 2 2 2 109 77 0 4 4 1 97 0 1 1 110 77 0 0 0 108 0 78 \012ELSE[ ]	/* Else */\012NPUSHB[ ]	/* 32 values pushed */\0126 1 3 3 103 77 0 5 5 2 97 0 2 2 109 77 0 4 4 1 97 0 1 1 110 77 0 0 0 108 0 78 \012EIF[ ]	/* EndIf */\012NPUSHB[ ]	/* 16 values pushed */\0120 0 34 32 27 25 0 21 0 21 39 37 17 7 12 25 \012CALL[ ]	/* CallFunction */";
};
width = 1704;
}
);
note = OI;
unicode = 01A2;
},
{
glyphname = Oopen;
lastChange = "2024-07-06 19:18:49 +0000";
layers = (
{
layerId = "D204E62E-96B3-40B8-A6C2-F0C74B8845CF";
paths = (
{
closed = 1;
nodes = (
"596 1514 OFFCURVE",
"501 1493.5 OFFCURVE",
"415 1452.5 CURVE SMOOTH",
"329 1411.5 OFFCURVE",
"257.167 1353.333 OFFCURVE",
"199.5 1278 CURVE SMOOTH",
"162 1229 OFFCURVE",
"133 1175 OFFCURVE",
"113 1115 CURVE SMOOTH",
"91 1051 OFFCURVE",
"125 1010 OFFCURVE",
"187 1010 CURVE SMOOTH",
"242 1010 OFFCURVE",
"273 1036 OFFCURVE",
"294 1088 CURVE SMOOTH",
"322 1159 OFFCURVE",
"366 1216 OFFCURVE",
"423 1259 CURVE SMOOTH",
"500.333 1317 OFFCURVE",
"592.667 1346 OFFCURVE",
"700 1346 CURVE SMOOTH",
"804.667 1346 OFFCURVE",
"895 1320.667 OFFCURVE",
"971 1270 CURVE SMOOTH",
"1047 1219.333 OFFCURVE",
"1105.667 1148.833 OFFCURVE",
"1147 1058.5 CURVE SMOOTH",
"1188.333 968.167 OFFCURVE",
"1209 864 OFFCURVE",
"1209 746 CURVE SMOOTH",
"1209 627.333 OFFCURVE",
"1188.333 522.833 OFFCURVE",
"1147 432.5 CURVE SMOOTH",
"1105.667 342.167 OFFCURVE",
"1047 271.5 OFFCURVE",
"971 220.5 CURVE SMOOTH",
"895 169.5 OFFCURVE",
"804.667 144 OFFCURVE",
"700 144 CURVE SMOOTH",
"591.333 144 OFFCURVE",
"498.5 173.167 OFFCURVE",
"421.5 231.5 CURVE SMOOTH",
"364 275 OFFCURVE",
"322 332 OFFCURVE",
"294 403 CURVE SMOOTH",
"273 456 OFFCURVE",
"243 482 OFFCURVE",
"188 482 CURVE SMOOTH",
"178 482 LINE SMOOTH",
"121 482 OFFCURVE",
"91 441 OFFCURVE",
"113 377 CURVE SMOOTH",
"134 317 OFFCURVE",
"163 262 OFFCURVE",
"200 213 CURVE SMOOTH",
"257.333 137 OFFCURVE",
"329 78.5 OFFCURVE",
"415 37.5 CURVE SMOOTH",
"501 -3.5 OFFCURVE",
"596 -24 OFFCURVE",
"700 -24 CURVE SMOOTH",
"838 -24 OFFCURVE",
"958.667 8.833 OFFCURVE",
"1062 74.5 CURVE SMOOTH",
"1165.333 140.167 OFFCURVE",
"1245.667 231 OFFCURVE",
"1303 347 CURVE SMOOTH",
"1360.333 463 OFFCURVE",
"1389 596 OFFCURVE",
"1389 746 CURVE SMOOTH",
"1389 895.333 OFFCURVE",
"1360.167 1027.833 OFFCURVE",
"1302.5 1143.5 CURVE SMOOTH",
"1244.833 1259.167 OFFCURVE",
"1164.333 1349.833 OFFCURVE",
"1061 1415.5 CURVE SMOOTH",
"957.667 1481.167 OFFCURVE",
"837.333 1514 OFFCURVE",
"700 1514 CURVE SMOOTH"
);
}
);
userData = {
assembly = "MPPEM[ ]	/* MeasurePixelPerEm */\012PUSHB[ ]	/* 1 value pushed */\01250 \012LT[ ]	/* LessThan */\012IF[ ]	/* If */\012NPUSHB[ ]	/* 37 values pushed */\0120 5 4 2 4 5 2 128 0 2 3 4 2 3 126 0 4 4 0 97 6 1 0 0 109 77 0 3 3 1 97 0 1 1 110 1 78 \012ELSE[ ]	/* Else */\012NPUSHB[ ]	/* 35 values pushed */\0120 5 4 2 4 5 2 128 0 2 3 4 2 3 126 6 1 0 0 4 5 0 4 105 0 3 3 1 97 0 1 1 110 1 78 \012EIF[ ]	/* EndIf */\012NPUSHB[ ]	/* 19 values pushed */\0121 0 28 27 25 23 17 15 13 12 9 7 0 31 1 31 7 12 22 \012CALL[ ]	/* CallFunction */";
};
width = 1479;
}
);
leftKerningGroup = C;
note = uni0186;
rightKerningGroup = Oopen;
unicode = 0186;
},
{
glyphname = OE;
lastChange = "2024-07-06 19:18:49 +0000";
layers = (
{
layerId = "D204E62E-96B3-40B8-A6C2-F0C74B8845CF";
paths = (
{
closed = 1;
nodes = (
"1859 0 LINE SMOOTH",
"1920 0 OFFCURVE",
"1953 28 OFFCURVE",
"1953 80 CURVE SMOOTH",
"1953 132 OFFCURVE",
"1920 160 OFFCURVE",
"1859 160 CURVE SMOOTH",
"1164 160 LINE",
"1164 683 LINE",
"1801 683 LINE SMOOTH",
"1862 683 OFFCURVE",
"1895 711 OFFCURVE",
"1895 763 CURVE SMOOTH",
"1895 815 OFFCURVE",
"1862 843 OFFCURVE",
"1801 843 CURVE SMOOTH",
"1164 843 LINE",
"1164 1330 LINE",
"1859 1330 LINE SMOOTH",
"1920 1330 OFFCURVE",
"1953 1358 OFFCURVE",
"1953 1410 CURVE SMOOTH",
"1953 1462 OFFCURVE",
"1920 1490 OFFCURVE",
"1859 1490 CURVE SMOOTH",
"780 1490 LINE SMOOTH",
"635.333 1490 OFFCURVE",
"511.5 1460.333 OFFCURVE",
"408.5 1401 CURVE SMOOTH",
"305.5 1341.667 OFFCURVE",
"226.667 1256.5 OFFCURVE",
"172 1145.5 CURVE SMOOTH",
"117.333 1034.5 OFFCURVE",
"90 902 OFFCURVE",
"90 748 CURVE SMOOTH",
"90 592.667 OFFCURVE",
"117.667 459.167 OFFCURVE",
"173 347.5 CURVE SMOOTH",
"228.333 235.833 OFFCURVE",
"308.833 150 OFFCURVE",
"414.5 90 CURVE SMOOTH",
"520.167 30 OFFCURVE",
"648.667 0 OFFCURVE",
"800 0 CURVE SMOOTH"
);
},
{
closed = 1;
nodes = (
"984 160 LINE",
"812 160 LINE SMOOTH",
"627.333 160 OFFCURVE",
"489.833 212.5 OFFCURVE",
"399.5 317.5 CURVE SMOOTH",
"309.167 422.5 OFFCURVE",
"264 566 OFFCURVE",
"264 748 CURVE SMOOTH",
"264 928 OFFCURVE",
"308.333 1070 OFFCURVE",
"397 1174 CURVE SMOOTH",
"485.667 1278 OFFCURVE",
"617.333 1330 OFFCURVE",
"792 1330 CURVE SMOOTH",
"984 1330 LINE"
);
}
);
userData = {
assembly = "NPUSHB[ ]	/* 60 values pushed */\0120 3 0 4 5 3 4 103 6 1 2 2 1 95 0 1 1 103 77 9 7 2 5 5 0 95 8 1 0 0 104 0 78 19 19 1 0 19 27 19 26 22 20 17 16 15 14 13 12 11 10 9 7 0 18 1 18 10 12 22 \012CALL[ ]	/* CallFunction */";
};
width = 2023;
}
);
leftKerningGroup = C;
note = OE;
rightKerningGroup = AE;
unicode = 0152;
},
{
glyphname = P;
lastChange = "2024-07-06 19:18:49 +0000";
layers = (
{
layerId = "D204E62E-96B3-40B8-A6C2-F0C74B8845CF";
paths = (
{
closed = 1;
nodes = (
"148 94 LINE SMOOTH",
"148 33 OFFCURVE",
"180 0 OFFCURVE",
"238 0 CURVE SMOOTH",
"296 0 OFFCURVE",
"328 33 OFFCURVE",
"328 94 CURVE SMOOTH",
"328 585 LINE",
"674 585 LINE SMOOTH",
"778 585 OFFCURVE",
"868.5 603.5 OFFCURVE",
"945.5 640.5 CURVE SMOOTH",
"1022.5 677.5 OFFCURVE",
"1082.167 729.833 OFFCURVE",
"1124.5 797.5 CURVE SMOOTH",
"1166.833 865.167 OFFCURVE",
"1188 945.333 OFFCURVE",
"1188 1038 CURVE SMOOTH",
"1188 1177.333 OFFCURVE",
"1142.5 1287.5 OFFCURVE",
"1051.5 1368.5 CURVE SMOOTH",
"960.5 1449.5 OFFCURVE",
"837.333 1490 OFFCURVE",
"682 1490 CURVE SMOOTH",
"242 1490 LINE SMOOTH",
"181 1490 OFFCURVE",
"148 1457 OFFCURVE",
"148 1396 CURVE SMOOTH"
);
},
{
closed = 1;
nodes = (
"328 745 LINE",
"328 1330 LINE",
"676 1330 LINE SMOOTH",
"779.333 1330 OFFCURVE",
"860.833 1304 OFFCURVE",
"920.5 1252 CURVE SMOOTH",
"980.167 1200 OFFCURVE",
"1010 1128.667 OFFCURVE",
"1010 1038 CURVE SMOOTH",
"1010 947.333 OFFCURVE",
"980.167 875.833 OFFCURVE",
"920.5 823.5 CURVE SMOOTH",
"860.833 771.167 OFFCURVE",
"779.333 745 OFFCURVE",
"676 745 CURVE SMOOTH"
);
}
);
userData = {
assembly = "NPUSHB[ ]	/* 40 values pushed */\0120 3 0 1 2 3 1 103 0 4 4 0 95 0 0 0 103 77 5 1 2 2 104 2 78 0 0 20 18 14 12 0 11 0 11 37 33 6 12 24 \012CALL[ ]	/* CallFunction */";
};
width = 1253;
}
);
leftKerningGroup = B;
note = P;
rightKerningGroup = P;
unicode = 0050;
},
{
glyphname = Phook;
lastChange = "2024-07-06 19:18:49 +0000";
layers = (
{
layerId = "D204E62E-96B3-40B8-A6C2-F0C74B8845CF";
paths = (
{
closed = 1;
nodes = (
"44 1144 LINE SMOOTH",
"44 1083 OFFCURVE",
"73 1050 OFFCURVE",
"127 1050 CURVE SMOOTH",
"181 1050 OFFCURVE",
"210 1083 OFFCURVE",
"210 1144 CURVE SMOOTH",
"210 1230 LINE SMOOTH",
"210 1265.333 OFFCURVE",
"219 1290.833 OFFCURVE",
"237 1306.5 CURVE SMOOTH",
"255 1322.167 OFFCURVE",
"285.333 1330 OFFCURVE",
"328 1330 CURVE SMOOTH",
"428 1330 LINE",
"428 94 LINE SMOOTH",
"428 33 OFFCURVE",
"460 0 OFFCURVE",
"518 0 CURVE SMOOTH",
"576 0 OFFCURVE",
"608 33 OFFCURVE",
"608 94 CURVE SMOOTH",
"608 585 LINE",
"954 585 LINE SMOOTH",
"1058 585 OFFCURVE",
"1148.5 603.5 OFFCURVE",
"1225.5 640.5 CURVE SMOOTH",
"1302.5 677.5 OFFCURVE",
"1362.167 729.833 OFFCURVE",
"1404.5 797.5 CURVE SMOOTH",
"1446.833 865.167 OFFCURVE",
"1468 945.333 OFFCURVE",
"1468 1038 CURVE SMOOTH",
"1468 1177.333 OFFCURVE",
"1422.5 1287.5 OFFCURVE",
"1331.5 1368.5 CURVE SMOOTH",
"1240.5 1449.5 OFFCURVE",
"1117.333 1490 OFFCURVE",
"962 1490 CURVE SMOOTH",
"328 1490 LINE SMOOTH",
"138.667 1490 OFFCURVE",
"44 1404.667 OFFCURVE",
"44 1234 CURVE SMOOTH"
);
},
{
closed = 1;
nodes = (
"608 745 LINE",
"608 1330 LINE",
"956 1330 LINE SMOOTH",
"1059.333 1330 OFFCURVE",
"1140.833 1304 OFFCURVE",
"1200.5 1252 CURVE SMOOTH",
"1260.167 1200 OFFCURVE",
"1290 1128.667 OFFCURVE",
"1290 1038 CURVE SMOOTH",
"1290 947.333 OFFCURVE",
"1260.167 875.833 OFFCURVE",
"1200.5 823.5 CURVE SMOOTH",
"1140.833 771.167 OFFCURVE",
"1059.333 745 OFFCURVE",
"956 745 CURVE SMOOTH"
);
}
);
userData = {
assembly = "NPUSHB[ ]	/* 51 values pushed */\0127 1 4 3 5 3 4 5 128 0 5 0 1 2 5 1 103 6 1 3 3 0 95 0 0 0 103 77 0 2 2 104 2 78 0 0 29 27 23 21 0 20 0 20 33 17 37 50 8 12 26 \012CALL[ ]	/* CallFunction */";
};
width = 1533;
}
);
leftKerningGroup = B;
note = uni01A4;
rightKerningGroup = P;
unicode = 01A4;
},
{
glyphname = Thorn;
lastChange = "2024-07-06 19:18:49 +0000";
layers = (
{
layerId = "D204E62E-96B3-40B8-A6C2-F0C74B8845CF";
paths = (
{
closed = 1;
nodes = (
"168 1490 OFFCURVE",
"136 1457 OFFCURVE",
"136 1396 CURVE SMOOTH",
"136 94 LINE SMOOTH",
"136 33 OFFCURVE",
"168 0 OFFCURVE",
"227 0 CURVE SMOOTH",
"286 0 OFFCURVE",
"318 33 OFFCURVE",
"318 94 CURVE SMOOTH",
"318 326 LINE",
"606 326 LINE SMOOTH",
"711.333 326 OFFCURVE",
"800.5 345.333 OFFCURVE",
"873.5 384 CURVE SMOOTH",
"946.5 422.667 OFFCURVE",
"1001.833 474.333 OFFCURVE",
"1039.5 539 CURVE SMOOTH",
"1077.167 603.667 OFFCURVE",
"1096 675.333 OFFCURVE",
"1096 754 CURVE SMOOTH",
"1096 832.667 OFFCURVE",
"1077.167 904.333 OFFCURVE",
"1039.5 969 CURVE SMOOTH",
"1001.833 1033.667 OFFCURVE",
"946.5 1085.333 OFFCURVE",
"873.5 1124 CURVE SMOOTH",
"800.5 1162.667 OFFCURVE",
"711.333 1182 OFFCURVE",
"606 1182 CURVE SMOOTH",
"318 1182 LINE",
"318 1396 LINE SMOOTH",
"318 1457 OFFCURVE",
"286 1490 OFFCURVE",
"227 1490 CURVE SMOOTH"
);
},
{
closed = 1;
nodes = (
"318 486 LINE",
"318 1022 LINE",
"606 1022 LINE SMOOTH",
"709.333 1022 OFFCURVE",
"788.5 997.833 OFFCURVE",
"843.5 949.5 CURVE SMOOTH",
"898.5 901.167 OFFCURVE",
"926 834.667 OFFCURVE",
"926 750 CURVE SMOOTH",
"926 666 OFFCURVE",
"898.5 601 OFFCURVE",
"843.5 555 CURVE SMOOTH",
"788.5 509 OFFCURVE",
"709.333 486 OFFCURVE",
"606 486 CURVE SMOOTH"
);
}
);
userData = {
assembly = "NPUSHB[ ]	/* 36 values pushed */\0120 1 0 5 4 1 5 103 0 4 0 2 3 4 2 103 0 0 0 103 77 0 3 3 104 3 78 36 33 17 38 33 16 6 12 28 \012CALL[ ]	/* CallFunction */";
};
width = 1228;
}
);
leftKerningGroup = B;
note = Thorn;
unicode = 00DE;
},
{
glyphname = Q;
lastChange = "2024-07-06 19:18:49 +0000";
layers = (
{
layerId = "D204E62E-96B3-40B8-A6C2-F0C74B8845CF";
paths = (
{
closed = 1;
nodes = (
"857.667 -24 OFFCURVE",
"943 -7.333 OFFCURVE",
"1023 26 CURVE",
"1103 -82 LINE SMOOTH",
"1133 -123 OFFCURVE",
"1168 -140 OFFCURVE",
"1218 -140 CURVE SMOOTH",
"1245 -140 LINE SMOOTH",
"1299 -140 OFFCURVE",
"1305 -88 OFFCURVE",
"1258 -25 CURVE SMOOTH",
"1160 105 LINE",
"1248 171.667 OFFCURVE",
"1317.333 260.167 OFFCURVE",
"1368 370.5 CURVE SMOOTH",
"1418.667 480.833 OFFCURVE",
"1444 605.333 OFFCURVE",
"1444 744 CURVE SMOOTH",
"1444 894 OFFCURVE",
"1415 1026.833 OFFCURVE",
"1357 1142.5 CURVE SMOOTH",
"1299 1258.167 OFFCURVE",
"1219.167 1349 OFFCURVE",
"1117.5 1415 CURVE SMOOTH",
"1015.833 1481 OFFCURVE",
"899 1514 OFFCURVE",
"767 1514 CURVE SMOOTH",
"635.667 1514 OFFCURVE",
"519 1481 OFFCURVE",
"417 1415 CURVE SMOOTH",
"315 1349 OFFCURVE",
"235 1258.167 OFFCURVE",
"177 1142.5 CURVE SMOOTH",
"119 1026.833 OFFCURVE",
"90 894 OFFCURVE",
"90 744 CURVE SMOOTH",
"90 595.333 OFFCURVE",
"119 463.167 OFFCURVE",
"177 347.5 CURVE SMOOTH",
"235 231.833 OFFCURVE",
"315 141 OFFCURVE",
"417 75 CURVE SMOOTH",
"519 9 OFFCURVE",
"635.667 -24 OFFCURVE",
"767 -24 CURVE SMOOTH"
);
},
{
closed = 1;
nodes = (
"747 466 OFFCURVE",
"729 414 OFFCURVE",
"777 351 CURVE SMOOTH",
"917 167 LINE",
"869 151.667 OFFCURVE",
"819 144 OFFCURVE",
"767 144 CURVE SMOOTH",
"677 144 OFFCURVE",
"594.333 167.167 OFFCURVE",
"519 213.5 CURVE SMOOTH",
"443.667 259.833 OFFCURVE",
"383.333 327.667 OFFCURVE",
"338 417 CURVE SMOOTH",
"292.667 506.333 OFFCURVE",
"270 615.333 OFFCURVE",
"270 744 CURVE SMOOTH",
"270 873.333 OFFCURVE",
"292.667 982.833 OFFCURVE",
"338 1072.5 CURVE SMOOTH",
"383.333 1162.167 OFFCURVE",
"443.667 1230.167 OFFCURVE",
"519 1276.5 CURVE SMOOTH",
"594.333 1322.833 OFFCURVE",
"677 1346 OFFCURVE",
"767 1346 CURVE SMOOTH",
"857 1346 OFFCURVE",
"939.667 1322.833 OFFCURVE",
"1015 1276.5 CURVE SMOOTH",
"1090.333 1230.167 OFFCURVE",
"1150.667 1162.167 OFFCURVE",
"1196 1072.5 CURVE SMOOTH",
"1241.333 982.833 OFFCURVE",
"1264 873.333 OFFCURVE",
"1264 744 CURVE SMOOTH",
"1264 628 OFFCURVE",
"1245.167 527.833 OFFCURVE",
"1207.5 443.5 CURVE SMOOTH",
"1169.833 359.167 OFFCURVE",
"1119.667 292.333 OFFCURVE",
"1057 243 CURVE",
"1054 248 LINE",
"931 409 LINE SMOOTH",
"901 449 OFFCURVE",
"867 466 OFFCURVE",
"817 466 CURVE SMOOTH"
);
}
);
userData = {
assembly = "NPUSHB[ ]	/* 12 values pushed */\01240 22 2 5 3 18 15 2 0 5 2 76 \012MPPEM[ ]	/* MeasurePixelPerEm */\012PUSHB[ ]	/* 1 value pushed */\01250 \012LT[ ]	/* LessThan */\012IF[ ]	/* If */\012NPUSHB[ ]	/* 35 values pushed */\0120 3 4 5 4 3 5 128 0 2 0 2 134 0 4 4 1 97 0 1 1 109 77 0 5 5 0 98 6 1 0 0 110 0 78 \012ELSE[ ]	/* Else */\012NPUSHB[ ]	/* 33 values pushed */\0120 3 4 5 4 3 5 128 0 2 0 2 134 0 1 0 4 3 1 4 105 0 5 5 0 98 6 1 0 0 110 0 78 \012EIF[ ]	/* EndIf */\012NPUSHB[ ]	/* 19 values pushed */\0121 0 39 37 31 29 21 20 17 16 9 7 0 19 1 19 7 12 22 \012CALL[ ]	/* CallFunction */";
};
width = 1534;
}
);
leftKerningGroup = C;
note = Q;
rightKerningGroup = Oopen;
unicode = 0051;
},
{
glyphname = Q_rthook;
lastChange = "2024-07-06 19:18:49 +0000";
layers = (
{
layerId = "D204E62E-96B3-40B8-A6C2-F0C74B8845CF";
paths = (
{
closed = 1;
nodes = (
"1386 1396 LINE SMOOTH",
"1386 1457 OFFCURVE",
"1356 1490 OFFCURVE",
"1301 1490 CURVE SMOOTH",
"1246 1490 OFFCURVE",
"1216 1457 OFFCURVE",
"1216 1396 CURVE SMOOTH",
"1216 1260 LINE",
"1214 1260 LINE",
"1178.667 1336.667 OFFCURVE",
"1118.333 1398.167 OFFCURVE",
"1033 1444.5 CURVE SMOOTH",
"947.667 1490.833 OFFCURVE",
"852.667 1514 OFFCURVE",
"748 1514 CURVE SMOOTH",
"653.333 1514 OFFCURVE",
"566 1494.833 OFFCURVE",
"486 1456.5 CURVE SMOOTH",
"406 1418.167 OFFCURVE",
"336.333 1364.5 OFFCURVE",
"277 1295.5 CURVE SMOOTH",
"217.667 1226.5 OFFCURVE",
"171.667 1145.167 OFFCURVE",
"139 1051.5 CURVE SMOOTH",
"106.333 957.833 OFFCURVE",
"90 855.667 OFFCURVE",
"90 745 CURVE SMOOTH",
"90 634.333 OFFCURVE",
"106.333 532.167 OFFCURVE",
"139 438.5 CURVE SMOOTH",
"171.667 344.833 OFFCURVE",
"217.667 263.5 OFFCURVE",
"277 194.5 CURVE SMOOTH",
"336.333 125.5 OFFCURVE",
"406 71.833 OFFCURVE",
"486 33.5 CURVE SMOOTH",
"566 -4.833 OFFCURVE",
"653.333 -24 OFFCURVE",
"748 -24 CURVE SMOOTH",
"854 -24 OFFCURVE",
"949.167 -0.5 OFFCURVE",
"1033.5 46.5 CURVE SMOOTH",
"1117.833 93.5 OFFCURVE",
"1178 156.667 OFFCURVE",
"1214 236 CURVE",
"1216 236 LINE",
"1216 -170 LINE SMOOTH",
"1216 -250.667 OFFCURVE",
"1240.167 -312.167 OFFCURVE",
"1288.5 -354.5 CURVE SMOOTH",
"1336.833 -396.833 OFFCURVE",
"1407.333 -418 OFFCURVE",
"1500 -418 CURVE SMOOTH",
"1506 -418 LINE SMOOTH",
"1567 -418 OFFCURVE",
"1600 -392 OFFCURVE",
"1600 -344 CURVE SMOOTH",
"1600 -296 OFFCURVE",
"1567 -270 OFFCURVE",
"1506 -270 CURVE SMOOTH",
"1500 -270 LINE SMOOTH",
"1457.333 -270 OFFCURVE",
"1427.667 -262.167 OFFCURVE",
"1411 -246.5 CURVE SMOOTH",
"1394.333 -230.833 OFFCURVE",
"1386 -205.333 OFFCURVE",
"1386 -170 CURVE SMOOTH"
);
},
{
closed = 1;
nodes = (
"653.333 144 OFFCURVE",
"570 169.333 OFFCURVE",
"498 220 CURVE SMOOTH",
"426 270.667 OFFCURVE",
"369.667 341.167 OFFCURVE",
"329 431.5 CURVE SMOOTH",
"288.333 521.833 OFFCURVE",
"268 626.333 OFFCURVE",
"268 745 CURVE SMOOTH",
"268 862.333 OFFCURVE",
"288.667 966.167 OFFCURVE",
"330 1056.5 CURVE SMOOTH",
"371.333 1146.833 OFFCURVE",
"428.167 1217.667 OFFCURVE",
"500.5 1269 CURVE SMOOTH",
"572.833 1320.333 OFFCURVE",
"656 1346 OFFCURVE",
"750 1346 CURVE SMOOTH",
"845.333 1346 OFFCURVE",
"928 1321.333 OFFCURVE",
"998 1272 CURVE SMOOTH",
"1068 1222.667 OFFCURVE",
"1122.167 1153.167 OFFCURVE",
"1160.5 1063.5 CURVE SMOOTH",
"1198.833 973.833 OFFCURVE",
"1218 867.667 OFFCURVE",
"1218 745 CURVE SMOOTH",
"1218 625 OFFCURVE",
"1198.5 519.833 OFFCURVE",
"1159.5 429.5 CURVE SMOOTH",
"1120.5 339.167 OFFCURVE",
"1065.833 269 OFFCURVE",
"995.5 219 CURVE SMOOTH",
"925.167 169 OFFCURVE",
"842.667 144 OFFCURVE",
"748 144 CURVE SMOOTH"
);
}
);
userData = {
assembly = "PUSHB[ ]	/* 7 values pushed */\01228 11 2 5 6 1 76 \012MPPEM[ ]	/* MeasurePixelPerEm */\012PUSHB[ ]	/* 1 value pushed */\01222 \012LT[ ]	/* LessThan */\012IF[ ]	/* If */\012NPUSHB[ ]	/* 34 values pushed */\0120 6 6 3 97 7 4 2 3 3 109 77 8 1 5 5 2 97 0 2 2 110 77 0 0 0 1 97 0 1 1 108 1 78 \012ELSE[ ]	/* Else */\012MPPEM[ ]	/* MeasurePixelPerEm */\012PUSHB[ ]	/* 1 value pushed */\01250 \012LT[ ]	/* LessThan */\012IF[ ]	/* If */\012NPUSHB[ ]	/* 38 values pushed */\0127 1 4 4 103 77 0 6 6 3 97 0 3 3 109 77 8 1 5 5 2 97 0 2 2 110 77 0 0 0 1 97 0 1 1 108 1 78 \012ELSE[ ]	/* Else */\012NPUSHB[ ]	/* 36 values pushed */\0120 3 0 6 5 3 6 105 7 1 4 4 103 77 8 1 5 5 2 97 0 2 2 110 77 0 0 0 1 97 0 1 1 108 1 78 \012EIF[ ]	/* EndIf */\012EIF[ ]	/* EndIf */\012NPUSHB[ ]	/* 21 values pushed */\01232 31 0 0 40 38 31 46 32 46 0 30 0 30 40 38 33 35 9 12 26 \012CALL[ ]	/* CallFunction */";
};
width = 1534;
}
);
leftKerningGroup = C;
note = Q_rthook;
rightKerningGroup = Q_rthook;
},
{
glyphname = R;
lastChange = "2024-07-06 19:18:49 +0000";
layers = (
{
layerId = "D204E62E-96B3-40B8-A6C2-F0C74B8845CF";
paths = (
{
closed = 1;
nodes = (
"148 94 LINE SMOOTH",
"148 33 OFFCURVE",
"180 0 OFFCURVE",
"238 0 CURVE SMOOTH",
"296 0 OFFCURVE",
"328 33 OFFCURVE",
"328 94 CURVE SMOOTH",
"328 585 LINE",
"701 585 LINE",
"979 67 LINE SMOOTH",
"1004 21 OFFCURVE",
"1039 0 OFFCURVE",
"1091 0 CURVE SMOOTH",
"1120 0 LINE SMOOTH",
"1181 0 OFFCURVE",
"1199 47 OFFCURVE",
"1164 112 CURVE SMOOTH",
"890 614 LINE",
"987.333 644 OFFCURVE",
"1064.5 695.667 OFFCURVE",
"1121.5 769 CURVE SMOOTH",
"1178.5 842.333 OFFCURVE",
"1207 932 OFFCURVE",
"1207 1038 CURVE SMOOTH",
"1207 1177.333 OFFCURVE",
"1161.5 1287.5 OFFCURVE",
"1070.5 1368.5 CURVE SMOOTH",
"979.5 1449.5 OFFCURVE",
"856.333 1490 OFFCURVE",
"701 1490 CURVE SMOOTH",
"242 1490 LINE SMOOTH",
"181 1490 OFFCURVE",
"148 1457 OFFCURVE",
"148 1396 CURVE SMOOTH"
);
},
{
closed = 1;
nodes = (
"328 745 LINE",
"328 1330 LINE",
"695 1330 LINE SMOOTH",
"798.333 1330 OFFCURVE",
"879.833 1304 OFFCURVE",
"939.5 1252 CURVE SMOOTH",
"999.167 1200 OFFCURVE",
"1029 1128.667 OFFCURVE",
"1029 1038 CURVE SMOOTH",
"1029 947.333 OFFCURVE",
"999.5 875.833 OFFCURVE",
"940.5 823.5 CURVE SMOOTH",
"881.5 771.167 OFFCURVE",
"800.333 745 OFFCURVE",
"697 745 CURVE SMOOTH"
);
}
);
userData = {
assembly = "NPUSHB[ ]	/* 48 values pushed */\0128 1 2 4 1 76 0 4 0 2 1 4 2 103 0 5 5 0 95 0 0 0 103 77 6 3 2 1 1 104 1 78 0 0 24 22 18 16 0 15 0 15 49 22 33 7 12 25 \012CALL[ ]	/* CallFunction */";
};
width = 1295;
}
);
leftKerningGroup = B;
note = R;
rightKerningGroup = G.1;
unicode = 0052;
},
{
glyphname = Rstroke;
lastChange = "2024-07-06 19:18:49 +0000";
layers = (
{
layerId = "D204E62E-96B3-40B8-A6C2-F0C74B8845CF";
paths = (
{
closed = 1;
nodes = (
"166 94 LINE SMOOTH",
"166 33 OFFCURVE",
"198 0 OFFCURVE",
"256 0 CURVE SMOOTH",
"314 0 OFFCURVE",
"346 33 OFFCURVE",
"346 94 CURVE SMOOTH",
"346 585 LINE",
"719 585 LINE",
"997 67 LINE SMOOTH",
"1022 21 OFFCURVE",
"1057 0 OFFCURVE",
"1109 0 CURVE SMOOTH",
"1138 0 LINE SMOOTH",
"1199 0 OFFCURVE",
"1217 47 OFFCURVE",
"1182 112 CURVE SMOOTH",
"908 614 LINE",
"1005.333 644 OFFCURVE",
"1082.5 695.667 OFFCURVE",
"1139.5 769 CURVE SMOOTH",
"1196.5 842.333 OFFCURVE",
"1225 932 OFFCURVE",
"1225 1038 CURVE SMOOTH",
"1225 1177.333 OFFCURVE",
"1179.5 1287.5 OFFCURVE",
"1088.5 1368.5 CURVE SMOOTH",
"997.5 1449.5 OFFCURVE",
"874.333 1490 OFFCURVE",
"719 1490 CURVE SMOOTH",
"260 1490 LINE SMOOTH",
"199 1490 OFFCURVE",
"166 1457 OFFCURVE",
"166 1396 CURVE SMOOTH",
"166 744 LINE",
"79 744 LINE SMOOTH",
"23 744 OFFCURVE",
"-8 715 OFFCURVE",
"-8 663 CURVE SMOOTH",
"-8 611 OFFCURVE",
"25 582 OFFCURVE",
"86 582 CURVE SMOOTH",
"166 582 LINE"
);
},
{
closed = 1;
nodes = (
"346 745 LINE",
"346 1330 LINE",
"713 1330 LINE SMOOTH",
"816.333 1330 OFFCURVE",
"897.833 1304 OFFCURVE",
"957.5 1252 CURVE SMOOTH",
"1017.167 1200 OFFCURVE",
"1047 1128.667 OFFCURVE",
"1047 1038 CURVE SMOOTH",
"1047 947.333 OFFCURVE",
"1017.5 875.833 OFFCURVE",
"958.5 823.5 CURVE SMOOTH",
"899.5 771.167 OFFCURVE",
"818.333 745 OFFCURVE",
"715 745 CURVE SMOOTH"
);
}
);
userData = {
assembly = "NPUSHB[ ]	/* 52 values pushed */\01212 1 0 1 1 76 6 1 1 4 1 0 3 1 0 103 0 7 7 2 95 0 2 2 103 77 8 5 2 3 3 104 3 78 0 0 28 26 22 20 0 19 0 19 49 22 33 17 17 9 12 27 \012CALL[ ]	/* CallFunction */";
};
width = 1262;
}
);
leftKerningGroup = B;
note = uni024C;
rightKerningGroup = G.1;
unicode = 024C;
},
{
glyphname = S;
lastChange = "2024-07-06 19:18:49 +0000";
layers = (
{
layerId = "D204E62E-96B3-40B8-A6C2-F0C74B8845CF";
paths = (
{
closed = 1;
nodes = (
"748 -24 OFFCURVE",
"842.5 -5.833 OFFCURVE",
"923.5 30.5 CURVE SMOOTH",
"1004.5 66.833 OFFCURVE",
"1067.5 117.667 OFFCURVE",
"1112.5 183 CURVE SMOOTH",
"1157.5 248.333 OFFCURVE",
"1180 324 OFFCURVE",
"1180 410 CURVE SMOOTH",
"1180 514 OFFCURVE",
"1145.333 599 OFFCURVE",
"1076 665 CURVE SMOOTH",
"1006.667 731 OFFCURVE",
"899.333 782 OFFCURVE",
"754 818 CURVE SMOOTH",
"585 860 LINE SMOOTH",
"477 887.333 OFFCURVE",
"400.167 919.167 OFFCURVE",
"354.5 955.5 CURVE SMOOTH",
"308.833 991.833 OFFCURVE",
"286 1039 OFFCURVE",
"286 1097 CURVE SMOOTH",
"286 1171 OFFCURVE",
"316.833 1231.5 OFFCURVE",
"378.5 1278.5 CURVE SMOOTH",
"440.167 1325.5 OFFCURVE",
"519.333 1349 OFFCURVE",
"616 1349 CURVE SMOOTH",
"717.333 1349 OFFCURVE",
"798.667 1322.5 OFFCURVE",
"860 1269.5 CURVE SMOOTH",
"901 1234 OFFCURVE",
"930 1189 OFFCURVE",
"946 1136 CURVE SMOOTH",
"962 1079 OFFCURVE",
"990 1050 OFFCURVE",
"1047 1050 CURVE SMOOTH",
"1049 1050 LINE SMOOTH",
"1105 1050 OFFCURVE",
"1140 1086 OFFCURVE",
"1127 1149 CURVE SMOOTH",
"1108 1247 OFFCURVE",
"1063 1327 OFFCURVE",
"993.5 1389.5 CURVE SMOOTH",
"901.167 1472.5 OFFCURVE",
"777.333 1514 OFFCURVE",
"622 1514 CURVE SMOOTH",
"518.667 1514 OFFCURVE",
"428.333 1496.333 OFFCURVE",
"351 1461 CURVE SMOOTH",
"273.667 1425.667 OFFCURVE",
"213.833 1376.167 OFFCURVE",
"171.5 1312.5 CURVE SMOOTH",
"129.167 1248.833 OFFCURVE",
"108 1174 OFFCURVE",
"108 1088 CURVE SMOOTH",
"108 986.667 OFFCURVE",
"141.667 904.667 OFFCURVE",
"209 842 CURVE SMOOTH",
"276.333 779.333 OFFCURVE",
"386 729.333 OFFCURVE",
"538 692 CURVE SMOOTH",
"705 651 LINE SMOOTH",
"812.333 624.333 OFFCURVE",
"888.333 591.667 OFFCURVE",
"933 553 CURVE SMOOTH",
"977.667 514.333 OFFCURVE",
"1000 464 OFFCURVE",
"1000 402 CURVE SMOOTH",
"1000 322 OFFCURVE",
"967.167 258.333 OFFCURVE",
"901.5 211 CURVE SMOOTH",
"835.833 163.667 OFFCURVE",
"748.667 140 OFFCURVE",
"640 140 CURVE SMOOTH",
"520.667 140 OFFCURVE",
"427.833 170 OFFCURVE",
"361.5 230 CURVE SMOOTH",
"315 272 OFFCURVE",
"285 326 OFFCURVE",
"271 391 CURVE SMOOTH",
"258 449 OFFCURVE",
"232 480 OFFCURVE",
"173 480 CURVE SMOOTH",
"170 480 LINE SMOOTH",
"111 480 OFFCURVE",
"75 445 OFFCURVE",
"86 382 CURVE SMOOTH",
"96 319 OFFCURVE",
"116 262 OFFCURVE",
"147 212 CURVE SMOOTH",
"193 136.667 OFFCURVE",
"258 78.5 OFFCURVE",
"342 37.5 CURVE SMOOTH",
"426 -3.5 OFFCURVE",
"525.333 -24 OFFCURVE",
"640 -24 CURVE SMOOTH"
);
}
);
userData = {
assembly = "MPPEM[ ]	/* MeasurePixelPerEm */\012PUSHB[ ]	/* 1 value pushed */\01250 \012LT[ ]	/* LessThan */\012IF[ ]	/* If */\012NPUSHB[ ]	/* 37 values pushed */\0120 4 5 1 5 4 1 128 0 1 2 5 1 2 126 0 5 5 3 97 0 3 3 109 77 0 2 2 0 97 6 1 0 0 110 0 78 \012ELSE[ ]	/* Else */\012NPUSHB[ ]	/* 35 values pushed */\0120 4 5 1 5 4 1 128 0 1 2 5 1 2 126 0 3 0 5 4 3 5 105 0 2 2 0 97 6 1 0 0 110 0 78 \012EIF[ ]	/* EndIf */\012NPUSHB[ ]	/* 19 values pushed */\0121 0 30 28 26 25 23 21 9 7 5 4 0 42 1 42 7 12 22 \012CALL[ ]	/* CallFunction */";
};
width = 1258;
}
);
leftKerningGroup = S;
note = S;
rightKerningGroup = S;
unicode = 0053;
},
{
glyphname = Germandbls;
lastChange = "2024-07-06 19:18:49 +0000";
layers = (
{
layerId = "D204E62E-96B3-40B8-A6C2-F0C74B8845CF";
paths = (
{
closed = 1;
nodes = (
"148 94 LINE SMOOTH",
"148 33 OFFCURVE",
"180 0 OFFCURVE",
"238 0 CURVE SMOOTH",
"296 0 OFFCURVE",
"328 33 OFFCURVE",
"328 94 CURVE SMOOTH",
"328 990 LINE SMOOTH",
"328 1052 OFFCURVE",
"336 1110.333 OFFCURVE",
"352 1165 CURVE SMOOTH",
"368 1219.667 OFFCURVE",
"396.833 1264.167 OFFCURVE",
"438.5 1298.5 CURVE SMOOTH",
"480.167 1332.833 OFFCURVE",
"538.667 1350 OFFCURVE",
"614 1350 CURVE SMOOTH",
"675.333 1350 OFFCURVE",
"726.833 1339.833 OFFCURVE",
"768.5 1319.5 CURVE SMOOTH",
"810.167 1299.167 OFFCURVE",
"846.667 1278 OFFCURVE",
"878 1256 CURVE",
"620 904 LINE SMOOTH",
"593 867 OFFCURVE",
"582 833 OFFCURVE",
"582 787 CURVE SMOOTH",
"582 774 LINE SMOOTH",
"582 724 OFFCURVE",
"615 696 OFFCURVE",
"676 696 CURVE SMOOTH",
"728 696 LINE SMOOTH",
"743.333 696 OFFCURVE",
"768.167 694.333 OFFCURVE",
"802.5 691 CURVE SMOOTH",
"836.833 687.667 OFFCURVE",
"872.833 677.833 OFFCURVE",
"910.5 661.5 CURVE SMOOTH",
"948.167 645.167 OFFCURVE",
"980.5 618.167 OFFCURVE",
"1007.5 580.5 CURVE SMOOTH",
"1034.5 542.833 OFFCURVE",
"1048 490 OFFCURVE",
"1048 422 CURVE SMOOTH",
"1048 334.667 OFFCURVE",
"1022.167 265.833 OFFCURVE",
"970.5 215.5 CURVE SMOOTH",
"918.833 165.167 OFFCURVE",
"845.333 140 OFFCURVE",
"750 140 CURVE SMOOTH",
"702.667 140 OFFCURVE",
"660.5 145.333 OFFCURVE",
"623.5 156 CURVE SMOOTH",
"606 161 OFFCURVE",
"590 166 OFFCURVE",
"574 172 CURVE SMOOTH",
"542 183 OFFCURVE",
"516 162 OFFCURVE",
"497 110 CURVE SMOOTH",
"478 59 OFFCURVE",
"500 16 OFFCURVE",
"560 2 CURVE SMOOTH",
"577 -2 OFFCURVE",
"593 -6 OFFCURVE",
"610 -8.5 CURVE SMOOTH",
"656.667 -16.167 OFFCURVE",
"702.667 -20 OFFCURVE",
"748 -20 CURVE SMOOTH",
"845.333 -20 OFFCURVE",
"931.5 -3.167 OFFCURVE",
"1006.5 30.5 CURVE SMOOTH",
"1081.5 64.167 OFFCURVE",
"1140.5 113.5 OFFCURVE",
"1183.5 178.5 CURVE SMOOTH",
"1226.5 243.5 OFFCURVE",
"1248 323.333 OFFCURVE",
"1248 418 CURVE SMOOTH",
"1248 546.667 OFFCURVE",
"1207.5 648.667 OFFCURVE",
"1126.5 724 CURVE SMOOTH",
"1045.5 799.333 OFFCURVE",
"930.667 841.333 OFFCURVE",
"782 850 CURVE",
"1059 1213 LINE SMOOTH",
"1095 1261 OFFCURVE",
"1092 1308 OFFCURVE",
"1044 1345 CURVE SMOOTH",
"997 1382 OFFCURVE",
"946 1415 OFFCURVE",
"891.5 1444 CURVE SMOOTH",
"809.833 1488 OFFCURVE",
"714.667 1510 OFFCURVE",
"606 1510 CURVE SMOOTH",
"300.667 1510 OFFCURVE",
"148 1336.667 OFFCURVE",
"148 990 CURVE SMOOTH"
);
}
);
userData = {
assembly = "MPPEM[ ]	/* MeasurePixelPerEm */\012PUSHB[ ]	/* 1 value pushed */\01226 \012LT[ ]	/* LessThan */\012IF[ ]	/* If */\012NPUSHB[ ]	/* 16 values pushed */\01232 31 6 3 1 5 18 1 3 4 17 1 2 3 3 76 \012ELSE[ ]	/* Else */\012NPUSHB[ ]	/* 16 values pushed */\01232 31 6 3 1 5 18 1 3 4 17 1 6 3 3 76 \012EIF[ ]	/* EndIf */\012MPPEM[ ]	/* MeasurePixelPerEm */\012PUSHB[ ]	/* 1 value pushed */\01226 \012LT[ ]	/* LessThan */\012IF[ ]	/* If */\012NPUSHB[ ]	/* 38 values pushed */\0120 1 5 4 5 1 4 128 0 4 3 5 4 3 126 0 5 5 0 97 0 0 0 109 77 0 3 3 2 98 7 6 2 2 2 110 2 78 \012ELSE[ ]	/* Else */\012NPUSHB[ ]	/* 42 values pushed */\0120 1 5 4 5 1 4 128 0 4 3 5 4 3 126 0 5 5 0 97 0 0 0 109 77 7 1 6 6 104 77 0 3 3 2 98 0 2 2 110 2 78 \012EIF[ ]	/* EndIf */\012NPUSHB[ ]	/* 15 values pushed */\0120 0 0 40 0 40 36 38 37 37 19 34 8 12 28 \012CALL[ ]	/* CallFunction */";
};
width = 1326;
}
);
leftKerningGroup = B;
note = uni1E9E;
rightKerningGroup = S;
unicode = 1E9E;
},
{
glyphname = Schwa;
lastChange = "2024-07-06 19:18:49 +0000";
layers = (
{
layerId = "D204E62E-96B3-40B8-A6C2-F0C74B8845CF";
paths = (
{
closed = 1;
nodes = (
"865 -24 OFFCURVE",
"981.667 8.833 OFFCURVE",
"1083 74.5 CURVE SMOOTH",
"1184.333 140.167 OFFCURVE",
"1263.5 230.833 OFFCURVE",
"1320.5 346.5 CURVE SMOOTH",
"1377.5 462.167 OFFCURVE",
"1406 594.667 OFFCURVE",
"1406 744 CURVE SMOOTH",
"1406 894.667 OFFCURVE",
"1376.833 1027.833 OFFCURVE",
"1318.5 1143.5 CURVE SMOOTH",
"1260.167 1259.167 OFFCURVE",
"1179.833 1349.833 OFFCURVE",
"1077.5 1415.5 CURVE SMOOTH",
"975.167 1481.167 OFFCURVE",
"857.667 1514 OFFCURVE",
"725 1514 CURVE SMOOTH",
"619.667 1514 OFFCURVE",
"523.333 1492.5 OFFCURVE",
"436 1449.5 CURVE SMOOTH",
"348.667 1406.5 OFFCURVE",
"276 1347 OFFCURVE",
"218 1271 CURVE SMOOTH",
"181 1223 OFFCURVE",
"153 1170 OFFCURVE",
"132 1113 CURVE SMOOTH",
"110 1049 OFFCURVE",
"144 1008 OFFCURVE",
"206 1008 CURVE SMOOTH",
"261 1008 OFFCURVE",
"290 1034 OFFCURVE",
"312 1085 CURVE SMOOTH",
"328 1121 OFFCURVE",
"347 1154 OFFCURVE",
"372 1184 CURVE SMOOTH",
"413.333 1234.667 OFFCURVE",
"464.333 1274.333 OFFCURVE",
"525 1303 CURVE SMOOTH",
"585.667 1331.667 OFFCURVE",
"652.333 1346 OFFCURVE",
"725 1346 CURVE SMOOTH",
"824.333 1346 OFFCURVE",
"911.5 1320.667 OFFCURVE",
"986.5 1270 CURVE SMOOTH",
"1061.5 1219.333 OFFCURVE",
"1120.167 1148.833 OFFCURVE",
"1162.5 1058.5 CURVE SMOOTH",
"1204.833 968.167 OFFCURVE",
"1226 863.667 OFFCURVE",
"1226 745 CURVE",
"190 745 LINE SMOOTH",
"129 745 OFFCURVE",
"96 712 OFFCURVE",
"96 651 CURVE SMOOTH",
"96 584 LINE SMOOTH",
"96 497.333 OFFCURVE",
"112.333 417 OFFCURVE",
"145 343 CURVE SMOOTH",
"177.667 269 OFFCURVE",
"223.167 204.5 OFFCURVE",
"281.5 149.5 CURVE SMOOTH",
"339.833 94.5 OFFCURVE",
"407.5 51.833 OFFCURVE",
"484.5 21.5 CURVE SMOOTH",
"561.5 -8.833 OFFCURVE",
"644.333 -24 OFFCURVE",
"733 -24 CURVE SMOOTH"
);
},
{
closed = 1;
nodes = (
"1186.667 451.667 OFFCURVE",
"1131.833 344.833 OFFCURVE",
"1047.5 264.5 CURVE SMOOTH",
"963.167 184.167 OFFCURVE",
"858.333 144 OFFCURVE",
"733 144 CURVE SMOOTH",
"650.333 144 OFFCURVE",
"574.333 162.5 OFFCURVE",
"505 199.5 CURVE SMOOTH",
"435.667 236.5 OFFCURVE",
"380 288.167 OFFCURVE",
"338 354.5 CURVE SMOOTH",
"296 420.833 OFFCURVE",
"274.667 497.667 OFFCURVE",
"274 585 CURVE",
"1212 585 LINE"
);
}
);
userData = {
assembly = "MPPEM[ ]	/* MeasurePixelPerEm */\012PUSHB[ ]	/* 1 value pushed */\01250 \012LT[ ]	/* LessThan */\012IF[ ]	/* If */\012NPUSHB[ ]	/* 38 values pushed */\0120 3 2 1 2 3 1 128 0 1 0 5 6 1 5 103 0 2 2 4 97 0 4 4 109 77 0 6 6 0 97 7 1 0 0 110 0 78 \012ELSE[ ]	/* Else */\012NPUSHB[ ]	/* 36 values pushed */\0120 3 2 1 2 3 1 128 0 4 0 2 3 4 2 105 0 1 0 5 6 1 5 103 0 6 6 0 97 7 1 0 0 110 0 78 \012EIF[ ]	/* EndIf */\012NPUSHB[ ]	/* 21 values pushed */\0121 0 34 32 29 28 21 19 16 15 12 10 7 6 0 27 1 27 8 12 22 \012CALL[ ]	/* CallFunction */";
};
width = 1496;
}
);
note = uni018F;
unicode = 018F;
},
{
glyphname = T;
lastChange = "2024-07-06 19:18:49 +0000";
layers = (
{
layerId = "D204E62E-96B3-40B8-A6C2-F0C74B8845CF";
paths = (
{
closed = 1;
nodes = (
"50 1358 OFFCURVE",
"83 1330 OFFCURVE",
"144 1330 CURVE SMOOTH",
"536 1330 LINE",
"536 94 LINE SMOOTH",
"536 33 OFFCURVE",
"568 0 OFFCURVE",
"626 0 CURVE SMOOTH",
"684 0 OFFCURVE",
"716 33 OFFCURVE",
"716 94 CURVE SMOOTH",
"716 1330 LINE",
"1106 1330 LINE SMOOTH",
"1167 1330 OFFCURVE",
"1200 1358 OFFCURVE",
"1200 1410 CURVE SMOOTH",
"1200 1462 OFFCURVE",
"1167 1490 OFFCURVE",
"1106 1490 CURVE SMOOTH",
"144 1490 LINE SMOOTH",
"83 1490 OFFCURVE",
"50 1462 OFFCURVE",
"50 1410 CURVE SMOOTH"
);
}
);
userData = {
assembly = "NPUSHB[ ]	/* 30 values pushed */\0124 3 2 1 1 0 95 0 0 0 103 77 0 2 2 104 2 78 0 0 0 7 0 7 17 17 17 5 12 25 \012CALL[ ]	/* CallFunction */";
};
width = 1250;
}
);
leftKerningGroup = "Kabashkir-cy";
note = T;
rightKerningGroup = "Enghe-cy";
unicode = 0054;
},
{
glyphname = Tdiagonalstroke;
lastChange = "2024-07-06 19:18:49 +0000";
layers = (
{
layerId = "D204E62E-96B3-40B8-A6C2-F0C74B8845CF";
paths = (
{
closed = 1;
nodes = (
"294 -209 OFFCURVE",
"325 -187 OFFCURVE",
"345 -136 CURVE SMOOTH",
"536 342 LINE",
"536 94 LINE SMOOTH",
"536 33 OFFCURVE",
"568 0 OFFCURVE",
"626 0 CURVE SMOOTH",
"684 0 OFFCURVE",
"716 33 OFFCURVE",
"716 94 CURVE SMOOTH",
"716 793 LINE",
"931 1330 LINE",
"1106 1330 LINE SMOOTH",
"1167 1330 OFFCURVE",
"1200 1358 OFFCURVE",
"1200 1410 CURVE SMOOTH",
"1200 1462 OFFCURVE",
"1167 1490 OFFCURVE",
"1106 1490 CURVE SMOOTH",
"995 1490 LINE",
"1037 1595 LINE SMOOTH",
"1062 1658 OFFCURVE",
"1050 1699 OFFCURVE",
"1008 1699 CURVE SMOOTH",
"961 1699 OFFCURVE",
"929 1676 OFFCURVE",
"909 1625 CURVE SMOOTH",
"855 1490 LINE",
"144 1490 LINE SMOOTH",
"83 1490 OFFCURVE",
"50 1462 OFFCURVE",
"50 1410 CURVE SMOOTH",
"50 1358 OFFCURVE",
"83 1330 OFFCURVE",
"144 1330 CURVE SMOOTH",
"536 1330 LINE",
"536 692 LINE",
"220 -100 LINE SMOOTH",
"194 -165 OFFCURVE",
"204 -209 OFFCURVE",
"246 -209 CURVE SMOOTH"
);
},
{
closed = 1;
nodes = (
"716 1330 LINE",
"791 1330 LINE",
"716 1143 LINE"
);
}
);
userData = {
assembly = "NPUSHB[ ]	/* 9 values pushed */\01217 15 12 1 4 5 0 1 76 \012MPPEM[ ]	/* MeasurePixelPerEm */\012PUSHB[ ]	/* 1 value pushed */\01212 \012LT[ ]	/* LessThan */\012IF[ ]	/* If */\012NPUSHB[ ]	/* 31 values pushed */\0120 2 1 1 2 112 8 1 6 5 6 134 7 4 2 0 0 1 95 3 1 1 1 103 77 0 5 5 104 5 78 \012ELSE[ ]	/* Else */\012NPUSHB[ ]	/* 30 values pushed */\0120 2 1 2 133 8 1 6 5 6 134 7 4 2 0 0 1 95 3 1 1 1 103 77 0 5 5 104 5 78 \012EIF[ ]	/* EndIf */\012NPUSHB[ ]	/* 17 values pushed */\0120 0 19 18 0 16 0 16 18 17 17 17 17 18 9 12 28 \012CALL[ ]	/* CallFunction */";
};
width = 1250;
}
);
leftKerningGroup = "Kabashkir-cy";
note = uni023E;
rightKerningGroup = "Enghe-cy";
unicode = 023E;
},
{
glyphname = Thook;
lastChange = "2024-07-06 19:18:49 +0000";
layers = (
{
layerId = "D204E62E-96B3-40B8-A6C2-F0C74B8845CF";
paths = (
{
closed = 1;
nodes = (
"40 1144 LINE SMOOTH",
"40 1083 OFFCURVE",
"69 1050 OFFCURVE",
"123 1050 CURVE SMOOTH",
"177 1050 OFFCURVE",
"206 1083 OFFCURVE",
"206 1144 CURVE SMOOTH",
"206 1230 LINE SMOOTH",
"206 1265.333 OFFCURVE",
"215 1290.833 OFFCURVE",
"233 1306.5 CURVE SMOOTH",
"251 1322.167 OFFCURVE",
"281.333 1330 OFFCURVE",
"324 1330 CURVE SMOOTH",
"528 1330 LINE",
"528 94 LINE SMOOTH",
"528 33 OFFCURVE",
"560 0 OFFCURVE",
"618 0 CURVE SMOOTH",
"676 0 OFFCURVE",
"708 33 OFFCURVE",
"708 94 CURVE SMOOTH",
"708 1330 LINE",
"1082 1330 LINE SMOOTH",
"1143 1330 OFFCURVE",
"1176 1358 OFFCURVE",
"1176 1410 CURVE SMOOTH",
"1176 1462 OFFCURVE",
"1143 1490 OFFCURVE",
"1082 1490 CURVE SMOOTH",
"324 1490 LINE SMOOTH",
"134.667 1490 OFFCURVE",
"40 1404.667 OFFCURVE",
"40 1234 CURVE SMOOTH"
);
}
);
userData = {
assembly = "NPUSHB[ ]	/* 39 values pushed */\0125 1 4 1 2 1 4 2 128 3 1 1 1 0 95 0 0 0 103 77 0 2 2 104 2 78 0 0 0 14 0 14 33 17 17 34 6 12 26 \012CALL[ ]	/* CallFunction */";
};
width = 1226;
}
);
leftKerningGroup = "Kabashkir-cy";
note = uni01AC;
rightKerningGroup = "Enghe-cy";
unicode = 01AC;
},
{
glyphname = Tonefive;
lastChange = "2024-07-06 19:18:49 +0000";
layers = (
{
layerId = "D204E62E-96B3-40B8-A6C2-F0C74B8845CF";
paths = (
{
closed = 1;
nodes = (
"772.333 -20 OFFCURVE",
"859.333 1.667 OFFCURVE",
"934 45 CURVE SMOOTH",
"1008.667 88.333 OFFCURVE",
"1066.833 148.333 OFFCURVE",
"1108.5 225 CURVE SMOOTH",
"1150.167 301.667 OFFCURVE",
"1171 390 OFFCURVE",
"1171 490 CURVE SMOOTH",
"1171 588.667 OFFCURVE",
"1151.5 676 OFFCURVE",
"1112.5 752 CURVE SMOOTH",
"1073.5 828 OFFCURVE",
"1019.167 887.667 OFFCURVE",
"949.5 931 CURVE SMOOTH",
"879.833 974.333 OFFCURVE",
"799.333 996 OFFCURVE",
"708 996 CURVE SMOOTH",
"567.333 996 OFFCURVE",
"450.667 946.333 OFFCURVE",
"358 847 CURVE",
"356 847 LINE",
"392 1330 LINE",
"995 1330 LINE SMOOTH",
"1056 1330 OFFCURVE",
"1089 1358 OFFCURVE",
"1089 1410 CURVE SMOOTH",
"1089 1462 OFFCURVE",
"1056 1490 OFFCURVE",
"995 1490 CURVE SMOOTH",
"144 1490 LINE SMOOTH",
"83 1490 OFFCURVE",
"50 1462 OFFCURVE",
"50 1410 CURVE SMOOTH",
"50 1358 OFFCURVE",
"83 1330 OFFCURVE",
"144 1330 CURVE SMOOTH",
"220 1330 LINE",
"185 737 LINE SMOOTH",
"181 674 OFFCURVE",
"214 640 OFFCURVE",
"276 640 CURVE SMOOTH",
"328 640 OFFCURVE",
"357 663 OFFCURVE",
"388 707 CURVE SMOOTH",
"410 739 OFFCURVE",
"439 764 OFFCURVE",
"475 784.5 CURVE SMOOTH",
"533.667 817.5 OFFCURVE",
"604 834 OFFCURVE",
"686 834 CURVE SMOOTH",
"748 834 OFFCURVE",
"802.333 819.167 OFFCURVE",
"849 789.5 CURVE SMOOTH",
"895.667 759.833 OFFCURVE",
"932 719 OFFCURVE",
"958 667 CURVE SMOOTH",
"984 615 OFFCURVE",
"997 555.333 OFFCURVE",
"997 488 CURVE SMOOTH",
"997 420.667 OFFCURVE",
"983.333 360.833 OFFCURVE",
"956 308.5 CURVE SMOOTH",
"928.667 256.167 OFFCURVE",
"890.833 215 OFFCURVE",
"842.5 185 CURVE SMOOTH",
"794.167 155 OFFCURVE",
"737.667 140 OFFCURVE",
"673 140 CURVE SMOOTH",
"582.333 140 OFFCURVE",
"506.167 167.5 OFFCURVE",
"444.5 222.5 CURVE SMOOTH",
"404 258 OFFCURVE",
"375 301 OFFCURVE",
"358 349 CURVE SMOOTH",
"339 404 OFFCURVE",
"311 432 OFFCURVE",
"255 432 CURVE SMOOTH",
"250 432 LINE SMOOTH",
"193 432 OFFCURVE",
"159 394 OFFCURVE",
"175 332 CURVE SMOOTH",
"187 285 OFFCURVE",
"207 241 OFFCURVE",
"233.5 201 CURVE SMOOTH",
"278.5 133 OFFCURVE",
"339.167 79.167 OFFCURVE",
"415.5 39.5 CURVE SMOOTH",
"491.833 -0.167 OFFCURVE",
"577.667 -20 OFFCURVE",
"673 -20 CURVE SMOOTH"
);
}
);
userData = {
assembly = "NPUSHB[ ]	/* 77 values pushed */\01227 1 3 8 1 76 0 4 3 1 3 4 1 128 0 1 2 3 1 2 126 0 8 0 3 4 8 3 105 7 1 5 5 6 95 0 6 6 103 77 0 2 2 0 97 9 1 0 0 110 0 78 1 0 31 29 26 25 24 23 22 21 20 19 17 15 9 7 5 4 0 37 1 37 10 12 22 \012CALL[ ]	/* CallFunction */";
};
width = 1261;
}
);
note = uni01BC;
unicode = 01BC;
},
{
glyphname = Tonesix;
lastChange = "2024-07-06 19:18:49 +0000";
layers = (
{
layerId = "D204E62E-96B3-40B8-A6C2-F0C74B8845CF";
paths = (
{
closed = 1;
nodes = (
"518 1396 LINE SMOOTH",
"518 1457 OFFCURVE",
"485 1490 OFFCURVE",
"424 1490 CURVE SMOOTH",
"82 1490 LINE SMOOTH",
"21 1490 OFFCURVE",
"-12 1462 OFFCURVE",
"-12 1410 CURVE SMOOTH",
"-12 1358 OFFCURVE",
"21 1330 OFFCURVE",
"82 1330 CURVE SMOOTH",
"338 1330 LINE",
"338 94 LINE SMOOTH",
"338 33 OFFCURVE",
"371 0 OFFCURVE",
"432 0 CURVE SMOOTH",
"896 0 LINE SMOOTH",
"1056 0 OFFCURVE",
"1178.333 40.833 OFFCURVE",
"1263 122.5 CURVE SMOOTH",
"1347.667 204.167 OFFCURVE",
"1390 310 OFFCURVE",
"1390 440 CURVE SMOOTH",
"1390 569.333 OFFCURVE",
"1347.667 672.333 OFFCURVE",
"1263 749 CURVE SMOOTH",
"1178.333 825.667 OFFCURVE",
"1056 864 OFFCURVE",
"896 864 CURVE SMOOTH",
"518 864 LINE"
);
},
{
closed = 1;
nodes = (
"518 704 LINE",
"896 704 LINE SMOOTH",
"998 704 OFFCURVE",
"1076.5 678.167 OFFCURVE",
"1131.5 626.5 CURVE SMOOTH",
"1186.5 574.833 OFFCURVE",
"1214 513.333 OFFCURVE",
"1214 442 CURVE SMOOTH",
"1214 394 OFFCURVE",
"1201.667 348.167 OFFCURVE",
"1177 304.5 CURVE SMOOTH",
"1152.333 260.833 OFFCURVE",
"1116.333 225.5 OFFCURVE",
"1069 198.5 CURVE SMOOTH",
"1021.667 171.5 OFFCURVE",
"964 158 OFFCURVE",
"896 158 CURVE SMOOTH",
"518 158 LINE"
);
}
);
userData = {
assembly = "NPUSHB[ ]	/* 51 values pushed */\0120 0 7 1 5 4 0 5 103 0 2 2 3 95 6 1 3 3 103 77 0 4 4 1 95 0 1 1 104 1 78 13 13 0 0 13 22 13 21 16 14 0 12 0 12 17 36 33 8 12 25 \012CALL[ ]	/* CallFunction */";
};
width = 1400;
}
);
note = uni0184;
unicode = 0184;
},
{
glyphname = Tonetwo;
lastChange = "2024-07-06 19:18:49 +0000";
layers = (
{
layerId = "D204E62E-96B3-40B8-A6C2-F0C74B8845CF";
paths = (
{
closed = 1;
nodes = (
"732.667 -24 OFFCURVE",
"832 -3.5 OFFCURVE",
"916 37.5 CURVE SMOOTH",
"1000 78.5 OFFCURVE",
"1065 136.667 OFFCURVE",
"1111 212 CURVE SMOOTH",
"1142 262 OFFCURVE",
"1162 319 OFFCURVE",
"1172 382 CURVE SMOOTH",
"1183 445 OFFCURVE",
"1146 480 OFFCURVE",
"1085 480 CURVE SMOOTH",
"1026 480 OFFCURVE",
"1000 449 OFFCURVE",
"987 391 CURVE SMOOTH",
"973 326 OFFCURVE",
"943 272 OFFCURVE",
"896.5 230 CURVE SMOOTH",
"830.167 170 OFFCURVE",
"737.333 140 OFFCURVE",
"618 140 CURVE SMOOTH",
"509.333 140 OFFCURVE",
"422.167 163.667 OFFCURVE",
"356.5 211 CURVE SMOOTH",
"290.833 258.333 OFFCURVE",
"258 322 OFFCURVE",
"258 402 CURVE SMOOTH",
"258 464 OFFCURVE",
"280.333 514.333 OFFCURVE",
"325 553 CURVE SMOOTH",
"369.667 591.667 OFFCURVE",
"445.667 624.333 OFFCURVE",
"553 651 CURVE SMOOTH",
"720 692 LINE SMOOTH",
"872 729.333 OFFCURVE",
"981.667 779.333 OFFCURVE",
"1049 842 CURVE SMOOTH",
"1116.333 904.667 OFFCURVE",
"1150 986.667 OFFCURVE",
"1150 1088 CURVE SMOOTH",
"1150 1174 OFFCURVE",
"1128.833 1248.833 OFFCURVE",
"1086.5 1312.5 CURVE SMOOTH",
"1044.167 1376.167 OFFCURVE",
"984.5 1425.667 OFFCURVE",
"907.5 1461 CURVE SMOOTH",
"830.5 1496.333 OFFCURVE",
"740 1514 OFFCURVE",
"636 1514 CURVE SMOOTH",
"481.333 1514 OFFCURVE",
"357.667 1472.5 OFFCURVE",
"265 1389.5 CURVE SMOOTH",
"195 1327 OFFCURVE",
"150 1247 OFFCURVE",
"131 1149 CURVE SMOOTH",
"118 1086 OFFCURVE",
"153 1050 OFFCURVE",
"211 1050 CURVE SMOOTH",
"268 1050 OFFCURVE",
"296 1079 OFFCURVE",
"312 1136 CURVE SMOOTH",
"328 1189 OFFCURVE",
"357 1234 OFFCURVE",
"398.5 1269.5 CURVE SMOOTH",
"460.167 1322.5 OFFCURVE",
"541.333 1349 OFFCURVE",
"642 1349 CURVE SMOOTH",
"738.667 1349 OFFCURVE",
"817.833 1325.5 OFFCURVE",
"879.5 1278.5 CURVE SMOOTH",
"941.167 1231.5 OFFCURVE",
"972 1171 OFFCURVE",
"972 1097 CURVE SMOOTH",
"972 1039 OFFCURVE",
"949.167 991.833 OFFCURVE",
"903.5 955.5 CURVE SMOOTH",
"857.833 919.167 OFFCURVE",
"781 887.333 OFFCURVE",
"673 860 CURVE SMOOTH",
"504 818 LINE SMOOTH",
"359.333 782 OFFCURVE",
"252.167 731 OFFCURVE",
"182.5 665 CURVE SMOOTH",
"112.833 599 OFFCURVE",
"78 514 OFFCURVE",
"78 410 CURVE SMOOTH",
"78 324 OFFCURVE",
"100.5 248.333 OFFCURVE",
"145.5 183 CURVE SMOOTH",
"190.5 117.667 OFFCURVE",
"253.5 66.833 OFFCURVE",
"334.5 30.5 CURVE SMOOTH",
"415.5 -5.833 OFFCURVE",
"510 -24 OFFCURVE",
"618 -24 CURVE SMOOTH"
);
}
);
userData = {
assembly = "MPPEM[ ]	/* MeasurePixelPerEm */\012PUSHB[ ]	/* 1 value pushed */\01250 \012LT[ ]	/* LessThan */\012IF[ ]	/* If */\012NPUSHB[ ]	/* 37 values pushed */\0120 2 1 5 1 2 5 128 0 5 4 1 5 4 126 0 1 1 3 97 0 3 3 109 77 0 4 4 0 97 6 1 0 0 110 0 78 \012ELSE[ ]	/* Else */\012NPUSHB[ ]	/* 35 values pushed */\0120 2 1 5 1 2 5 128 0 5 4 1 5 4 126 0 3 0 1 2 3 1 105 0 4 4 0 97 6 1 0 0 110 0 78 \012EIF[ ]	/* EndIf */\012NPUSHB[ ]	/* 19 values pushed */\0121 0 39 38 36 34 22 20 18 17 15 13 0 42 1 42 7 12 22 \012CALL[ ]	/* CallFunction */";
};
width = 1258;
}
);
leftKerningGroup = S;
note = uni01A7;
rightKerningGroup = B;
unicode = 01A7;
},
{
glyphname = Tretroflexhook;
lastChange = "2024-07-06 19:18:49 +0000";
layers = (
{
layerId = "D204E62E-96B3-40B8-A6C2-F0C74B8845CF";
paths = (
{
closed = 1;
nodes = (
"836 -418 LINE SMOOTH",
"897 -418 OFFCURVE",
"930 -392 OFFCURVE",
"930 -344 CURVE SMOOTH",
"930 -296 OFFCURVE",
"897 -270 OFFCURVE",
"836 -270 CURVE SMOOTH",
"830 -270 LINE SMOOTH",
"787.333 -270 OFFCURVE",
"757.667 -262.167 OFFCURVE",
"741 -246.5 CURVE SMOOTH",
"724.333 -230.833 OFFCURVE",
"716 -205.333 OFFCURVE",
"716 -170 CURVE SMOOTH",
"716 1330 LINE",
"1106 1330 LINE SMOOTH",
"1167 1330 OFFCURVE",
"1200 1358 OFFCURVE",
"1200 1410 CURVE SMOOTH",
"1200 1462 OFFCURVE",
"1167 1490 OFFCURVE",
"1106 1490 CURVE SMOOTH",
"144 1490 LINE SMOOTH",
"83 1490 OFFCURVE",
"50 1462 OFFCURVE",
"50 1410 CURVE SMOOTH",
"50 1358 OFFCURVE",
"83 1330 OFFCURVE",
"144 1330 CURVE SMOOTH",
"536 1330 LINE",
"536 -170 LINE SMOOTH",
"536 -250.667 OFFCURVE",
"560.167 -312.167 OFFCURVE",
"608.5 -354.5 CURVE SMOOTH",
"656.833 -396.833 OFFCURVE",
"727.333 -418 OFFCURVE",
"820 -418 CURVE SMOOTH"
);
}
);
userData = {
assembly = "NPUSHB[ ]	/* 40 values pushed */\0123 1 1 1 2 95 0 2 2 103 77 0 4 4 0 97 5 1 0 0 108 0 78 1 0 14 12 9 8 7 6 5 4 0 15 1 15 6 12 22 \012CALL[ ]	/* CallFunction */";
};
width = 1250;
}
);
leftKerningGroup = "Kabashkir-cy";
note = Trthook;
rightKerningGroup = "Enghe-cy";
unicode = 01AE;
},
{
glyphname = U;
lastChange = "2024-07-06 19:18:49 +0000";
layers = (
{
layerId = "D204E62E-96B3-40B8-A6C2-F0C74B8845CF";
paths = (
{
closed = 1;
nodes = (
"837.333 -24 OFFCURVE",
"939.333 -1 OFFCURVE",
"1026 45 CURVE SMOOTH",
"1112.667 91 OFFCURVE",
"1180 153.833 OFFCURVE",
"1228 233.5 CURVE SMOOTH",
"1276 313.167 OFFCURVE",
"1300 404 OFFCURVE",
"1300 506 CURVE SMOOTH",
"1300 1396 LINE SMOOTH",
"1300 1457 OFFCURVE",
"1268 1490 OFFCURVE",
"1210 1490 CURVE SMOOTH",
"1152 1490 OFFCURVE",
"1120 1457 OFFCURVE",
"1120 1396 CURVE SMOOTH",
"1120 520 LINE SMOOTH",
"1120 447.333 OFFCURVE",
"1104 382.667 OFFCURVE",
"1072 326 CURVE SMOOTH",
"1040 269.333 OFFCURVE",
"994.167 224.833 OFFCURVE",
"934.5 192.5 CURVE SMOOTH",
"874.833 160.167 OFFCURVE",
"803.333 144 OFFCURVE",
"720 144 CURVE SMOOTH",
"637.333 144 OFFCURVE",
"566 160.167 OFFCURVE",
"506 192.5 CURVE SMOOTH",
"446 224.833 OFFCURVE",
"400 269.333 OFFCURVE",
"368 326 CURVE SMOOTH",
"336 382.667 OFFCURVE",
"320 447.333 OFFCURVE",
"320 520 CURVE SMOOTH",
"320 1396 LINE SMOOTH",
"320 1457 OFFCURVE",
"288 1490 OFFCURVE",
"230 1490 CURVE SMOOTH",
"172 1490 OFFCURVE",
"140 1457 OFFCURVE",
"140 1396 CURVE SMOOTH",
"140 506 LINE SMOOTH",
"140 404 OFFCURVE",
"164 313.167 OFFCURVE",
"212 233.5 CURVE SMOOTH",
"260 153.833 OFFCURVE",
"327.5 91 OFFCURVE",
"414.5 45 CURVE SMOOTH",
"501.5 -1 OFFCURVE",
"603.333 -24 OFFCURVE",
"720 -24 CURVE SMOOTH"
);
}
);
userData = {
assembly = "NPUSHB[ ]	/* 33 values pushed */\0123 1 1 1 103 77 0 2 2 0 97 4 1 0 0 110 0 78 1 0 17 16 12 10 6 5 0 21 1 21 5 12 22 \012CALL[ ]	/* CallFunction */";
};
width = 1440;
}
);
leftKerningGroup = U;
note = U;
rightKerningGroup = J;
unicode = 0055;
},
{
glyphname = Ubar;
lastChange = "2024-07-06 19:18:49 +0000";
layers = (
{
layerId = "D204E62E-96B3-40B8-A6C2-F0C74B8845CF";
paths = (
{
closed = 1;
nodes = (
"1492 843 OFFCURVE",
"1459 864 OFFCURVE",
"1398 864 CURVE SMOOTH",
"1300 864 LINE",
"1300 1396 LINE SMOOTH",
"1300 1457 OFFCURVE",
"1268 1490 OFFCURVE",
"1210 1490 CURVE SMOOTH",
"1152 1490 OFFCURVE",
"1120 1457 OFFCURVE",
"1120 1396 CURVE SMOOTH",
"1120 864 LINE",
"320 864 LINE",
"320 1396 LINE SMOOTH",
"320 1457 OFFCURVE",
"288 1490 OFFCURVE",
"230 1490 CURVE SMOOTH",
"172 1490 OFFCURVE",
"140 1457 OFFCURVE",
"140 1396 CURVE SMOOTH",
"140 864 LINE",
"51 864 LINE SMOOTH",
"-6 864 OFFCURVE",
"-38 843 OFFCURVE",
"-38 804 CURVE SMOOTH",
"-38 765 OFFCURVE",
"-5 744 OFFCURVE",
"56 744 CURVE SMOOTH",
"140 744 LINE",
"140 506 LINE SMOOTH",
"140 404 OFFCURVE",
"164 313.167 OFFCURVE",
"212 233.5 CURVE SMOOTH",
"260 153.833 OFFCURVE",
"327.5 91 OFFCURVE",
"414.5 45 CURVE SMOOTH",
"501.5 -1 OFFCURVE",
"603.333 -24 OFFCURVE",
"720 -24 CURVE SMOOTH",
"837.333 -24 OFFCURVE",
"939.333 -1 OFFCURVE",
"1026 45 CURVE SMOOTH",
"1112.667 91 OFFCURVE",
"1180 153.833 OFFCURVE",
"1228 233.5 CURVE SMOOTH",
"1276 313.167 OFFCURVE",
"1300 404 OFFCURVE",
"1300 506 CURVE SMOOTH",
"1300 744 LINE",
"1398 744 LINE SMOOTH",
"1459 744 OFFCURVE",
"1492 765 OFFCURVE",
"1492 804 CURVE SMOOTH"
);
},
{
closed = 1;
nodes = (
"1120 744 LINE",
"1120 520 LINE SMOOTH",
"1120 447.333 OFFCURVE",
"1104 382.667 OFFCURVE",
"1072 326 CURVE SMOOTH",
"1040 269.333 OFFCURVE",
"994.167 224.833 OFFCURVE",
"934.5 192.5 CURVE SMOOTH",
"874.833 160.167 OFFCURVE",
"803.333 144 OFFCURVE",
"720 144 CURVE SMOOTH",
"637.333 144 OFFCURVE",
"566 160.167 OFFCURVE",
"506 192.5 CURVE SMOOTH",
"446 224.833 OFFCURVE",
"400 269.333 OFFCURVE",
"368 326 CURVE SMOOTH",
"336 382.667 OFFCURVE",
"320 447.333 OFFCURVE",
"320 520 CURVE SMOOTH",
"320 744 LINE"
);
}
);
userData = {
assembly = "NPUSHB[ ]	/* 50 values pushed */\01210 7 5 3 3 8 2 2 0 9 3 0 103 6 1 4 4 103 77 0 9 9 1 97 0 1 1 110 1 78 0 0 30 28 24 23 0 22 0 22 17 17 17 17 20 36 17 11 12 29 \012CALL[ ]	/* CallFunction */";
};
width = 1454;
}
);
leftKerningGroup = U;
note = uni0244;
rightKerningGroup = J;
unicode = 0244;
},
{
glyphname = Uhorn;
lastChange = "2024-07-06 19:18:49 +0000";
layers = (
{
layerId = "D204E62E-96B3-40B8-A6C2-F0C74B8845CF";
paths = (
{
closed = 1;
nodes = (
"837.333 -24 OFFCURVE",
"939.333 -1 OFFCURVE",
"1026 45 CURVE SMOOTH",
"1112.667 91 OFFCURVE",
"1180 153.833 OFFCURVE",
"1228 233.5 CURVE SMOOTH",
"1276 313.167 OFFCURVE",
"1300 404 OFFCURVE",
"1300 506 CURVE SMOOTH",
"1300 1350 LINE",
"1312 1350 LINE SMOOTH",
"1425.333 1350 OFFCURVE",
"1482 1406.667 OFFCURVE",
"1482 1520 CURVE SMOOTH",
"1482 1636 LINE SMOOTH",
"1482 1697 OFFCURVE",
"1452 1730 OFFCURVE",
"1397 1730 CURVE SMOOTH",
"1342 1730 OFFCURVE",
"1312 1697 OFFCURVE",
"1312 1636 CURVE SMOOTH",
"1312 1508 LINE SMOOTH",
"1312 1496 OFFCURVE",
"1306 1490 OFFCURVE",
"1294 1490 CURVE SMOOTH",
"1214 1490 LINE SMOOTH",
"1153 1490 OFFCURVE",
"1120 1457 OFFCURVE",
"1120 1396 CURVE SMOOTH",
"1120 520 LINE SMOOTH",
"1120 447.333 OFFCURVE",
"1104 382.667 OFFCURVE",
"1072 326 CURVE SMOOTH",
"1040 269.333 OFFCURVE",
"994.167 224.833 OFFCURVE",
"934.5 192.5 CURVE SMOOTH",
"874.833 160.167 OFFCURVE",
"803.333 144 OFFCURVE",
"720 144 CURVE SMOOTH",
"637.333 144 OFFCURVE",
"566 160.167 OFFCURVE",
"506 192.5 CURVE SMOOTH",
"446 224.833 OFFCURVE",
"400 269.333 OFFCURVE",
"368 326 CURVE SMOOTH",
"336 382.667 OFFCURVE",
"320 447.333 OFFCURVE",
"320 520 CURVE SMOOTH",
"320 1396 LINE SMOOTH",
"320 1457 OFFCURVE",
"288 1490 OFFCURVE",
"230 1490 CURVE SMOOTH",
"172 1490 OFFCURVE",
"140 1457 OFFCURVE",
"140 1396 CURVE SMOOTH",
"140 506 LINE SMOOTH",
"140 404 OFFCURVE",
"164 313.167 OFFCURVE",
"212 233.5 CURVE SMOOTH",
"260 153.833 OFFCURVE",
"327.5 91 OFFCURVE",
"414.5 45 CURVE SMOOTH",
"501.5 -1 OFFCURVE",
"603.333 -24 OFFCURVE",
"720 -24 CURVE SMOOTH"
);
}
);
userData = {
assembly = "NPUSHB[ ]	/* 51 values pushed */\01219 1 1 4 1 76 0 4 0 5 2 4 5 105 3 1 1 1 103 77 0 2 2 0 97 6 1 0 0 110 0 78 1 0 24 23 21 20 17 16 12 10 6 5 0 29 1 29 7 12 22 \012CALL[ ]	/* CallFunction */";
};
width = 1440;
}
);
leftKerningGroup = U;
note = Uhorn;
rightKerningGroup = Uhorn;
unicode = 01AF;
},
{
glyphname = "Upsilon-latin";
lastChange = "2024-07-06 19:18:49 +0000";
layers = (
{
layerId = "D204E62E-96B3-40B8-A6C2-F0C74B8845CF";
paths = (
{
closed = 1;
nodes = (
"90 562.667 OFFCURVE",
"118.167 437.5 OFFCURVE",
"174.5 328.5 CURVE SMOOTH",
"230.833 219.5 OFFCURVE",
"308.5 134.167 OFFCURVE",
"407.5 72.5 CURVE SMOOTH",
"506.5 10.833 OFFCURVE",
"620 -20 OFFCURVE",
"748 -20 CURVE SMOOTH",
"876 -20 OFFCURVE",
"989.5 10.833 OFFCURVE",
"1088.5 72.5 CURVE SMOOTH",
"1187.5 134.167 OFFCURVE",
"1265.167 219.5 OFFCURVE",
"1321.5 328.5 CURVE SMOOTH",
"1377.833 437.5 OFFCURVE",
"1406 562.667 OFFCURVE",
"1406 704 CURVE SMOOTH",
"1406 845.333 OFFCURVE",
"1378 967.833 OFFCURVE",
"1322 1071.5 CURVE SMOOTH",
"1266 1175.167 OFFCURVE",
"1190 1257.333 OFFCURVE",
"1094 1318 CURVE",
"1094 1330 LINE",
"1312 1330 LINE SMOOTH",
"1373 1330 OFFCURVE",
"1406 1358 OFFCURVE",
"1406 1410 CURVE SMOOTH",
"1406 1462 OFFCURVE",
"1373 1490 OFFCURVE",
"1312 1490 CURVE SMOOTH",
"970 1490 LINE SMOOTH",
"909 1490 OFFCURVE",
"876 1457 OFFCURVE",
"876 1396 CURVE SMOOTH",
"876 1362 LINE SMOOTH",
"876 1310 OFFCURVE",
"899 1279 OFFCURVE",
"943 1251 CURVE SMOOTH",
"982 1227 OFFCURVE",
"1018 1197 OFFCURVE",
"1052.5 1161 CURVE SMOOTH",
"1106.167 1105 OFFCURVE",
"1149.167 1038.167 OFFCURVE",
"1181.5 960.5 CURVE SMOOTH",
"1213.833 882.833 OFFCURVE",
"1230 797.333 OFFCURVE",
"1230 704 CURVE SMOOTH",
"1230 600.667 OFFCURVE",
"1209.5 506.833 OFFCURVE",
"1168.5 422.5 CURVE SMOOTH",
"1127.5 338.167 OFFCURVE",
"1070.667 271.333 OFFCURVE",
"998 222 CURVE SMOOTH",
"925.333 172.667 OFFCURVE",
"842 148 OFFCURVE",
"748 148 CURVE SMOOTH",
"654 148 OFFCURVE",
"570.5 172.667 OFFCURVE",
"497.5 222 CURVE SMOOTH",
"424.5 271.333 OFFCURVE",
"367.333 338.167 OFFCURVE",
"326 422.5 CURVE SMOOTH",
"284.667 506.833 OFFCURVE",
"264 600.667 OFFCURVE",
"264 704 CURVE SMOOTH",
"264 797.333 OFFCURVE",
"280.333 882.833 OFFCURVE",
"313 960.5 CURVE SMOOTH",
"345.667 1038.167 OFFCURVE",
"389 1105 OFFCURVE",
"443 1161 CURVE SMOOTH",
"477 1197 OFFCURVE",
"514 1227 OFFCURVE",
"553 1251 CURVE SMOOTH",
"597 1279 OFFCURVE",
"620 1310 OFFCURVE",
"620 1362 CURVE SMOOTH",
"620 1396 LINE SMOOTH",
"620 1457 OFFCURVE",
"587 1490 OFFCURVE",
"526 1490 CURVE SMOOTH",
"184 1490 LINE SMOOTH",
"123 1490 OFFCURVE",
"90 1462 OFFCURVE",
"90 1410 CURVE SMOOTH",
"90 1358 OFFCURVE",
"123 1330 OFFCURVE",
"184 1330 CURVE SMOOTH",
"402 1330 LINE",
"402 1318 LINE",
"305.333 1255.333 OFFCURVE",
"229.167 1172.667 OFFCURVE",
"173.5 1070 CURVE SMOOTH",
"117.833 967.333 OFFCURVE",
"90 845.333 OFFCURVE",
"90 704 CURVE SMOOTH"
);
}
);
userData = {
assembly = "NPUSHB[ ]	/* 39 values pushed */\01224 8 2 2 0 1 76 4 1 0 0 1 95 3 1 1 1 103 77 0 2 2 5 97 0 5 5 110 5 78 39 17 24 40 17 35 6 12 28 \012CALL[ ]	/* CallFunction */";
};
width = 1496;
}
);
note = Upsilon2;
unicode = 01B1;
},
{
glyphname = V;
lastChange = "2024-07-06 19:18:49 +0000";
layers = (
{
layerId = "D204E62E-96B3-40B8-A6C2-F0C74B8845CF";
paths = (
{
closed = 1;
nodes = (
"694 0 LINE SMOOTH",
"748 0 OFFCURVE",
"782 23 OFFCURVE",
"801 75 CURVE SMOOTH",
"1279 1382 LINE SMOOTH",
"1303 1448 OFFCURVE",
"1275 1490 OFFCURVE",
"1210 1490 CURVE SMOOTH",
"1156 1490 OFFCURVE",
"1121 1465 OFFCURVE",
"1103 1414 CURVE SMOOTH",
"816 592 LINE SMOOTH",
"800.667 548 OFFCURVE",
"781.5 491.333 OFFCURVE",
"758.5 422 CURVE SMOOTH",
"735.5 352.667 OFFCURVE",
"707.667 267 OFFCURVE",
"675 165 CURVE",
"641.667 267 OFFCURVE",
"613.333 352.667 OFFCURVE",
"590 422 CURVE SMOOTH",
"566.667 491.333 OFFCURVE",
"547.333 548 OFFCURVE",
"532 592 CURVE SMOOTH",
"237 1414 LINE SMOOTH",
"219 1465 OFFCURVE",
"184 1490 OFFCURVE",
"130 1490 CURVE SMOOTH",
"115 1490 LINE SMOOTH",
"58 1490 OFFCURVE",
"36 1448 OFFCURVE",
"60 1382 CURVE SMOOTH",
"542 75 LINE SMOOTH",
"561 24 OFFCURVE",
"596 0 OFFCURVE",
"650 0 CURVE SMOOTH"
);
}
);
userData = {
assembly = "NPUSHB[ ]	/* 30 values pushed */\0126 1 2 0 1 76 1 1 0 0 103 77 3 1 2 2 104 2 78 0 0 0 12 0 12 24 17 4 12 24 \012CALL[ ]	/* CallFunction */";
};
width = 1338;
}
);
leftKerningGroup = V;
note = V;
rightKerningGroup = V;
unicode = 0056;
},
{
glyphname = "V-middleWelsh";
lastChange = "2024-07-06 19:18:49 +0000";
layers = (
{
layerId = "D204E62E-96B3-40B8-A6C2-F0C74B8845CF";
paths = (
{
closed = 1;
nodes = (
"606 778 OFFCURVE",
"628 765 OFFCURVE",
"648 749.5 CURVE SMOOTH",
"689.333 718.5 OFFCURVE",
"722.667 677 OFFCURVE",
"748 625 CURVE SMOOTH",
"773.333 573 OFFCURVE",
"786 509.333 OFFCURVE",
"786 434 CURVE SMOOTH",
"786 340.667 OFFCURVE",
"763.5 268.667 OFFCURVE",
"718.5 218 CURVE SMOOTH",
"673.5 167.333 OFFCURVE",
"609.333 142 OFFCURVE",
"526 142 CURVE SMOOTH",
"482 142 OFFCURVE",
"439.5 157 OFFCURVE",
"398.5 187 CURVE SMOOTH",
"357.5 217 OFFCURVE",
"324 261.5 OFFCURVE",
"298 320.5 CURVE SMOOTH",
"272 379.5 OFFCURVE",
"258.667 452 OFFCURVE",
"258 538 CURVE",
"258 670 LINE SMOOTH",
"258 837.333 OFFCURVE",
"292.667 974.5 OFFCURVE",
"362 1081.5 CURVE SMOOTH",
"418 1168 OFFCURVE",
"505 1230 OFFCURVE",
"623 1269 CURVE SMOOTH",
"681 1288 OFFCURVE",
"706 1321 OFFCURVE",
"696 1375 CURVE SMOOTH",
"686 1428 OFFCURVE",
"646 1453 OFFCURVE",
"586 1437 CURVE SMOOTH",
"500 1414 OFFCURVE",
"427 1383 OFFCURVE",
"366.5 1343.5 CURVE SMOOTH",
"285.5 1290.5 OFFCURVE",
"222.5 1226.167 OFFCURVE",
"177.5 1150.5 CURVE SMOOTH",
"132.5 1074.833 OFFCURVE",
"101.333 990.333 OFFCURVE",
"84 897 CURVE SMOOTH",
"66.667 803.667 OFFCURVE",
"58 704.667 OFFCURVE",
"58 600 CURVE SMOOTH",
"58 544 LINE SMOOTH",
"58 477.333 OFFCURVE",
"67.5 410.667 OFFCURVE",
"86.5 344 CURVE SMOOTH",
"105.5 277.333 OFFCURVE",
"134.167 216.5 OFFCURVE",
"172.5 161.5 CURVE SMOOTH",
"210.833 106.5 OFFCURVE",
"259.333 62.5 OFFCURVE",
"318 29.5 CURVE SMOOTH",
"376.667 -3.5 OFFCURVE",
"446 -20 OFFCURVE",
"526 -20 CURVE SMOOTH",
"677.333 -20 OFFCURVE",
"791.5 22.333 OFFCURVE",
"868.5 107 CURVE SMOOTH",
"945.5 191.667 OFFCURVE",
"984 305.333 OFFCURVE",
"984 448 CURVE SMOOTH",
"984 536.667 OFFCURVE",
"966.5 617.167 OFFCURVE",
"931.5 689.5 CURVE SMOOTH",
"896.5 761.833 OFFCURVE",
"847.833 822.833 OFFCURVE",
"785.5 872.5 CURVE SMOOTH",
"747 903 OFFCURVE",
"704 929 OFFCURVE",
"657 948 CURVE SMOOTH",
"601 972 OFFCURVE",
"558 949 OFFCURVE",
"541 896 CURVE SMOOTH",
"523 843 OFFCURVE",
"540 810 OFFCURVE",
"584 789 CURVE SMOOTH"
);
}
);
userData = {
assembly = "NPUSHB[ ]	/* 23 values pushed */\01220 19 1 3 1 74 0 1 1 0 97 0 0 0 110 0 78 29 27 39 2 12 23 \012CALL[ ]	/* CallFunction */";
};
width = 1042;
}
);
note = uni1EFC;
unicode = 1EFC;
},
{
glyphname = "Gamma-latin";
lastChange = "2024-07-06 19:18:49 +0000";
layers = (
{
layerId = "D204E62E-96B3-40B8-A6C2-F0C74B8845CF";
paths = (
{
closed = 1;
nodes = (
"36 1490 OFFCURVE",
"8 1446 OFFCURVE",
"36 1380 CURVE SMOOTH",
"521 260 LINE",
"484.333 176 OFFCURVE",
"452.833 106 OFFCURVE",
"426.5 50 CURVE SMOOTH",
"400.167 -6 OFFCURVE",
"379.833 -53.333 OFFCURVE",
"365.5 -92 CURVE SMOOTH",
"351.167 -130.667 OFFCURVE",
"344 -166 OFFCURVE",
"344 -198 CURVE SMOOTH",
"344 -276.667 OFFCURVE",
"367.833 -337 OFFCURVE",
"415.5 -379 CURVE SMOOTH",
"463.167 -421 OFFCURVE",
"529.333 -442 OFFCURVE",
"614 -442 CURVE SMOOTH",
"698.667 -442 OFFCURVE",
"764.833 -421 OFFCURVE",
"812.5 -379 CURVE SMOOTH",
"860.167 -337 OFFCURVE",
"884 -276.667 OFFCURVE",
"884 -198 CURVE SMOOTH",
"884 -168 OFFCURVE",
"876.5 -133.833 OFFCURVE",
"861.5 -95.5 CURVE SMOOTH",
"846.5 -57.167 OFFCURVE",
"825.667 -10.333 OFFCURVE",
"799 45 CURVE SMOOTH",
"772.333 100.333 OFFCURVE",
"741 169 OFFCURVE",
"705 251 CURVE",
"1193 1380 LINE SMOOTH",
"1221 1445 OFFCURVE",
"1192 1490 OFFCURVE",
"1122 1490 CURVE SMOOTH",
"1069 1490 OFFCURVE",
"1034 1468 OFFCURVE",
"1013 1418 CURVE SMOOTH",
"611 473 LINE",
"214 1418 LINE SMOOTH",
"193 1467 OFFCURVE",
"159 1490 OFFCURVE",
"106 1490 CURVE SMOOTH"
);
},
{
closed = 1;
nodes = (
"643 -20.333 OFFCURVE",
"664.5 -70.167 OFFCURVE",
"679.5 -106.5 CURVE SMOOTH",
"694.5 -142.833 OFFCURVE",
"702 -173.333 OFFCURVE",
"702 -198 CURVE SMOOTH",
"702 -219.333 OFFCURVE",
"693.833 -238.333 OFFCURVE",
"677.5 -255 CURVE SMOOTH",
"661.167 -271.667 OFFCURVE",
"640 -280 OFFCURVE",
"614 -280 CURVE SMOOTH",
"587.333 -280 OFFCURVE",
"566 -272 OFFCURVE",
"550 -256 CURVE SMOOTH",
"534 -240 OFFCURVE",
"526 -220.667 OFFCURVE",
"526 -198 CURVE SMOOTH",
"526 -173.333 OFFCURVE",
"534 -142.333 OFFCURVE",
"550 -105 CURVE SMOOTH",
"566 -67.667 OFFCURVE",
"587.667 -18.333 OFFCURVE",
"615 43 CURVE"
);
}
);
userData = {
assembly = "PUSHB[ ]	/* 8 values pushed */\01219 5 2 3 3 0 1 76 \012MPPEM[ ]	/* MeasurePixelPerEm */\012PUSHB[ ]	/* 1 value pushed */\01243 \012LT[ ]	/* LessThan */\012IF[ ]	/* If */\012NPUSHB[ ]	/* 17 values pushed */\0121 1 0 0 103 77 0 3 3 2 97 0 2 2 108 2 78 \012ELSE[ ]	/* Else */\012NPUSHB[ ]	/* 14 values pushed */\0120 3 0 2 3 2 101 1 1 0 0 103 0 78 \012EIF[ ]	/* EndIf */\012PUSHB[ ]	/* 7 values pushed */\01244 39 18 16 4 12 26 \012CALL[ ]	/* CallFunction */";
};
width = 1228;
}
);
leftKerningGroup = V;
note = Gamma1;
rightKerningGroup = V;
unicode = 0194;
},
{
glyphname = Vhook;
lastChange = "2024-07-06 19:18:49 +0000";
layers = (
{
layerId = "D204E62E-96B3-40B8-A6C2-F0C74B8845CF";
paths = (
{
closed = 1;
nodes = (
"708 -20 OFFCURVE",
"795.333 -1.833 OFFCURVE",
"876 34.5 CURVE SMOOTH",
"956.667 70.833 OFFCURVE",
"1021.833 125.5 OFFCURVE",
"1071.5 198.5 CURVE SMOOTH",
"1121.167 271.5 OFFCURVE",
"1146 362.667 OFFCURVE",
"1146 472 CURVE SMOOTH",
"1146 1160 LINE SMOOTH",
"1146 1272.667 OFFCURVE",
"1115.667 1359.167 OFFCURVE",
"1055 1419.5 CURVE SMOOTH",
"994.333 1479.833 OFFCURVE",
"919.333 1510 OFFCURVE",
"830 1510 CURVE SMOOTH",
"807.333 1510 OFFCURVE",
"784.833 1508.167 OFFCURVE",
"762.5 1504.5 CURVE SMOOTH",
"752 1503 OFFCURVE",
"743 1501 OFFCURVE",
"734 1499 CURVE SMOOTH",
"715 1495 OFFCURVE",
"706 1463 OFFCURVE",
"706 1407 CURVE SMOOTH",
"706 1364 LINE SMOOTH",
"706 1344 OFFCURVE",
"721 1336 OFFCURVE",
"738 1337 CURVE SMOOTH",
"739 1337 OFFCURVE",
"740 1337 OFFCURVE",
"740.5 1337 CURVE SMOOTH",
"774 1338 LINE SMOOTH",
"825.333 1338 OFFCURVE",
"865.333 1324.833 OFFCURVE",
"894 1298.5 CURVE SMOOTH",
"922.667 1272.167 OFFCURVE",
"936.667 1226 OFFCURVE",
"936 1160 CURVE SMOOTH",
"936 472 LINE SMOOTH",
"936 359.333 OFFCURVE",
"906.667 276.833 OFFCURVE",
"848 224.5 CURVE SMOOTH",
"789.333 172.167 OFFCURVE",
"711.333 146 OFFCURVE",
"614 146 CURVE SMOOTH",
"516.667 146 OFFCURVE",
"438.5 172.167 OFFCURVE",
"379.5 224.5 CURVE SMOOTH",
"320.5 276.833 OFFCURVE",
"290.667 359.333 OFFCURVE",
"290 472 CURVE",
"290 1396 LINE SMOOTH",
"290 1457 OFFCURVE",
"257 1490 OFFCURVE",
"196 1490 CURVE SMOOTH",
"178 1490 LINE SMOOTH",
"117 1490 OFFCURVE",
"84 1457 OFFCURVE",
"84 1396 CURVE SMOOTH",
"84 472 LINE SMOOTH",
"84 362.667 OFFCURVE",
"107.333 271.5 OFFCURVE",
"154 198.5 CURVE SMOOTH",
"200.667 125.5 OFFCURVE",
"264 70.833 OFFCURVE",
"344 34.5 CURVE SMOOTH",
"424 -1.833 OFFCURVE",
"514 -20 OFFCURVE",
"614 -20 CURVE SMOOTH"
);
}
);
userData = {
assembly = "MPPEM[ ]	/* MeasurePixelPerEm */\012PUSHB[ ]	/* 1 value pushed */\01226 \012LT[ ]	/* LessThan */\012IF[ ]	/* If */\012PUSHB[ ]	/* 4 values pushed */\01221 1 1 74 \012ELSE[ ]	/* Else */\012PUSHB[ ]	/* 6 values pushed */\01221 1 1 4 1 76 \012EIF[ ]	/* EndIf */\012MPPEM[ ]	/* MeasurePixelPerEm */\012PUSHB[ ]	/* 1 value pushed */\01226 \012LT[ ]	/* LessThan */\012IF[ ]	/* If */\012NPUSHB[ ]	/* 23 values pushed */\0120 3 3 1 97 4 1 1 1 103 77 0 2 2 0 97 5 1 0 0 110 0 78 \012ELSE[ ]	/* Else */\012NPUSHB[ ]	/* 27 values pushed */\0120 1 1 103 77 0 3 3 4 97 0 4 4 109 77 0 2 2 0 97 5 1 0 0 110 0 78 \012EIF[ ]	/* EndIf */\012NPUSHB[ ]	/* 17 values pushed */\0121 0 25 23 19 16 11 9 6 5 0 31 1 31 6 12 22 \012CALL[ ]	/* CallFunction */";
};
width = 1228;
}
);
note = Vcursive;
unicode = 01B2;
},
{
glyphname = Vturned;
lastChange = "2024-07-06 19:18:49 +0000";
layers = (
{
layerId = "D204E62E-96B3-40B8-A6C2-F0C74B8845CF";
paths = (
{
closed = 1;
nodes = (
"1223 0 LINE SMOOTH",
"1292 0 OFFCURVE",
"1323 42 OFFCURVE",
"1299 108 CURVE SMOOTH",
"825 1415 LINE SMOOTH",
"807 1466 OFFCURVE",
"772 1490 OFFCURVE",
"718 1490 CURVE SMOOTH",
"696 1490 LINE SMOOTH",
"642 1490 OFFCURVE",
"607 1466 OFFCURVE",
"589 1415 CURVE SMOOTH",
"117 108 LINE SMOOTH",
"94 43 OFFCURVE",
"124 0 OFFCURVE",
"193 0 CURVE SMOOTH",
"225 0 LINE SMOOTH",
"280 0 OFFCURVE",
"314 24 OFFCURVE",
"331 77 CURVE SMOOTH",
"706 1212 LINE",
"1086 77 LINE SMOOTH",
"1103 25 OFFCURVE",
"1138 0 OFFCURVE",
"1193 0 CURVE SMOOTH"
);
}
);
userData = {
assembly = "NPUSHB[ ]	/* 30 values pushed */\0121 1 0 1 1 76 0 1 1 103 77 3 2 2 0 0 104 0 78 0 0 0 6 0 6 17 18 4 12 24 \012CALL[ ]	/* CallFunction */";
};
width = 1414;
}
);
note = uni0245;
unicode = 0245;
},
{
glyphname = W;
lastChange = "2024-07-06 19:18:49 +0000";
layers = (
{
layerId = "D204E62E-96B3-40B8-A6C2-F0C74B8845CF";
paths = (
{
closed = 1;
nodes = (
"555 0 LINE SMOOTH",
"611 0 OFFCURVE",
"645 26 OFFCURVE",
"660 80 CURVE SMOOTH",
"898 960 LINE SMOOTH",
"912 1011.333 OFFCURVE",
"925 1063 OFFCURVE",
"937 1115 CURVE SMOOTH",
"949 1167 OFFCURVE",
"960.333 1218.667 OFFCURVE",
"971 1270 CURVE",
"1006 1115 LINE SMOOTH",
"1018 1063 OFFCURVE",
"1031 1011.333 OFFCURVE",
"1045 960 CURVE SMOOTH",
"1284 80 LINE SMOOTH",
"1299 26 OFFCURVE",
"1333 0 OFFCURVE",
"1389 0 CURVE SMOOTH",
"1433 0 LINE SMOOTH",
"1489 0 OFFCURVE",
"1523 26 OFFCURVE",
"1538 80 CURVE SMOOTH",
"1895 1385 LINE SMOOTH",
"1913 1450 OFFCURVE",
"1885 1490 OFFCURVE",
"1823 1490 CURVE SMOOTH",
"1767 1490 OFFCURVE",
"1733 1464 OFFCURVE",
"1719 1409 CURVE SMOOTH",
"1500 560 LINE SMOOTH",
"1484 497.333 OFFCURVE",
"1468.5 434.833 OFFCURVE",
"1453.5 372.5 CURVE SMOOTH",
"1438.5 310.167 OFFCURVE",
"1424.333 247.667 OFFCURVE",
"1411 185 CURVE",
"1397 247.667 OFFCURVE",
"1382.5 310.167 OFFCURVE",
"1367.5 372.5 CURVE SMOOTH",
"1352.5 434.833 OFFCURVE",
"1336.667 497.333 OFFCURVE",
"1320 560 CURVE SMOOTH",
"1097 1409 LINE SMOOTH",
"1083 1464 OFFCURVE",
"1049 1490 OFFCURVE",
"993 1490 CURVE SMOOTH",
"951 1490 LINE SMOOTH",
"895 1490 OFFCURVE",
"861 1465 OFFCURVE",
"847 1410 CURVE SMOOTH",
"622 560 LINE SMOOTH",
"605.333 496.667 OFFCURVE",
"589.333 433.167 OFFCURVE",
"574 369.5 CURVE SMOOTH",
"558.667 305.833 OFFCURVE",
"544.667 242.333 OFFCURVE",
"532 179 CURVE",
"505.333 306.333 OFFCURVE",
"475.667 433.333 OFFCURVE",
"443 560 CURVE SMOOTH",
"223 1409 LINE SMOOTH",
"209 1464 OFFCURVE",
"175 1490 OFFCURVE",
"119 1490 CURVE SMOOTH",
"111 1490 LINE SMOOTH",
"55 1490 OFFCURVE",
"31 1450 OFFCURVE",
"49 1385 CURVE SMOOTH",
"404 80 LINE SMOOTH",
"419 26 OFFCURVE",
"453 0 OFFCURVE",
"509 0 CURVE SMOOTH"
);
}
);
userData = {
assembly = "NPUSHB[ ]	/* 36 values pushed */\01225 14 5 3 3 0 1 76 2 1 2 0 0 103 77 5 4 2 3 3 104 3 78 0 0 0 29 0 29 17 24 23 17 6 12 26 \012CALL[ ]	/* CallFunction */";
};
width = 1944;
}
);
leftKerningGroup = W;
note = W;
rightKerningGroup = W;
unicode = 0057;
},
{
glyphname = Wynn;
lastChange = "2024-07-06 19:18:49 +0000";
layers = (
{
layerId = "D204E62E-96B3-40B8-A6C2-F0C74B8845CF";
paths = (
{
closed = 1;
nodes = (
"290 1477 OFFCURVE",
"257 1490 OFFCURVE",
"196 1490 CURVE SMOOTH",
"176 1490 LINE SMOOTH",
"115 1490 OFFCURVE",
"82 1457 OFFCURVE",
"82 1396 CURVE SMOOTH",
"82 -324 LINE SMOOTH",
"82 -385 OFFCURVE",
"115 -418 OFFCURVE",
"176 -418 CURVE SMOOTH",
"196 -418 LINE SMOOTH",
"257 -418 OFFCURVE",
"290 -385 OFFCURVE",
"290 -324 CURVE SMOOTH",
"290 -162 LINE",
"412.667 -136 OFFCURVE",
"526 -92.667 OFFCURVE",
"630 -32 CURVE SMOOTH",
"734 28.667 OFFCURVE",
"824.667 103 OFFCURVE",
"902 191 CURVE SMOOTH",
"979.333 279 OFFCURVE",
"1039.333 377.333 OFFCURVE",
"1082 486 CURVE SMOOTH",
"1124.667 594.667 OFFCURVE",
"1146 710 OFFCURVE",
"1146 832 CURVE SMOOTH",
"1146 884 LINE SMOOTH",
"1146 1026 OFFCURVE",
"1121.667 1143.167 OFFCURVE",
"1073 1235.5 CURVE SMOOTH",
"1024.333 1327.833 OFFCURVE",
"956 1396.667 OFFCURVE",
"868 1442 CURVE SMOOTH",
"780 1487.333 OFFCURVE",
"677.333 1510 OFFCURVE",
"560 1510 CURVE SMOOTH",
"504 1510 OFFCURVE",
"453.833 1505 OFFCURVE",
"409.5 1495 CURVE SMOOTH",
"365.167 1485 OFFCURVE",
"325.333 1470.667 OFFCURVE",
"290 1452 CURVE"
);
},
{
closed = 1;
nodes = (
"290 1220 LINE",
"315.333 1258.667 OFFCURVE",
"349.667 1288.667 OFFCURVE",
"393 1310 CURVE SMOOTH",
"436.333 1331.333 OFFCURVE",
"492.667 1342 OFFCURVE",
"562 1342 CURVE SMOOTH",
"684 1342 OFFCURVE",
"777.5 1306.167 OFFCURVE",
"842.5 1234.5 CURVE SMOOTH",
"907.5 1162.833 OFFCURVE",
"940 1047.333 OFFCURVE",
"940 888 CURVE SMOOTH",
"940 832 LINE SMOOTH",
"940 750 OFFCURVE",
"927 666.667 OFFCURVE",
"901 582 CURVE SMOOTH",
"875 497.333 OFFCURVE",
"835.5 417 OFFCURVE",
"782.5 341 CURVE SMOOTH",
"729.5 265 OFFCURVE",
"662.167 198 OFFCURVE",
"580.5 140 CURVE SMOOTH",
"498.833 82 OFFCURVE",
"402 38.333 OFFCURVE",
"290 9 CURVE"
);
}
);
userData = {
assembly = "MPPEM[ ]	/* MeasurePixelPerEm */\012PUSHB[ ]	/* 1 value pushed */\01226 \012LT[ ]	/* LessThan */\012IF[ ]	/* If */\012NPUSHB[ ]	/* 12 values pushed */\0121 1 3 0 30 18 14 3 1 3 2 76 \012ELSE[ ]	/* Else */\012NPUSHB[ ]	/* 12 values pushed */\0121 1 3 2 30 18 14 3 1 3 2 76 \012EIF[ ]	/* EndIf */\012MPPEM[ ]	/* MeasurePixelPerEm */\012PUSHB[ ]	/* 1 value pushed */\01226 \012LT[ ]	/* LessThan */\012IF[ ]	/* If */\012NPUSHB[ ]	/* 18 values pushed */\0120 3 3 0 97 4 2 2 0 0 109 77 0 1 1 108 1 78 \012ELSE[ ]	/* Else */\012NPUSHB[ ]	/* 22 values pushed */\0124 1 2 2 103 77 0 3 3 0 97 0 0 0 109 77 0 1 1 108 1 78 \012EIF[ ]	/* EndIf */\012NPUSHB[ ]	/* 13 values pushed */\0120 0 28 26 0 17 0 17 26 35 5 12 24 \012CALL[ ]	/* CallFunction */";
};
width = 1228;
}
);
note = uni01F7;
unicode = 01F7;
},
{
glyphname = X;
lastChange = "2024-07-06 19:18:49 +0000";
layers = (
{
layerId = "D204E62E-96B3-40B8-A6C2-F0C74B8845CF";
paths = (
{
closed = 1;
nodes = (
"157 0 LINE SMOOTH",
"207 0 OFFCURVE",
"241 18 OFFCURVE",
"270 59 CURVE SMOOTH",
"496 384 LINE",
"579.5 505 LINE SMOOTH",
"607.167 545 OFFCURVE",
"634.667 585.333 OFFCURVE",
"662 626 CURVE",
"688.667 585.333 OFFCURVE",
"715.5 545 OFFCURVE",
"742.5 505 CURVE SMOOTH",
"825 384 LINE",
"1049 60 LINE SMOOTH",
"1078 19 OFFCURVE",
"1112 0 OFFCURVE",
"1162 0 CURVE SMOOTH",
"1194 0 LINE SMOOTH",
"1252 0 OFFCURVE",
"1263 50 OFFCURVE",
"1219 114 CURVE SMOOTH",
"768 769 LINE",
"1191 1376 LINE SMOOTH",
"1235 1440 OFFCURVE",
"1212 1490 OFFCURVE",
"1139 1490 CURVE SMOOTH",
"1089 1490 OFFCURVE",
"1055 1472 OFFCURVE",
"1026 1431 CURVE SMOOTH",
"843 1168 LINE",
"752 1034.5 LINE",
"663 902 LINE",
"604.333 990.667 OFFCURVE",
"545 1079.333 OFFCURVE",
"485 1168 CURVE SMOOTH",
"306 1430 LINE SMOOTH",
"278 1472 OFFCURVE",
"242 1490 OFFCURVE",
"192 1490 CURVE SMOOTH",
"161 1490 LINE SMOOTH",
"103 1490 OFFCURVE",
"92 1440 OFFCURVE",
"136 1376 CURVE SMOOTH",
"559 763 LINE",
"105 114 LINE SMOOTH",
"61 51 OFFCURVE",
"70 0 OFFCURVE",
"127 0 CURVE SMOOTH"
);
}
);
userData = {
assembly = "NPUSHB[ ]	/* 35 values pushed */\01218 12 6 1 4 2 0 1 76 1 1 0 0 103 77 4 3 2 2 2 104 2 78 0 0 0 22 0 22 18 23 18 5 12 25 \012CALL[ ]	/* CallFunction */";
};
width = 1322;
}
);
leftKerningGroup = X;
note = X;
rightKerningGroup = X;
unicode = 0058;
},
{
glyphname = Y;
lastChange = "2024-07-06 19:18:49 +0000";
layers = (
{
layerId = "D204E62E-96B3-40B8-A6C2-F0C74B8845CF";
paths = (
{
closed = 1;
nodes = (
"568 94 LINE SMOOTH",
"568 33 OFFCURVE",
"600 0 OFFCURVE",
"658 0 CURVE SMOOTH",
"716 0 OFFCURVE",
"748 33 OFFCURVE",
"748 94 CURVE SMOOTH",
"748 614 LINE",
"1225 1377 LINE SMOOTH",
"1265 1442 OFFCURVE",
"1238 1490 OFFCURVE",
"1163 1490 CURVE SMOOTH",
"1112 1490 OFFCURVE",
"1077 1470 OFFCURVE",
"1050 1427 CURVE SMOOTH",
"791 1008 LINE SMOOTH",
"768.333 971.333 OFFCURVE",
"746 934.5 OFFCURVE",
"724 897.5 CURVE SMOOTH",
"659 787 LINE",
"594.5 897.5 LINE SMOOTH",
"572.833 934.5 OFFCURVE",
"550.333 971.333 OFFCURVE",
"527 1008 CURVE SMOOTH",
"267 1427 LINE SMOOTH",
"240 1470 OFFCURVE",
"205 1490 OFFCURVE",
"154 1490 CURVE SMOOTH",
"124 1490 LINE SMOOTH",
"65 1490 OFFCURVE",
"51 1442 OFFCURVE",
"91 1377 CURVE SMOOTH",
"568 614 LINE"
);
}
);
userData = {
assembly = "NPUSHB[ ]	/* 32 values pushed */\01213 7 1 3 2 0 1 76 1 1 0 0 103 77 3 1 2 2 104 2 78 0 0 0 14 0 14 24 18 4 12 24 \012CALL[ ]	/* CallFunction */";
};
width = 1316;
}
);
leftKerningGroup = Y;
note = Y;
rightKerningGroup = Y;
unicode = 0059;
},
{
glyphname = Yhook;
lastChange = "2024-07-06 19:18:49 +0000";
layers = (
{
layerId = "D204E62E-96B3-40B8-A6C2-F0C74B8845CF";
paths = (
{
closed = 1;
nodes = (
"81 1490 OFFCURVE",
"54 1441 OFFCURVE",
"93 1377 CURVE SMOOTH",
"562 614 LINE",
"562 94 LINE SMOOTH",
"562 33 OFFCURVE",
"594 0 OFFCURVE",
"652 0 CURVE SMOOTH",
"710 0 OFFCURVE",
"742 33 OFFCURVE",
"742 94 CURVE SMOOTH",
"742 614 LINE",
"1140 1266 LINE SMOOTH",
"1166.667 1308.667 OFFCURVE",
"1195.667 1334 OFFCURVE",
"1227 1342 CURVE SMOOTH",
"1243 1346 OFFCURVE",
"1260 1347 OFFCURVE",
"1277 1345 CURVE SMOOTH",
"1311 1341 OFFCURVE",
"1334 1356 OFFCURVE",
"1350 1405 CURVE SMOOTH",
"1365 1452 OFFCURVE",
"1345 1497 OFFCURVE",
"1284 1506 CURVE SMOOTH",
"1243 1511 OFFCURVE",
"1203 1508 OFFCURVE",
"1162.5 1495.5 CURVE SMOOTH",
"1092.833 1473.833 OFFCURVE",
"1034 1422.667 OFFCURVE",
"986 1342 CURVE SMOOTH",
"660 794 LINE",
"644 794 LINE",
"268 1426 LINE SMOOTH",
"242 1470 OFFCURVE",
"207 1490 OFFCURVE",
"156 1490 CURVE SMOOTH"
);
}
);
userData = {
assembly = "NPUSHB[ ]	/* 26 values pushed */\01215 12 8 7 2 5 1 0 1 76 0 0 0 103 77 0 1 1 104 1 78 28 16 2 12 24 \012CALL[ ]	/* CallFunction */";
};
width = 1382;
}
);
leftKerningGroup = Y;
note = uni01B3;
rightKerningGroup = Y;
unicode = 01B3;
},
{
glyphname = Yloop;
lastChange = "2024-07-06 19:18:49 +0000";
layers = (
{
layerId = "D204E62E-96B3-40B8-A6C2-F0C74B8845CF";
paths = (
{
closed = 1;
nodes = (
"257 1490 LINE SMOOTH",
"184 1490 OFFCURVE",
"155 1443 OFFCURVE",
"189 1378 CURVE SMOOTH",
"599 608 LINE",
"573.667 624 OFFCURVE",
"545.667 636.667 OFFCURVE",
"515 646 CURVE SMOOTH",
"484.333 655.333 OFFCURVE",
"451.333 660 OFFCURVE",
"416 660 CURVE SMOOTH",
"353.333 660 OFFCURVE",
"296.167 644.5 OFFCURVE",
"244.5 613.5 CURVE SMOOTH",
"192.833 582.5 OFFCURVE",
"151.833 541.333 OFFCURVE",
"121.5 490 CURVE SMOOTH",
"91.167 438.667 OFFCURVE",
"76 382 OFFCURVE",
"76 320 CURVE SMOOTH",
"76 257.333 OFFCURVE",
"91.167 200.167 OFFCURVE",
"121.5 148.5 CURVE SMOOTH",
"151.833 96.833 OFFCURVE",
"192.833 55.833 OFFCURVE",
"244.5 25.5 CURVE SMOOTH",
"296.167 -4.833 OFFCURVE",
"353.333 -20 OFFCURVE",
"416 -20 CURVE SMOOTH",
"490.667 -20 OFFCURVE",
"557.667 2 OFFCURVE",
"617 46 CURVE SMOOTH",
"676.333 90 OFFCURVE",
"717 146 OFFCURVE",
"739 214 CURVE",
"1302 1379 LINE SMOOTH",
"1333 1444 OFFCURVE",
"1305 1490 OFFCURVE",
"1233 1490 CURVE SMOOTH",
"1203 1490 LINE SMOOTH",
"1150 1490 OFFCURVE",
"1116 1469 OFFCURVE",
"1094 1420 CURVE SMOOTH",
"761 694 LINE",
"396 1422 LINE SMOOTH",
"373 1469 OFFCURVE",
"338 1490 OFFCURVE",
"286 1490 CURVE SMOOTH"
);
},
{
closed = 1;
nodes = (
"372.667 160 OFFCURVE",
"336.167 173.5 OFFCURVE",
"306.5 200.5 CURVE SMOOTH",
"276.833 227.5 OFFCURVE",
"262 267.333 OFFCURVE",
"262 320 CURVE SMOOTH",
"262 374 OFFCURVE",
"276.833 414.5 OFFCURVE",
"306.5 441.5 CURVE SMOOTH",
"336.167 468.5 OFFCURVE",
"372.667 482 OFFCURVE",
"416 482 CURVE SMOOTH",
"458 482 OFFCURVE",
"493.833 468.5 OFFCURVE",
"523.5 441.5 CURVE SMOOTH",
"553.167 414.5 OFFCURVE",
"568 374 OFFCURVE",
"568 320 CURVE SMOOTH",
"568 267.333 OFFCURVE",
"553.167 227.5 OFFCURVE",
"523.5 200.5 CURVE SMOOTH",
"493.833 173.5 OFFCURVE",
"458 160 OFFCURVE",
"416 160 CURVE SMOOTH"
);
}
);
userData = {
assembly = "NPUSHB[ ]	/* 57 values pushed */\0121 1 2 0 18 1 5 2 2 76 0 2 0 5 4 2 5 106 6 3 2 0 0 103 77 7 1 4 4 1 97 0 1 1 110 1 78 21 20 0 0 27 25 20 31 21 31 0 19 0 19 38 35 18 8 12 25 \012CALL[ ]	/* CallFunction */";
};
width = 1414;
}
);
note = uni1EFE;
unicode = 1EFE;
},
{
glyphname = Yr;
lastChange = "2024-07-06 19:18:49 +0000";
layers = (
{
layerId = "D204E62E-96B3-40B8-A6C2-F0C74B8845CF";
paths = (
{
closed = 1;
nodes = (
"1306 -360 LINE SMOOTH",
"1325 -360 OFFCURVE",
"1336 -358 OFFCURVE",
"1336 -355 CURVE SMOOTH",
"1336 -352 OFFCURVE",
"1328 -336 OFFCURVE",
"1307 -296 CURVE SMOOTH",
"791 659 LINE",
"881 692.333 OFFCURVE",
"951 743.167 OFFCURVE",
"1001 811.5 CURVE SMOOTH",
"1051 879.833 OFFCURVE",
"1076 960 OFFCURVE",
"1076 1052 CURVE SMOOTH",
"1076 1194.667 OFFCURVE",
"1032.167 1303.5 OFFCURVE",
"944.5 1378.5 CURVE SMOOTH",
"856.833 1453.5 OFFCURVE",
"730 1490.667 OFFCURVE",
"564 1490 CURVE SMOOTH",
"288 1490 LINE",
"288 1541 LINE SMOOTH",
"288 1574 OFFCURVE",
"255 1592 OFFCURVE",
"194 1592 CURVE SMOOTH",
"172 1592 LINE SMOOTH",
"111 1592 OFFCURVE",
"78 1559 OFFCURVE",
"78 1498 CURVE SMOOTH",
"78 94 LINE SMOOTH",
"78 33 OFFCURVE",
"111 0 OFFCURVE",
"172 0 CURVE SMOOTH",
"194 0 LINE SMOOTH",
"255 0 OFFCURVE",
"288 33 OFFCURVE",
"288 94 CURVE SMOOTH",
"288 622 LINE",
"592 622 LINE",
"1078 -293 LINE SMOOTH",
"1102 -339 OFFCURVE",
"1138 -360 OFFCURVE",
"1190 -360 CURVE SMOOTH"
);
},
{
closed = 1;
nodes = (
"288 786 LINE",
"288 1322 LINE",
"564 1322 LINE SMOOTH",
"673.333 1322 OFFCURVE",
"751.667 1297.333 OFFCURVE",
"799 1248 CURVE SMOOTH",
"846.333 1198.667 OFFCURVE",
"870 1133.333 OFFCURVE",
"870 1052 CURVE SMOOTH",
"870 977.333 OFFCURVE",
"844.5 914.5 OFFCURVE",
"793.5 863.5 CURVE SMOOTH",
"742.5 812.5 OFFCURVE",
"666 786.667 OFFCURVE",
"564 786 CURVE SMOOTH"
);
}
);
userData = {
assembly = "NPUSHB[ ]	/* 58 values pushed */\01214 1 0 5 1 76 7 1 4 1 4 134 0 5 0 0 1 5 0 103 0 6 6 3 95 0 3 3 103 77 0 2 2 1 95 0 1 1 104 1 78 0 0 25 23 19 17 0 16 0 15 33 17 17 17 8 12 26 \012CALL[ ]	/* CallFunction */";
};
width = 1414;
}
);
note = YR;
unicode = 01A6;
},
{
glyphname = Ystroke;
lastChange = "2024-07-06 19:18:49 +0000";
layers = (
{
layerId = "D204E62E-96B3-40B8-A6C2-F0C74B8845CF";
paths = (
{
closed = 1;
nodes = (
"1330 1163 OFFCURVE",
"1297 1184 OFFCURVE",
"1236 1184 CURVE SMOOTH",
"1105 1184 LINE",
"1225 1377 LINE SMOOTH",
"1265 1442 OFFCURVE",
"1238 1490 OFFCURVE",
"1163 1490 CURVE SMOOTH",
"1112 1490 OFFCURVE",
"1077 1470 OFFCURVE",
"1050 1427 CURVE SMOOTH",
"900 1184 LINE",
"418 1184 LINE",
"267 1427 LINE SMOOTH",
"240 1470 OFFCURVE",
"205 1490 OFFCURVE",
"154 1490 CURVE SMOOTH",
"124 1490 LINE SMOOTH",
"65 1490 OFFCURVE",
"51 1442 OFFCURVE",
"91 1377 CURVE SMOOTH",
"211 1184 LINE",
"68 1184 LINE SMOOTH",
"7 1184 OFFCURVE",
"-26 1163 OFFCURVE",
"-26 1124 CURVE SMOOTH",
"-26 1085 OFFCURVE",
"7 1064 OFFCURVE",
"68 1064 CURVE SMOOTH",
"286 1064 LINE",
"568 614 LINE",
"568 94 LINE SMOOTH",
"568 33 OFFCURVE",
"600 0 OFFCURVE",
"658 0 CURVE SMOOTH",
"716 0 OFFCURVE",
"748 33 OFFCURVE",
"748 94 CURVE SMOOTH",
"748 614 LINE",
"1030 1064 LINE",
"1236 1064 LINE SMOOTH",
"1297 1064 OFFCURVE",
"1330 1085 OFFCURVE",
"1330 1124 CURVE SMOOTH"
);
},
{
closed = 1;
nodes = (
"826 1064 LINE",
"791 1008 LINE SMOOTH",
"768.333 971.333 OFFCURVE",
"746 934.5 OFFCURVE",
"724 897.5 CURVE SMOOTH",
"659 787 LINE",
"594.5 897.5 LINE SMOOTH",
"572.833 934.5 OFFCURVE",
"550.333 971.333 OFFCURVE",
"527 1008 CURVE SMOOTH",
"492 1064 LINE"
);
}
);
userData = {
assembly = "NPUSHB[ ]	/* 51 values pushed */\01223 6 3 3 1 0 1 76 9 7 5 3 3 8 2 2 0 1 3 0 104 6 1 4 4 103 77 0 1 1 104 1 78 0 0 19 18 0 17 0 17 17 17 17 17 18 18 17 10 12 29 \012CALL[ ]	/* CallFunction */";
};
width = 1304;
}
);
leftKerningGroup = Y;
note = uni024E;
rightKerningGroup = Y;
unicode = 024E;
},
{
glyphname = Z;
lastChange = "2024-07-06 19:18:49 +0000";
layers = (
{
layerId = "D204E62E-96B3-40B8-A6C2-F0C74B8845CF";
paths = (
{
closed = 1;
nodes = (
"58 30 OFFCURVE",
"91 0 OFFCURVE",
"152 0 CURVE SMOOTH",
"1104 0 LINE SMOOTH",
"1165 0 OFFCURVE",
"1198 28 OFFCURVE",
"1198 80 CURVE SMOOTH",
"1198 132 OFFCURVE",
"1165 160 OFFCURVE",
"1104 160 CURVE SMOOTH",
"269 160 LINE",
"323 225.333 OFFCURVE",
"376 291.667 OFFCURVE",
"428 359 CURVE SMOOTH",
"1150 1287 LINE SMOOTH",
"1179 1324 OFFCURVE",
"1190 1357 OFFCURVE",
"1190 1403 CURVE SMOOTH",
"1190 1414 LINE SMOOTH",
"1190 1463 OFFCURVE",
"1157 1490 OFFCURVE",
"1096 1490 CURVE SMOOTH",
"184 1490 LINE SMOOTH",
"123 1490 OFFCURVE",
"90 1462 OFFCURVE",
"90 1410 CURVE SMOOTH",
"90 1358 OFFCURVE",
"123 1330 OFFCURVE",
"184 1330 CURVE SMOOTH",
"979 1330 LINE",
"954.333 1300.667 OFFCURVE",
"930.167 1271.167 OFFCURVE",
"906.5 1241.5 CURVE SMOOTH",
"837 1153 LINE",
"98 203 LINE SMOOTH",
"69 166 OFFCURVE",
"58 133 OFFCURVE",
"58 87 CURVE SMOOTH"
);
}
);
userData = {
assembly = "NPUSHB[ ]	/* 44 values pushed */\0129 1 0 1 1 1 3 2 2 76 0 0 0 1 95 0 1 1 103 77 0 2 2 3 95 4 1 3 3 104 3 78 0 0 0 14 0 14 20 17 21 5 12 25 \012CALL[ ]	/* CallFunction */";
};
width = 1256;
}
);
leftKerningGroup = Z;
note = Z;
rightKerningGroup = Z;
unicode = 005A;
},
{
glyphname = Zhook;
lastChange = "2024-07-06 19:18:49 +0000";
layers = (
{
layerId = "D204E62E-96B3-40B8-A6C2-F0C74B8845CF";
paths = (
{
closed = 1;
nodes = (
"804 -391 OFFCURVE",
"837 -418 OFFCURVE",
"898 -418 CURVE SMOOTH",
"914 -418 LINE SMOOTH",
"1006.667 -418 OFFCURVE",
"1077.167 -396.833 OFFCURVE",
"1125.5 -354.5 CURVE SMOOTH",
"1173.833 -312.167 OFFCURVE",
"1198 -250.667 OFFCURVE",
"1198 -170 CURVE SMOOTH",
"1198 66 LINE SMOOTH",
"1198 127 OFFCURVE",
"1165 160 OFFCURVE",
"1104 160 CURVE SMOOTH",
"269 160 LINE",
"323 225.333 OFFCURVE",
"376 291.667 OFFCURVE",
"428 359 CURVE SMOOTH",
"1150 1287 LINE SMOOTH",
"1179 1324 OFFCURVE",
"1190 1357 OFFCURVE",
"1190 1403 CURVE SMOOTH",
"1190 1414 LINE SMOOTH",
"1190 1463 OFFCURVE",
"1157 1490 OFFCURVE",
"1096 1490 CURVE SMOOTH",
"184 1490 LINE SMOOTH",
"123 1490 OFFCURVE",
"90 1462 OFFCURVE",
"90 1410 CURVE SMOOTH",
"90 1358 OFFCURVE",
"123 1330 OFFCURVE",
"184 1330 CURVE SMOOTH",
"979 1330 LINE",
"954.333 1300.667 OFFCURVE",
"930.167 1271.167 OFFCURVE",
"906.5 1241.5 CURVE SMOOTH",
"837 1153 LINE",
"98 203 LINE SMOOTH",
"69 166 OFFCURVE",
"58 133 OFFCURVE",
"58 87 CURVE SMOOTH",
"58 76 LINE SMOOTH",
"58 27 OFFCURVE",
"91 0 OFFCURVE",
"152 0 CURVE SMOOTH",
"1018 0 LINE",
"1018 -162 LINE SMOOTH",
"1018 -197.333 OFFCURVE",
"1009.667 -222.833 OFFCURVE",
"993 -238.5 CURVE SMOOTH",
"976.333 -254.167 OFFCURVE",
"946.667 -262 OFFCURVE",
"904 -262 CURVE SMOOTH",
"898 -262 LINE SMOOTH",
"837 -262 OFFCURVE",
"804 -290 OFFCURVE",
"804 -340 CURVE SMOOTH"
);
}
);
userData = {
assembly = "NPUSHB[ ]	/* 56 values pushed */\01216 1 2 3 8 1 1 4 2 76 0 2 2 3 95 0 3 3 103 77 0 4 4 1 95 0 1 1 104 77 0 0 0 5 97 6 1 5 5 108 5 78 0 0 0 24 0 23 20 17 21 19 33 7 12 27 \012CALL[ ]	/* CallFunction */";
};
width = 1256;
}
);
leftKerningGroup = Z;
note = uni0224;
rightKerningGroup = Z;
unicode = 0224;
},
{
glyphname = Zswashtail;
lastChange = "2024-07-06 19:18:49 +0000";
layers = (
{
layerId = "D204E62E-96B3-40B8-A6C2-F0C74B8845CF";
paths = (
{
closed = 1;
nodes = (
"1018 -418 LINE SMOOTH",
"1079 -418 OFFCURVE",
"1112 -391 OFFCURVE",
"1112 -341 CURVE SMOOTH",
"1112 -291 OFFCURVE",
"1079 -264 OFFCURVE",
"1018 -264 CURVE SMOOTH",
"978 -264 LINE SMOOTH",
"935.333 -264 OFFCURVE",
"895.5 -250 OFFCURVE",
"858.5 -222 CURVE SMOOTH",
"821.5 -194 OFFCURVE",
"784 -159.333 OFFCURVE",
"746 -118 CURVE SMOOTH",
"708 -76.667 OFFCURVE",
"667 -35.333 OFFCURVE",
"623 6 CURVE SMOOTH",
"579 47.333 OFFCURVE",
"528.833 82 OFFCURVE",
"472.5 110 CURVE SMOOTH",
"416.167 138 OFFCURVE",
"350.667 152 OFFCURVE",
"276 152 CURVE",
"1050 1305 LINE SMOOTH",
"1075 1343 OFFCURVE",
"1086 1376 OFFCURVE",
"1086 1422 CURVE SMOOTH",
"1086 1424 LINE SMOOTH",
"1086 1467 OFFCURVE",
"1053 1490 OFFCURVE",
"992 1490 CURVE SMOOTH",
"152 1490 LINE SMOOTH",
"91 1490 OFFCURVE",
"58 1462 OFFCURVE",
"58 1410 CURVE SMOOTH",
"58 1358 OFFCURVE",
"91 1330 OFFCURVE",
"152 1330 CURVE SMOOTH",
"870 1330 LINE",
"101 183 LINE SMOOTH",
"76 145 OFFCURVE",
"66 112 OFFCURVE",
"66 66 CURVE SMOOTH",
"66 65 LINE SMOOTH",
"66 23 OFFCURVE",
"99 0 OFFCURVE",
"160 0 CURVE SMOOTH",
"276 0 LINE SMOOTH",
"337.333 0 OFFCURVE",
"391.333 -14 OFFCURVE",
"438 -42 CURVE SMOOTH",
"484.667 -70 OFFCURVE",
"527.833 -104.833 OFFCURVE",
"567.5 -146.5 CURVE SMOOTH",
"686 -271.5 LINE SMOOTH",
"725.333 -313.167 OFFCURVE",
"768.5 -348 OFFCURVE",
"815.5 -376 CURVE SMOOTH",
"862.5 -404 OFFCURVE",
"916.667 -418 OFFCURVE",
"978 -418 CURVE SMOOTH"
);
}
);
userData = {
assembly = "NPUSHB[ ]	/* 61 values pushed */\01213 1 2 3 8 1 1 4 2 76 0 2 2 3 95 0 3 3 103 77 0 4 4 1 95 0 1 1 104 77 0 5 5 0 97 6 1 0 0 108 0 78 1 0 21 19 15 14 12 11 10 9 7 5 0 22 1 22 7 12 22 \012CALL[ ]	/* CallFunction */";
};
width = 1170;
}
);
leftKerningGroup = Z;
note = uni2C7F;
rightKerningGroup = Z;
unicode = 2C7F;
},
{
glyphname = G.1;
lastChange = "2024-07-06 19:18:49 +0000";
layers = (
{
layerId = "D204E62E-96B3-40B8-A6C2-F0C74B8845CF";
paths = (
{
closed = 1;
nodes = (
"877.667 -24 OFFCURVE",
"970.167 -2.833 OFFCURVE",
"1048.5 39.5 CURVE SMOOTH",
"1126.833 81.833 OFFCURVE",
"1189 136 OFFCURVE",
"1235 202 CURVE",
"1247 89 LINE SMOOTH",
"1253 31 OFFCURVE",
"1282 0 OFFCURVE",
"1329 0 CURVE SMOOTH",
"1375 0 OFFCURVE",
"1401 33 OFFCURVE",
"1401 94 CURVE SMOOTH",
"1401 651 LINE SMOOTH",
"1401 712 OFFCURVE",
"1368 745 OFFCURVE",
"1307 745 CURVE SMOOTH",
"926 745 LINE SMOOTH",
"865 745 OFFCURVE",
"832 717 OFFCURVE",
"832 665 CURVE SMOOTH",
"832 613 OFFCURVE",
"865 585 OFFCURVE",
"926 585 CURVE SMOOTH",
"1227 585 LINE",
"1223 493.667 OFFCURVE",
"1200 415 OFFCURVE",
"1158 349 CURVE SMOOTH",
"1116 283 OFFCURVE",
"1061.167 232.333 OFFCURVE",
"993.5 197 CURVE SMOOTH",
"925.833 161.667 OFFCURVE",
"851.667 144 OFFCURVE",
"771 144 CURVE SMOOTH",
"671.667 144 OFFCURVE",
"584.333 169.5 OFFCURVE",
"509 220.5 CURVE SMOOTH",
"433.667 271.5 OFFCURVE",
"375 342 OFFCURVE",
"333 432 CURVE SMOOTH",
"291 522 OFFCURVE",
"270 626 OFFCURVE",
"270 744 CURVE SMOOTH",
"270 862.667 OFFCURVE",
"291 967.167 OFFCURVE",
"333 1057.5 CURVE SMOOTH",
"375 1147.833 OFFCURVE",
"433.667 1218.5 OFFCURVE",
"509 1269.5 CURVE SMOOTH",
"584.333 1320.5 OFFCURVE",
"671.667 1346 OFFCURVE",
"771 1346 CURVE SMOOTH",
"844.333 1346 OFFCURVE",
"911.167 1331.667 OFFCURVE",
"971.5 1303 CURVE SMOOTH",
"1031.833 1274.333 OFFCURVE",
"1082.667 1234.667 OFFCURVE",
"1124 1184 CURVE SMOOTH",
"1149 1154 OFFCURVE",
"1168 1121 OFFCURVE",
"1184 1085 CURVE SMOOTH",
"1206 1034 OFFCURVE",
"1235 1008 OFFCURVE",
"1290 1008 CURVE SMOOTH",
"1300 1008 LINE SMOOTH",
"1356 1008 OFFCURVE",
"1386 1049 OFFCURVE",
"1364 1113 CURVE SMOOTH",
"1343 1170 OFFCURVE",
"1315 1223 OFFCURVE",
"1278 1271 CURVE SMOOTH",
"1220 1347 OFFCURVE",
"1147.333 1406.5 OFFCURVE",
"1060 1449.5 CURVE SMOOTH",
"972.667 1492.5 OFFCURVE",
"876.333 1514 OFFCURVE",
"771 1514 CURVE SMOOTH",
"639 1514 OFFCURVE",
"521.667 1481.167 OFFCURVE",
"419 1415.5 CURVE SMOOTH",
"316.333 1349.833 OFFCURVE",
"235.833 1259.167 OFFCURVE",
"177.5 1143.5 CURVE SMOOTH",
"119.167 1027.833 OFFCURVE",
"90 894.667 OFFCURVE",
"90 744 CURVE SMOOTH",
"90 594.667 OFFCURVE",
"119.333 462.167 OFFCURVE",
"178 346.5 CURVE SMOOTH",
"236.667 230.833 OFFCURVE",
"317.167 140.167 OFFCURVE",
"419.5 74.5 CURVE SMOOTH",
"521.833 8.833 OFFCURVE",
"639 -24 OFFCURVE",
"771 -24 CURVE SMOOTH"
);
}
);
userData = {
assembly = "PUSHB[ ]	/* 6 values pushed */\01235 1 4 5 1 76 \012MPPEM[ ]	/* MeasurePixelPerEm */\012PUSHB[ ]	/* 1 value pushed */\01222 \012LT[ ]	/* LessThan */\012IF[ ]	/* If */\012NPUSHB[ ]	/* 39 values pushed */\0120 2 3 6 3 2 6 128 0 6 0 5 4 6 5 103 0 3 3 1 97 0 1 1 109 77 0 4 4 0 97 7 8 2 0 0 110 0 78 \012ELSE[ ]	/* Else */\012MPPEM[ ]	/* MeasurePixelPerEm */\012PUSHB[ ]	/* 1 value pushed */\01250 \012LT[ ]	/* LessThan */\012IF[ ]	/* If */\012NPUSHB[ ]	/* 43 values pushed */\0120 2 3 6 3 2 6 128 0 6 0 5 4 6 5 103 0 3 3 1 97 0 1 1 109 77 0 7 7 104 77 0 4 4 0 97 8 1 0 0 110 0 78 \012ELSE[ ]	/* Else */\012NPUSHB[ ]	/* 41 values pushed */\0120 2 3 6 3 2 6 128 0 1 0 3 2 1 3 105 0 6 0 5 4 6 5 103 0 7 7 104 77 0 4 4 0 97 8 1 0 0 110 0 78 \012EIF[ ]	/* EndIf */\012EIF[ ]	/* EndIf */\012NPUSHB[ ]	/* 23 values pushed */\0121 0 34 33 32 31 30 29 26 24 18 16 13 12 9 7 0 37 1 37 9 12 22 \012CALL[ ]	/* CallFunction */";
};
width = 1521;
}
);
leftKerningGroup = C;
note = G.1;
rightKerningGroup = G.1;
},
{
glyphname = Ghook.1;
lastChange = "2024-07-06 19:18:49 +0000";
layers = (
{
layerId = "D204E62E-96B3-40B8-A6C2-F0C74B8845CF";
paths = (
{
closed = 1;
nodes = (
"877.667 -24 OFFCURVE",
"970.167 -2.833 OFFCURVE",
"1048.5 39.5 CURVE SMOOTH",
"1126.833 81.833 OFFCURVE",
"1189 136 OFFCURVE",
"1235 202 CURVE",
"1247 89 LINE SMOOTH",
"1253 31 OFFCURVE",
"1282 0 OFFCURVE",
"1329 0 CURVE SMOOTH",
"1375 0 OFFCURVE",
"1401 33 OFFCURVE",
"1401 94 CURVE SMOOTH",
"1401 651 LINE SMOOTH",
"1401 712 OFFCURVE",
"1368 745 OFFCURVE",
"1307 745 CURVE SMOOTH",
"926 745 LINE SMOOTH",
"865 745 OFFCURVE",
"832 717 OFFCURVE",
"832 665 CURVE SMOOTH",
"832 613 OFFCURVE",
"865 585 OFFCURVE",
"926 585 CURVE SMOOTH",
"1227 585 LINE",
"1223 493.667 OFFCURVE",
"1200 415 OFFCURVE",
"1158 349 CURVE SMOOTH",
"1116 283 OFFCURVE",
"1061.167 232.333 OFFCURVE",
"993.5 197 CURVE SMOOTH",
"925.833 161.667 OFFCURVE",
"851.667 144 OFFCURVE",
"771 144 CURVE SMOOTH",
"671.667 144 OFFCURVE",
"584.333 169.5 OFFCURVE",
"509 220.5 CURVE SMOOTH",
"433.667 271.5 OFFCURVE",
"375 342 OFFCURVE",
"333 432 CURVE SMOOTH",
"291 522 OFFCURVE",
"270 626 OFFCURVE",
"270 744 CURVE SMOOTH",
"270 862.667 OFFCURVE",
"291 967.167 OFFCURVE",
"333 1057.5 CURVE SMOOTH",
"375 1147.833 OFFCURVE",
"433.667 1218.5 OFFCURVE",
"509 1269.5 CURVE SMOOTH",
"584.333 1320.5 OFFCURVE",
"671.667 1346 OFFCURVE",
"771 1346 CURVE SMOOTH",
"844.333 1346 OFFCURVE",
"911.167 1331.667 OFFCURVE",
"971.5 1303 CURVE SMOOTH",
"1031.833 1274.333 OFFCURVE",
"1082.667 1234.667 OFFCURVE",
"1124 1184 CURVE SMOOTH",
"1149 1154 OFFCURVE",
"1168 1121 OFFCURVE",
"1184 1085 CURVE SMOOTH",
"1206 1034 OFFCURVE",
"1235 1008 OFFCURVE",
"1290 1008 CURVE SMOOTH",
"1300 1008 LINE SMOOTH",
"1359 1008 OFFCURVE",
"1391 1041 OFFCURVE",
"1391 1102 CURVE SMOOTH",
"1391 1428 LINE SMOOTH",
"1391 1463.333 OFFCURVE",
"1400 1488.833 OFFCURVE",
"1418 1504.5 CURVE SMOOTH",
"1436 1520.167 OFFCURVE",
"1466.333 1528 OFFCURVE",
"1509 1528 CURVE SMOOTH",
"1515 1528 LINE SMOOTH",
"1576 1528 OFFCURVE",
"1609 1554 OFFCURVE",
"1609 1602 CURVE SMOOTH",
"1609 1650 OFFCURVE",
"1576 1676 OFFCURVE",
"1515 1676 CURVE SMOOTH",
"1509 1676 LINE SMOOTH",
"1416.333 1676 OFFCURVE",
"1345.833 1655 OFFCURVE",
"1297.5 1613 CURVE SMOOTH",
"1249.167 1571 OFFCURVE",
"1225 1509.333 OFFCURVE",
"1225 1428 CURVE SMOOTH",
"1225 1332 LINE",
"1168.333 1388.667 OFFCURVE",
"1101.167 1433.167 OFFCURVE",
"1023.5 1465.5 CURVE SMOOTH",
"945.833 1497.833 OFFCURVE",
"861.667 1514 OFFCURVE",
"771 1514 CURVE SMOOTH",
"639 1514 OFFCURVE",
"521.667 1481.167 OFFCURVE",
"419 1415.5 CURVE SMOOTH",
"316.333 1349.833 OFFCURVE",
"235.833 1259.167 OFFCURVE",
"177.5 1143.5 CURVE SMOOTH",
"119.167 1027.833 OFFCURVE",
"90 894.667 OFFCURVE",
"90 744 CURVE SMOOTH",
"90 594.667 OFFCURVE",
"119.333 462.167 OFFCURVE",
"178 346.5 CURVE SMOOTH",
"236.667 230.833 OFFCURVE",
"317.167 140.167 OFFCURVE",
"419.5 74.5 CURVE SMOOTH",
"521.833 8.833 OFFCURVE",
"639 -24 OFFCURVE",
"771 -24 CURVE SMOOTH"
);
}
);
userData = {
assembly = "NPUSHB[ ]	/* 10 values pushed */\01211 1 4 5 45 1 6 7 2 76 \012MPPEM[ ]	/* MeasurePixelPerEm */\012PUSHB[ ]	/* 1 value pushed */\01222 \012LT[ ]	/* LessThan */\012IF[ ]	/* If */\012NPUSHB[ ]	/* 47 values pushed */\0120 4 5 8 5 4 8 128 0 2 0 3 1 2 3 105 0 8 0 7 6 8 7 103 0 5 5 1 97 0 1 1 109 77 0 6 6 0 97 9 10 2 0 0 110 0 78 \012ELSE[ ]	/* Else */\012MPPEM[ ]	/* MeasurePixelPerEm */\012PUSHB[ ]	/* 1 value pushed */\01250 \012LT[ ]	/* LessThan */\012IF[ ]	/* If */\012NPUSHB[ ]	/* 51 values pushed */\0120 4 5 8 5 4 8 128 0 2 0 3 1 2 3 105 0 8 0 7 6 8 7 103 0 5 5 1 97 0 1 1 109 77 0 9 9 104 77 0 6 6 0 97 10 1 0 0 110 0 78 \012ELSE[ ]	/* Else */\012NPUSHB[ ]	/* 49 values pushed */\0120 4 5 8 5 4 8 128 0 2 0 3 1 2 3 105 0 1 0 5 4 1 5 105 0 8 0 7 6 8 7 103 0 9 9 104 77 0 6 6 0 97 10 1 0 0 110 0 78 \012EIF[ ]	/* EndIf */\012EIF[ ]	/* EndIf */\012NPUSHB[ ]	/* 27 values pushed */\0121 0 44 43 42 41 40 39 36 34 28 26 23 22 19 17 16 14 9 7 0 47 1 47 11 12 22 \012CALL[ ]	/* CallFunction */";
};
width = 1521;
}
);
note = uni0193.1;
},
{
glyphname = I.1;
lastChange = "2024-07-06 19:18:49 +0000";
layers = (
{
layerId = "D204E62E-96B3-40B8-A6C2-F0C74B8845CF";
paths = (
{
closed = 1;
nodes = (
"80 28 OFFCURVE",
"113 0 OFFCURVE",
"174 0 CURVE SMOOTH",
"520 0 LINE SMOOTH",
"581 0 OFFCURVE",
"614 28 OFFCURVE",
"614 80 CURVE SMOOTH",
"614 132 OFFCURVE",
"581 160 OFFCURVE",
"520 160 CURVE SMOOTH",
"437 160 LINE",
"437 1330 LINE",
"526 1330 LINE SMOOTH",
"583 1330 OFFCURVE",
"614 1358 OFFCURVE",
"614 1410 CURVE SMOOTH",
"614 1462 OFFCURVE",
"581 1490 OFFCURVE",
"520 1490 CURVE SMOOTH",
"174 1490 LINE SMOOTH",
"113 1490 OFFCURVE",
"80 1462 OFFCURVE",
"80 1410 CURVE SMOOTH",
"80 1358 OFFCURVE",
"113 1330 OFFCURVE",
"174 1330 CURVE SMOOTH",
"257 1330 LINE",
"257 160 LINE",
"169 160 LINE SMOOTH",
"112 160 OFFCURVE",
"80 132 OFFCURVE",
"80 80 CURVE SMOOTH"
);
}
);
userData = {
assembly = "NPUSHB[ ]	/* 38 values pushed */\0123 1 1 1 2 95 0 2 2 103 77 4 1 0 0 5 95 6 1 5 5 104 5 78 0 0 0 11 0 11 17 17 17 17 17 7 12 27 \012CALL[ ]	/* CallFunction */";
};
width = 694;
}
);
leftKerningGroup = B;
note = I.1;
rightKerningGroup = Ereversed;
},
{
glyphname = Thook.base;
lastChange = "2024-07-06 19:18:49 +0000";
layers = (
{
layerId = "D204E62E-96B3-40B8-A6C2-F0C74B8845CF";
paths = (
{
closed = 1;
nodes = (
"432 1358 OFFCURVE",
"465 1330 OFFCURVE",
"526 1330 CURVE SMOOTH",
"536 1330 LINE",
"536 94 LINE SMOOTH",
"536 33 OFFCURVE",
"568 0 OFFCURVE",
"626 0 CURVE SMOOTH",
"684 0 OFFCURVE",
"716 33 OFFCURVE",
"716 94 CURVE SMOOTH",
"716 1330 LINE",
"1090 1330 LINE SMOOTH",
"1151 1330 OFFCURVE",
"1184 1358 OFFCURVE",
"1184 1410 CURVE SMOOTH",
"1184 1462 OFFCURVE",
"1151 1490 OFFCURVE",
"1090 1490 CURVE SMOOTH",
"526 1490 LINE SMOOTH",
"465 1490 OFFCURVE",
"432 1462 OFFCURVE",
"432 1410 CURVE SMOOTH"
);
}
);
userData = {
assembly = "NPUSHB[ ]	/* 35 values pushed */\0120 2 1 2 134 0 0 1 1 0 87 0 0 0 1 95 4 3 2 1 0 1 79 0 0 0 7 0 7 17 17 17 5 6 25 \012CALL[ ]	/* CallFunction */";
};
width = 1234;
}
);
note = uni01AC.base;
rightKerningGroup = "Enghe-cy";
},
{
glyphname = a;
lastChange = "2024-07-06 19:18:49 +0000";
layers = (
{
layerId = "D204E62E-96B3-40B8-A6C2-F0C74B8845CF";
paths = (
{
closed = 1;
nodes = (
"512 -16 OFFCURVE",
"564.833 -7.5 OFFCURVE",
"606.5 9.5 CURVE SMOOTH",
"648.167 26.5 OFFCURVE",
"681.333 47.833 OFFCURVE",
"706 73.5 CURVE SMOOTH",
"730.667 99.167 OFFCURVE",
"749.333 124.667 OFFCURVE",
"762 150 CURVE",
"766 150 LINE",
"766 75 LINE SMOOTH",
"766 27 OFFCURVE",
"796 0 OFFCURVE",
"850 0 CURVE SMOOTH",
"904 0 OFFCURVE",
"934 33 OFFCURVE",
"934 94 CURVE SMOOTH",
"934 728 LINE SMOOTH",
"934 832.667 OFFCURVE",
"897.833 916.833 OFFCURVE",
"825.5 980.5 CURVE SMOOTH",
"753.167 1044.167 OFFCURVE",
"655.333 1076 OFFCURVE",
"532 1076 CURVE SMOOTH",
"448.667 1076 OFFCURVE",
"375.333 1061.333 OFFCURVE",
"312 1032 CURVE SMOOTH",
"248.667 1002.667 OFFCURVE",
"198.667 962.833 OFFCURVE",
"162 912.5 CURVE SMOOTH",
"143 887 OFFCURVE",
"129 860 OFFCURVE",
"119 831 CURVE SMOOTH",
"100 775 OFFCURVE",
"137 740 OFFCURVE",
"194 740 CURVE SMOOTH",
"249 740 OFFCURVE",
"271 768 OFFCURVE",
"299 816 CURVE SMOOTH",
"312 837 OFFCURVE",
"329 856 OFFCURVE",
"351.5 872.5 CURVE SMOOTH",
"398.5 908.167 OFFCURVE",
"458.667 926 OFFCURVE",
"532 926 CURVE SMOOTH",
"606 926 OFFCURVE",
"663.5 907.333 OFFCURVE",
"704.5 870 CURVE SMOOTH",
"745.5 832.667 OFFCURVE",
"766 785.333 OFFCURVE",
"766 728 CURVE SMOOTH",
"766 718 LINE SMOOTH",
"766 691.333 OFFCURVE",
"757.833 672.667 OFFCURVE",
"741.5 662 CURVE SMOOTH",
"725.167 651.333 OFFCURVE",
"697.667 643.667 OFFCURVE",
"659 639 CURVE SMOOTH",
"620.333 634.333 OFFCURVE",
"567.333 627.333 OFFCURVE",
"500 618 CURVE SMOOTH",
"447.333 611.333 OFFCURVE",
"395.833 602.333 OFFCURVE",
"345.5 591 CURVE SMOOTH",
"295.167 579.667 OFFCURVE",
"250.167 563.167 OFFCURVE",
"210.5 541.5 CURVE SMOOTH",
"170.833 519.833 OFFCURVE",
"139.167 490 OFFCURVE",
"115.5 452 CURVE SMOOTH",
"91.833 414 OFFCURVE",
"80 364.667 OFFCURVE",
"80 304 CURVE SMOOTH",
"80 198.667 OFFCURVE",
"115.167 119 OFFCURVE",
"185.5 65 CURVE SMOOTH",
"255.833 11 OFFCURVE",
"343.333 -16 OFFCURVE",
"448 -16 CURVE SMOOTH"
);
},
{
closed = 1;
nodes = (
"404.667 136 OFFCURVE",
"351.5 150 OFFCURVE",
"312.5 178 CURVE SMOOTH",
"273.5 206 OFFCURVE",
"254 244.667 OFFCURVE",
"254 294 CURVE SMOOTH",
"254 334 OFFCURVE",
"265.333 365.833 OFFCURVE",
"288 389.5 CURVE SMOOTH",
"310.667 413.167 OFFCURVE",
"340.167 431.5 OFFCURVE",
"376.5 444.5 CURVE SMOOTH",
"412.833 457.5 OFFCURVE",
"451.333 466.667 OFFCURVE",
"492 472 CURVE SMOOTH",
"552.667 480.667 OFFCURVE",
"610.333 489.833 OFFCURVE",
"665 499.5 CURVE SMOOTH",
"719.667 509.167 OFFCURVE",
"753.333 520 OFFCURVE",
"766 532 CURVE",
"766 400 LINE SMOOTH",
"766 354 OFFCURVE",
"756 311 OFFCURVE",
"736 271 CURVE SMOOTH",
"716 231 OFFCURVE",
"684.333 198.5 OFFCURVE",
"641 173.5 CURVE SMOOTH",
"597.667 148.5 OFFCURVE",
"541.333 136 OFFCURVE",
"472 136 CURVE SMOOTH"
);
}
);
userData = {
assembly = "PUSHB[ ]	/* 7 values pushed */\01240 30 2 5 2 1 76 \012MPPEM[ ]	/* MeasurePixelPerEm */\012PUSHB[ ]	/* 1 value pushed */\01232 \012LT[ ]	/* LessThan */\012IF[ ]	/* If */\012NPUSHB[ ]	/* 32 values pushed */\0120 2 1 5 1 2 5 128 0 1 1 3 97 0 3 3 112 77 7 1 5 5 0 97 4 6 2 0 0 110 0 78 \012ELSE[ ]	/* Else */\012NPUSHB[ ]	/* 36 values pushed */\0120 2 1 5 1 2 5 128 0 1 1 3 97 0 3 3 112 77 0 4 4 104 77 7 1 5 5 0 97 6 1 0 0 110 0 78 \012EIF[ ]	/* EndIf */\012NPUSHB[ ]	/* 23 values pushed */\01236 35 1 0 35 49 36 49 29 28 25 23 20 19 17 15 0 34 1 34 8 12 22 \012CALL[ ]	/* CallFunction */";
};
width = 1060;
}
);
leftKerningGroup = a;
note = a;
rightKerningGroup = a;
unicode = 0061;
},
{
glyphname = "alphaturned-latin";
lastChange = "2024-07-06 19:18:49 +0000";
layers = (
{
layerId = "D204E62E-96B3-40B8-A6C2-F0C74B8845CF";
paths = (
{
closed = 1;
nodes = (
"722 -20 OFFCURVE",
"802.333 3.167 OFFCURVE",
"871 49.5 CURVE SMOOTH",
"939.667 95.833 OFFCURVE",
"993 160.167 OFFCURVE",
"1031 242.5 CURVE SMOOTH",
"1069 324.833 OFFCURVE",
"1088 420 OFFCURVE",
"1088 528 CURVE SMOOTH",
"1088 636.667 OFFCURVE",
"1069 732.167 OFFCURVE",
"1031 814.5 CURVE SMOOTH",
"993 896.833 OFFCURVE",
"939.667 961 OFFCURVE",
"871 1007 CURVE SMOOTH",
"802.333 1053 OFFCURVE",
"722 1076 OFFCURVE",
"630 1076 CURVE SMOOTH",
"561.333 1076 OFFCURVE",
"497 1061.5 OFFCURVE",
"437 1032.5 CURVE SMOOTH",
"377 1003.5 OFFCURVE",
"330 959.333 OFFCURVE",
"296 900 CURVE",
"294 900 LINE",
"294 978 LINE SMOOTH",
"294 1028 OFFCURVE",
"264 1056 OFFCURVE",
"210 1056 CURVE SMOOTH",
"156 1056 OFFCURVE",
"126 1023 OFFCURVE",
"126 962 CURVE SMOOTH",
"126 94 LINE SMOOTH",
"126 33 OFFCURVE",
"156 0 OFFCURVE",
"210 0 CURVE SMOOTH",
"264 0 OFFCURVE",
"294 33 OFFCURVE",
"294 94 CURVE SMOOTH",
"294 160 LINE",
"296 160 LINE",
"334 99.333 OFFCURVE",
"382 54.167 OFFCURVE",
"440 24.5 CURVE SMOOTH",
"498 -5.167 OFFCURVE",
"561.333 -20 OFFCURVE",
"630 -20 CURVE SMOOTH"
);
},
{
closed = 1;
nodes = (
"506 133 OFFCURVE",
"428.167 169 OFFCURVE",
"370.5 241 CURVE SMOOTH",
"312.833 313 OFFCURVE",
"284 408.667 OFFCURVE",
"284 528 CURVE SMOOTH",
"284 647.333 OFFCURVE",
"312.833 743.167 OFFCURVE",
"370.5 815.5 CURVE SMOOTH",
"428.167 887.833 OFFCURVE",
"506 924 OFFCURVE",
"604 924 CURVE SMOOTH",
"695.333 924 OFFCURVE",
"770.167 890.333 OFFCURVE",
"828.5 823 CURVE SMOOTH",
"886.833 755.667 OFFCURVE",
"916 657.333 OFFCURVE",
"916 528 CURVE SMOOTH",
"916 398.667 OFFCURVE",
"886.833 300.5 OFFCURVE",
"828.5 233.5 CURVE SMOOTH",
"770.167 166.5 OFFCURVE",
"695.333 133 OFFCURVE",
"604 133 CURVE SMOOTH"
);
}
);
userData = {
assembly = "PUSHB[ ]	/* 7 values pushed */\0129 3 2 4 5 1 76 \012MPPEM[ ]	/* MeasurePixelPerEm */\012PUSHB[ ]	/* 1 value pushed */\01226 \012LT[ ]	/* LessThan */\012IF[ ]	/* If */\012NPUSHB[ ]	/* 25 values pushed */\0120 5 5 2 97 3 1 2 2 106 77 7 1 4 4 0 97 1 6 2 0 0 110 0 78 \012ELSE[ ]	/* Else */\012NPUSHB[ ]	/* 33 values pushed */\0120 2 2 106 77 0 5 5 3 97 0 3 3 112 77 0 1 1 104 77 7 1 4 4 0 97 6 1 0 0 110 0 78 \012EIF[ ]	/* EndIf */\012NPUSHB[ ]	/* 23 values pushed */\01222 21 1 0 28 26 21 32 22 32 14 12 8 7 6 5 0 20 1 20 8 12 22 \012CALL[ ]	/* CallFunction */";
};
width = 1160;
}
);
note = ascriptturn;
unicode = 0252;
},
{
glyphname = aturned;
lastChange = "2024-07-06 19:18:49 +0000";
layers = (
{
layerId = "D204E62E-96B3-40B8-A6C2-F0C74B8845CF";
paths = (
{
closed = 1;
nodes = (
"548 1072 OFFCURVE",
"495.167 1063.5 OFFCURVE",
"453.5 1046.5 CURVE SMOOTH",
"411.833 1029.5 OFFCURVE",
"378.833 1008.167 OFFCURVE",
"354.5 982.5 CURVE SMOOTH",
"330.167 956.833 OFFCURVE",
"311.333 931.333 OFFCURVE",
"298 906 CURVE",
"294 906 LINE",
"294 981 LINE SMOOTH",
"294 1029 OFFCURVE",
"264 1056 OFFCURVE",
"210 1056 CURVE SMOOTH",
"156 1056 OFFCURVE",
"126 1023 OFFCURVE",
"126 962 CURVE SMOOTH",
"126 328 LINE SMOOTH",
"126 223.333 OFFCURVE",
"162.333 139.167 OFFCURVE",
"235 75.5 CURVE SMOOTH",
"307.667 11.833 OFFCURVE",
"405.333 -20 OFFCURVE",
"528 -20 CURVE SMOOTH",
"611.333 -20 OFFCURVE",
"684.667 -5.333 OFFCURVE",
"748 24 CURVE SMOOTH",
"811.333 53.333 OFFCURVE",
"861.5 93.333 OFFCURVE",
"898.5 144 CURVE SMOOTH",
"917 169 OFFCURVE",
"931 197 OFFCURVE",
"941 225 CURVE SMOOTH",
"960 281 OFFCURVE",
"923 316 OFFCURVE",
"866 316 CURVE SMOOTH",
"811 316 OFFCURVE",
"789 288 OFFCURVE",
"761 240 CURVE SMOOTH",
"748 219 OFFCURVE",
"731 200 OFFCURVE",
"708.5 183.5 CURVE SMOOTH",
"661.5 147.833 OFFCURVE",
"601.333 130 OFFCURVE",
"528 130 CURVE SMOOTH",
"454 130 OFFCURVE",
"396.5 148.667 OFFCURVE",
"355.5 186 CURVE SMOOTH",
"314.5 223.333 OFFCURVE",
"294 270.667 OFFCURVE",
"294 328 CURVE SMOOTH",
"294 338 LINE SMOOTH",
"294 365.333 OFFCURVE",
"302.167 384.333 OFFCURVE",
"318.5 395 CURVE SMOOTH",
"334.833 405.667 OFFCURVE",
"362.5 413.333 OFFCURVE",
"401.5 418 CURVE SMOOTH",
"560 438 LINE SMOOTH",
"613.333 445.333 OFFCURVE",
"665 454.5 OFFCURVE",
"715 465.5 CURVE SMOOTH",
"765 476.5 OFFCURVE",
"809.833 492.833 OFFCURVE",
"849.5 514.5 CURVE SMOOTH",
"889.167 536.167 OFFCURVE",
"920.833 566 OFFCURVE",
"944.5 604 CURVE SMOOTH",
"968.167 642 OFFCURVE",
"980 691.333 OFFCURVE",
"980 752 CURVE SMOOTH",
"980 857.333 OFFCURVE",
"945 937 OFFCURVE",
"875 991 CURVE SMOOTH",
"805 1045 OFFCURVE",
"717.333 1072 OFFCURVE",
"612 1072 CURVE SMOOTH"
);
},
{
closed = 1;
nodes = (
"655.333 920 OFFCURVE",
"708.5 906 OFFCURVE",
"747.5 878 CURVE SMOOTH",
"786.5 850 OFFCURVE",
"806 811.333 OFFCURVE",
"806 762 CURVE SMOOTH",
"806 722.667 OFFCURVE",
"794.667 691 OFFCURVE",
"772 667 CURVE SMOOTH",
"749.333 643 OFFCURVE",
"719.833 624.667 OFFCURVE",
"683.5 612 CURVE SMOOTH",
"647.167 599.333 OFFCURVE",
"608.667 590 OFFCURVE",
"568 584 CURVE SMOOTH",
"507.333 575.333 OFFCURVE",
"449.833 566.167 OFFCURVE",
"395.5 556.5 CURVE SMOOTH",
"341.167 546.833 OFFCURVE",
"307.333 536 OFFCURVE",
"294 524 CURVE",
"294 656 LINE SMOOTH",
"294 702 OFFCURVE",
"304 745 OFFCURVE",
"324 785 CURVE SMOOTH",
"344 825 OFFCURVE",
"375.667 857.5 OFFCURVE",
"419 882.5 CURVE SMOOTH",
"462.333 907.5 OFFCURVE",
"518.667 920 OFFCURVE",
"588 920 CURVE SMOOTH"
);
}
);
userData = {
assembly = "PUSHB[ ]	/* 7 values pushed */\01240 30 2 2 5 1 76 \012MPPEM[ ]	/* MeasurePixelPerEm */\012PUSHB[ ]	/* 1 value pushed */\01232 \012LT[ ]	/* LessThan */\012IF[ ]	/* If */\012NPUSHB[ ]	/* 32 values pushed */\0120 2 5 1 5 2 1 128 7 1 5 5 0 97 4 6 2 0 0 112 77 0 1 1 3 97 0 3 3 110 3 78 \012ELSE[ ]	/* Else */\012NPUSHB[ ]	/* 36 values pushed */\0120 2 5 1 5 2 1 128 0 4 4 106 77 7 1 5 5 0 97 6 1 0 0 112 77 0 1 1 3 97 0 3 3 110 3 78 \012EIF[ ]	/* EndIf */\012NPUSHB[ ]	/* 23 values pushed */\01236 35 1 0 35 49 36 49 29 28 25 23 20 19 17 15 0 34 1 34 8 12 22 \012CALL[ ]	/* CallFunction */";
};
width = 1060;
}
);
leftKerningGroup = aturned;
note = aturn;
rightKerningGroup = aturned;
unicode = 0250;
},
{
glyphname = ae;
lastChange = "2024-07-06 19:18:49 +0000";
layers = (
{
layerId = "D204E62E-96B3-40B8-A6C2-F0C74B8845CF";
paths = (
{
closed = 1;
nodes = (
"659.333 -14 OFFCURVE",
"785 51.667 OFFCURVE",
"849 183 CURVE",
"890.333 119 OFFCURVE",
"944.833 68.5 OFFCURVE",
"1012.5 31.5 CURVE SMOOTH",
"1080.167 -5.5 OFFCURVE",
"1159 -24 OFFCURVE",
"1249 -24 CURVE SMOOTH",
"1325.667 -24 OFFCURVE",
"1395.5 -9.667 OFFCURVE",
"1458.5 19 CURVE SMOOTH",
"1521.5 47.667 OFFCURVE",
"1574 87.5 OFFCURVE",
"1616 138.5 CURVE SMOOTH",
"1637 164 OFFCURVE",
"1655 192 OFFCURVE",
"1669 222 CURVE SMOOTH",
"1694 277 OFFCURVE",
"1663 316 OFFCURVE",
"1607 316 CURVE SMOOTH",
"1554 316 OFFCURVE",
"1526 291 OFFCURVE",
"1496 246 CURVE SMOOTH",
"1480 222 OFFCURVE",
"1459 200 OFFCURVE",
"1433.5 182 CURVE SMOOTH",
"1385.833 147.333 OFFCURVE",
"1324.333 130 OFFCURVE",
"1249 130 CURVE SMOOTH",
"1149 130 OFFCURVE",
"1071.333 162.333 OFFCURVE",
"1016 227 CURVE SMOOTH",
"960.667 291.667 OFFCURVE",
"931 375.667 OFFCURVE",
"927 479 CURVE",
"1623 479 LINE SMOOTH",
"1684 479 OFFCURVE",
"1717 496 OFFCURVE",
"1717 526 CURVE SMOOTH",
"1717 635.333 OFFCURVE",
"1697.5 731.667 OFFCURVE",
"1658.5 815 CURVE SMOOTH",
"1619.5 898.333 OFFCURVE",
"1564 963.333 OFFCURVE",
"1492 1010 CURVE SMOOTH",
"1420 1056.667 OFFCURVE",
"1335 1080 OFFCURVE",
"1237 1080 CURVE SMOOTH",
"1161.667 1080 OFFCURVE",
"1092.833 1063.833 OFFCURVE",
"1030.5 1031.5 CURVE SMOOTH",
"968.167 999.167 OFFCURVE",
"915.667 954.667 OFFCURVE",
"873 898 CURVE",
"845.667 953.333 OFFCURVE",
"803.333 996.833 OFFCURVE",
"746 1028.5 CURVE SMOOTH",
"688.667 1060.167 OFFCURVE",
"617.333 1076 OFFCURVE",
"532 1076 CURVE SMOOTH",
"448.667 1076 OFFCURVE",
"375.333 1061.333 OFFCURVE",
"312 1032 CURVE SMOOTH",
"248.667 1002.667 OFFCURVE",
"198.667 962.833 OFFCURVE",
"162 912.5 CURVE SMOOTH",
"143 887 OFFCURVE",
"129 860 OFFCURVE",
"119 831 CURVE SMOOTH",
"100 775 OFFCURVE",
"137 740 OFFCURVE",
"194 740 CURVE SMOOTH",
"249 740 OFFCURVE",
"271 768 OFFCURVE",
"299 816 CURVE SMOOTH",
"312 837 OFFCURVE",
"329 856 OFFCURVE",
"351.5 872.5 CURVE SMOOTH",
"398.5 908.167 OFFCURVE",
"458.667 926 OFFCURVE",
"532 926 CURVE SMOOTH",
"606 926 OFFCURVE",
"663.5 907.333 OFFCURVE",
"704.5 870 CURVE SMOOTH",
"745.5 832.667 OFFCURVE",
"766 785.333 OFFCURVE",
"766 728 CURVE SMOOTH",
"766 625 LINE",
"561 625 LINE SMOOTH",
"410.333 625 OFFCURVE",
"292.5 596.667 OFFCURVE",
"207.5 540 CURVE SMOOTH",
"122.5 483.333 OFFCURVE",
"80 404.667 OFFCURVE",
"80 304 CURVE SMOOTH",
"80 211.333 OFFCURVE",
"114.333 135.167 OFFCURVE",
"183 75.5 CURVE SMOOTH",
"251.667 15.833 OFFCURVE",
"348 -14 OFFCURVE",
"472 -14 CURVE SMOOTH"
);
},
{
closed = 1;
nodes = (
"938.333 717.667 OFFCURVE",
"970.333 791.333 OFFCURVE",
"1025 846 CURVE SMOOTH",
"1079.667 900.667 OFFCURVE",
"1150.333 928 OFFCURVE",
"1237 928 CURVE SMOOTH",
"1323.667 928 OFFCURVE",
"1394.667 900.667 OFFCURVE",
"1450 846 CURVE SMOOTH",
"1505.333 791.333 OFFCURVE",
"1537.667 717.667 OFFCURVE",
"1547 625 CURVE",
"929 625 LINE"
);
},
{
closed = 1;
nodes = (
"766 479 LINE",
"766 400 LINE SMOOTH",
"766 354 OFFCURVE",
"756 311 OFFCURVE",
"736 271 CURVE SMOOTH",
"716 231 OFFCURVE",
"684.333 198.833 OFFCURVE",
"641 174.5 CURVE SMOOTH",
"597.667 150.167 OFFCURVE",
"541.333 138 OFFCURVE",
"472 138 CURVE SMOOTH",
"404.667 138 OFFCURVE",
"351.5 151.5 OFFCURVE",
"312.5 178.5 CURVE SMOOTH",
"273.5 205.5 OFFCURVE",
"254 246.667 OFFCURVE",
"254 302 CURVE SMOOTH",
"254 420 OFFCURVE",
"356.333 479 OFFCURVE",
"561 479 CURVE SMOOTH"
);
}
);
userData = {
assembly = "NPUSHB[ ]	/* 10 values pushed */\01222 1 3 2 45 1 7 8 2 76 \012MPPEM[ ]	/* MeasurePixelPerEm */\012PUSHB[ ]	/* 1 value pushed */\01249 \012LT[ ]	/* LessThan */\012IF[ ]	/* If */\012NPUSHB[ ]	/* 52 values pushed */\0120 3 2 1 2 3 1 128 0 8 6 7 6 8 7 128 10 1 1 12 1 6 8 1 6 103 11 1 2 2 4 97 5 1 4 4 112 77 13 1 7 7 0 97 9 14 2 0 0 110 0 78 \012ELSE[ ]	/* Else */\012NPUSHB[ ]	/* 62 values pushed */\0120 3 2 1 2 3 1 128 0 8 6 7 6 8 7 128 10 1 1 12 1 6 8 1 6 103 11 1 2 2 4 97 5 1 4 4 112 77 13 1 7 7 0 97 14 1 0 0 110 77 13 1 7 7 9 97 0 9 9 110 9 78 \012EIF[ ]	/* EndIf */\012NPUSHB[ ]	/* 35 values pushed */\0121 0 61 59 56 54 52 50 48 47 43 41 38 37 35 33 31 30 26 24 20 18 15 14 12 10 7 5 0 46 1 46 15 12 22 \012CALL[ ]	/* CallFunction */";
};
width = 1785;
}
);
leftKerningGroup = a;
note = ae;
rightKerningGroup = aturned;
unicode = 00E6;
},
